<?xml version="1.0" encoding="utf-8"?>
<!-- Generator: Adobe Illustrator 24.0.1, SVG Export Plug-In . SVG Version: 6.00 Build 0)  -->
<svg version="1.1" id="Layer_1" xmlns="http://www.w3.org/2000/svg" xmlns:xlink="http://www.w3.org/1999/xlink" x="0px" y="0px"
	 viewBox="0 0 280 94" style="enable-background:new 0 0 280 94;" xml:space="preserve">
<style type="text/css">
	.st0{fill:#E4E4E4;}
</style>
<path class="st0" d="M262.229,92.768H17.771c-8.672,0-15.701-7.03-15.701-15.701V16.934c0-8.672,7.03-15.701,15.701-15.701h244.459
	c8.672,0,15.701,7.03,15.701,15.701v60.133C277.931,85.738,270.901,92.768,262.229,92.768z"/>
<path d="M59.504,24.555"/>
<path d="M64.569,48.591c0-4.93,2.489-9.279,6.279-11.859c-3.374-4.136-8.537-6.78-14.324-6.78c-1.744,0-3.432,0.554-5.031,1.148
	c-2.435,0.904-5.115,0.904-7.55,0c-1.599-0.594-3.287-1.148-5.031-1.148c-10.166,0-18.408,8.163-18.408,18.232
	c0,10.069,8.241,29.906,18.408,29.906c2.043,0,4.009-0.959,5.845-1.568c1.922-0.637,4-0.637,5.922,0
	c1.836,0.609,3.802,1.568,5.845,1.568c6.571,0,12.338-8.287,15.595-16.868C67.624,58.801,64.569,54.053,64.569,48.591z"/>
<ellipse transform="matrix(0.6592 -0.7519 0.7519 0.6592 0.8599 47.6266)" cx="52.977" cy="22.865" rx="9.247" ry="3.59"/>
<path d="M104.4,18.577c-1.414-1.318-3.488-1.959-6.34-1.959c-1.407,0-2.838,0.108-4.252,0.322l-0.119,0.018v15.41l0.124,0.014
	c1.074,0.122,2.295,0.184,3.63,0.184c3.046,0,5.437-0.781,6.914-2.259c1.479-1.455,2.26-3.562,2.26-6.092
	C106.618,21.822,105.871,19.925,104.4,18.577z M97.832,30.685c-0.549,0-1.323-0.01-1.873-0.093V18.655
	c0.439-0.087,1.152-0.18,2.194-0.18c2.025,0,3.582,0.534,4.629,1.588c0.99,0.997,1.487,2.416,1.476,4.22
	C104.257,28.412,101.975,30.685,97.832,30.685z"/>
<path d="M113.774,20.827c-1.567,0-2.985,0.565-3.994,1.591c-1.07,1.089-1.635,2.619-1.635,4.427c0,3.436,2.24,5.835,5.446,5.835
	c1.473,0,2.842-0.512,3.854-1.441c1.176-1.08,1.798-2.662,1.798-4.578c0-1.699-0.522-3.155-1.51-4.213
	C116.742,21.388,115.373,20.827,113.774,20.827z M113.729,22.616c2.183,0,3.177,2.133,3.177,4.115c0,2.411-1.355,4.161-3.223,4.161
	s-3.223-1.731-3.223-4.115C110.46,24.705,111.471,22.616,113.729,22.616z"/>
<path d="M132.603,26.739c-0.279,0.994-0.56,2.049-0.76,3.099c-0.228-0.952-0.509-1.959-0.871-3.126l-1.746-5.634h-1.897
	l-1.839,5.748c-0.31,1.008-0.629,2.046-0.874,3.033c-0.197-0.981-0.454-1.973-0.725-3.016l-1.5-5.765h-2.355l3.424,11.35h2.034
	l1.817-5.357c0.309-0.946,0.629-1.977,0.897-3.154c0.246,1.075,0.531,2.044,0.873,3.131l1.724,5.381h2.033l3.658-11.35h-2.287
	L132.603,26.739z"/>
<path d="M143.831,20.827c-1.756,0-2.966,0.894-3.59,1.83l-0.099-1.579h-2.066l0.011,0.15c0.064,0.852,0.091,1.745,0.091,2.986v8.214
	h2.292v-6.796c0-0.34,0.047-0.665,0.131-0.897c0.299-0.976,1.208-1.96,2.566-1.96c2.002,0,2.422,1.703,2.422,3.131v6.521h2.292
	v-6.75C147.882,21.061,144.507,20.827,143.831,20.827z"/>
<rect x="150.874" y="15.909" width="2.292" height="16.52"/>
<path d="M161.101,20.827c-1.567,0-2.985,0.565-3.994,1.591c-1.07,1.089-1.635,2.619-1.635,4.427c0,3.436,2.24,5.835,5.446,5.835
	c1.473,0,2.842-0.512,3.854-1.441c1.176-1.08,1.798-2.662,1.798-4.578c0-1.699-0.522-3.155-1.51-4.213
	C164.068,21.388,162.699,20.827,161.101,20.827z M161.055,22.616c2.183,0,3.177,2.133,3.177,4.115c0,2.411-1.355,4.161-3.223,4.161
	c-1.867,0-3.223-1.731-3.223-4.115C157.786,24.705,158.797,22.616,161.055,22.616z"/>
<path d="M176.886,29.635v-4.14c0-2.13-0.754-4.669-4.348-4.669c-1.376,0-2.729,0.367-3.713,1.006l-0.092,0.059l0.551,1.598
	l0.15-0.097c0.775-0.502,1.824-0.801,2.806-0.801c1.577,0,2.377,0.815,2.377,2.422v0.089c-2.594,0.006-4.536,0.579-5.621,1.658
	c-0.687,0.683-1.035,1.558-1.035,2.599c0,1.599,1.103,3.319,3.525,3.319c1.34,0,2.571-0.558,3.346-1.505l0.144,1.253h2.122
	l-0.03-0.165C176.945,31.595,176.886,30.735,176.886,29.635z M172.011,30.914c-0.85,0-1.759-0.468-1.759-1.782
	c0-0.565,0.186-1.033,0.552-1.392c0.655-0.641,1.889-0.965,3.672-0.965c0.061,0,0.124,0,0.186,0.001v1.784
	c0,0.177-0.038,0.389-0.107,0.595C174.279,29.967,173.446,30.914,172.011,30.914z"/>
<path d="M189.695,29.43V15.909h-2.292v6.352c-0.679-0.905-1.862-1.434-3.246-1.434c-1.283,0-2.491,0.504-3.401,1.42
	c-1.109,1.116-1.714,2.774-1.702,4.667c0,3.341,2.05,5.767,4.874,5.767c1.562,0,2.943-0.719,3.7-1.9l0.079,1.648h2.093l-0.014-0.152
	C189.707,31.406,189.695,30.119,189.695,29.43z M184.5,30.777c-2.311,0-3.131-2.13-3.131-3.955c0-2.475,1.277-4.138,3.177-4.138
	c1.556,0,2.512,1.118,2.77,2.23c0.054,0.199,0.087,0.501,0.087,0.81v1.921c0,0.336-0.027,0.594-0.087,0.836
	C186.983,29.854,185.851,30.777,184.5,30.777z"/>
<path d="M202.433,20.827c-1.567,0-2.985,0.565-3.994,1.591c-1.07,1.089-1.635,2.619-1.635,4.427c0,3.436,2.24,5.835,5.446,5.835
	c1.473,0,2.842-0.512,3.854-1.441c1.176-1.08,1.798-2.662,1.798-4.578c0-1.699-0.522-3.155-1.51-4.213
	C205.401,21.388,204.032,20.827,202.433,20.827z M202.388,22.616c2.183,0,3.177,2.133,3.177,4.115c0,2.411-1.355,4.161-3.223,4.161
	c-1.868,0-3.223-1.731-3.223-4.115C199.119,24.705,200.13,22.616,202.388,22.616z"/>
<path d="M215.815,20.827c-1.756,0-2.966,0.894-3.59,1.83l-0.099-1.579h-2.066l0.011,0.15c0.064,0.852,0.091,1.745,0.091,2.986v8.214
	h2.292v-6.796c0-0.341,0.047-0.665,0.131-0.897c0.299-0.976,1.208-1.96,2.566-1.96c2.002,0,2.422,1.703,2.422,3.131v6.521h2.292
	v-6.75C219.866,21.061,216.491,20.827,215.815,20.827z"/>
<path d="M230.41,17.857l-2.246,0.601v2.621h-1.716v1.812h1.716v5.899c0,1.453,0.259,2.399,0.812,2.974
	c0.512,0.585,1.3,0.894,2.278,0.894c0.739,0,1.391-0.101,1.837-0.285l0.092-0.038l-0.108-1.781l-0.166,0.045
	c-0.221,0.06-0.597,0.132-1.13,0.132c-0.96,0-1.37-0.601-1.37-2.011v-5.83h2.882v-1.812h-2.882V17.857z"/>
<path d="M243.56,21.798c-0.969-0.876-2.13-0.971-2.584-0.971c-0.723,0-1.459,0.204-2.126,0.589c-0.507,0.282-0.95,0.676-1.279,1.134
	v-6.641h-2.292v16.52h2.292V25.61c0-0.373,0.021-0.654,0.127-0.907l0.004-0.01c0.318-0.954,1.235-1.917,2.567-1.917
	c2.108,0,2.422,1.976,2.422,3.154v6.499h2.292v-6.727C244.981,23.964,244.503,22.651,243.56,21.798z"/>
<path d="M256.263,22.734c-0.823-1.248-2.123-1.907-3.759-1.907c-3.139,0-5.332,2.512-5.332,6.11c0,1.694,0.513,3.125,1.483,4.139
	c0.989,1.035,2.407,1.581,4.101,1.581c1.813,0,3.034-0.38,3.74-0.699l0.105-0.047l-0.408-1.714l-0.152,0.065
	c-0.687,0.291-1.526,0.561-3.011,0.561c-2.205,0-3.562-1.329-3.653-3.564h7.758l0.025-0.218c0.025-0.21,0.059-0.498,0.059-0.86
	C257.218,25.58,257.125,24.041,256.263,22.734z M249.415,25.539c0.182-1.18,0.973-2.992,2.928-2.992c0.757,0,1.369,0.232,1.819,0.69
	c0.717,0.73,0.823,1.822,0.832,2.302H249.415z"/>
<path d="M105.651,41.794h-4.669l-9.571,28.169h4.225l2.874-8.703h9.45l2.956,8.703h4.347l-9.555-27.999L105.651,41.794z
	 M103.215,46.059c0.348,1.355,0.722,2.758,1.239,4.276l2.597,7.632h-7.634l2.599-7.678
	C102.416,49.026,102.802,47.666,103.215,46.059z"/>
<path d="M129.117,49.142c-2.947,0-5.327,1.188-6.924,3.445l-0.144-2.994h-3.743l0.011,0.261c0.086,1.987,0.164,3.978,0.164,6.475
	v21.761h4.072V67.734c1.3,1.69,3.472,2.681,5.948,2.681c2.498,0,4.79-0.972,6.453-2.737c1.851-1.964,2.829-4.795,2.829-8.187
	c0-2.947-0.876-5.602-2.466-7.474C133.742,50.163,131.54,49.142,129.117,49.142z M128.009,52.517c3.91,0,5.661,3.585,5.661,7.138
	c0,4.58-2.216,7.426-5.784,7.426c-2.459,0-4.537-1.62-5.174-4.032c-0.08-0.443-0.158-0.918-0.158-1.424v-3.407
	c0-0.48,0.127-1.007,0.238-1.415C123.442,54.28,125.587,52.517,128.009,52.517z"/>
<path d="M152.474,49.142c-2.947,0-5.327,1.188-6.924,3.445l-0.144-2.994h-3.743l0.011,0.261c0.086,1.987,0.164,3.978,0.164,6.475
	v21.761h4.072V67.734c1.3,1.69,3.472,2.681,5.948,2.681c2.498,0,4.79-0.972,6.453-2.737c1.851-1.964,2.829-4.795,2.829-8.187
	c0-2.947-0.876-5.602-2.466-7.474C157.1,50.163,154.898,49.142,152.474,49.142z M151.366,52.517c3.91,0,5.661,3.585,5.661,7.138
	c0,4.58-2.216,7.426-5.784,7.426c-2.459,0-4.537-1.62-5.174-4.032c-0.08-0.443-0.158-0.918-0.158-1.424v-3.407
	c0-0.48,0.127-1.007,0.238-1.415C146.799,54.28,148.944,52.517,151.366,52.517z"/>
<path d="M182.654,53.798c-4.043-1.565-5.341-2.805-5.341-5.103c0-1.939,1.535-3.896,4.963-3.896c2.299,0,4.061,0.698,5.134,1.283
	l0.262,0.143l1.147-3.393l-0.18-0.102c-0.914-0.518-2.941-1.387-6.24-1.387c-2.671,0-4.972,0.761-6.654,2.2
	c-1.641,1.405-2.546,3.38-2.546,5.563c0,3.702,2.375,6.269,7.468,8.074c3.683,1.417,5.053,2.844,5.053,5.267
	c0,2.757-2.122,4.47-5.538,4.47c-2.128,0-4.473-0.661-6.273-1.769l-0.277-0.171l-1.051,3.486l0.154,0.103
	c1.571,1.047,4.599,1.807,7.2,1.807c3.117,0,5.696-0.846,7.46-2.446c1.598-1.45,2.478-3.499,2.478-5.768
	c0-2.055-0.602-3.717-1.841-5.079C186.882,55.813,185.172,54.77,182.654,53.798z"/>
<path d="M198.865,43.812l-4.031,1.078v4.704h-3.079v3.251h3.079v10.587c0,2.604,0.464,4.301,1.462,5.342
	c0.919,1.047,2.331,1.6,4.084,1.6c1.325,0,2.496-0.182,3.297-0.511l0.166-0.068l-0.194-3.196l-0.297,0.081
	c-0.397,0.108-1.071,0.237-2.028,0.237c-1.723,0-2.459-1.079-2.459-3.608V52.845h5.172v-3.251h-5.172V43.812z"/>
<path d="M216.02,49.142c-2.812,0-5.357,1.014-7.167,2.856c-1.92,1.953-2.935,4.701-2.935,7.944c0,6.166,4.019,10.472,9.774,10.472
	c2.644,0,5.1-0.918,6.917-2.585c2.111-1.937,3.227-4.778,3.227-8.215c0-3.048-0.937-5.662-2.71-7.56
	C221.345,50.149,218.888,49.142,216.02,49.142z M215.856,67.204c-3.351,0-5.784-3.106-5.784-7.385c0-3.717,1.814-7.467,5.866-7.467
	c3.917,0,5.702,3.828,5.702,7.385C221.639,64.064,219.207,67.204,215.856,67.204z"/>
<path d="M238.926,49.142c-2.315,0-4.381,1.456-5.44,3.771l-0.105-3.319h-3.671l0.018,0.267c0.113,1.698,0.164,3.604,0.164,6.182
	v13.92h4.072V59.122c0-0.597,0.081-1.165,0.16-1.638c0.49-2.693,2.294-4.433,4.597-4.433c0.455,0,0.807,0.035,1.177,0.117
	l0.305,0.068V49.32l-0.19-0.047C239.637,49.179,239.332,49.142,238.926,49.142z"/>
<path d="M257.782,52.565c-1.476-2.239-3.809-3.422-6.746-3.422c-2.851,0-5.28,1.106-7.022,3.2c-1.642,1.973-2.547,4.73-2.547,7.765
	c0,3.039,0.92,5.608,2.661,7.429c1.775,1.857,4.32,2.838,7.36,2.838c3.253,0,5.446-0.682,6.712-1.254l0.189-0.085l-0.732-3.076
	l-0.273,0.116c-1.232,0.523-2.739,1.006-5.403,1.006c-3.957,0-6.392-2.385-6.556-6.395h13.923l0.025-0.223
	c0.006-0.052,0.012-0.109,0.02-0.169c0.044-0.377,0.105-0.894,0.105-1.542C259.497,57.674,259.33,54.911,257.782,52.565z
	 M250.749,52.23c1.359,0,2.458,0.416,3.264,1.238c1.287,1.311,1.476,3.27,1.493,4.131h-10.012
	C245.82,55.48,247.24,52.23,250.749,52.23z"/>
</svg>
