<?xml version="1.0" encoding="utf-8"?>
<!-- Generator: Adobe Illustrator 24.0.1, SVG Export Plug-In . SVG Version: 6.00 Build 0)  -->
<svg version="1.1" id="Layer_1" xmlns="http://www.w3.org/2000/svg" xmlns:xlink="http://www.w3.org/1999/xlink" x="0px" y="0px"
	 viewBox="0 0 280 94" style="enable-background:new 0 0 280 94;" xml:space="preserve">
<style type="text/css">
	.st0{fill:#E4E4E4;}
	.st1{fill:#0CD3FB;}
	.st2{fill:#00F276;}
	.st3{fill:#F63448;}
	.st4{fill:#FDC904;}
</style>
<path class="st0" d="M262.229,92.768H17.771c-8.672,0-15.701-7.03-15.701-15.701V16.934c0-8.672,7.03-15.701,15.701-15.701h244.459
	c8.672,0,15.701,7.03,15.701,15.701v60.133C277.931,85.738,270.901,92.768,262.229,92.768z"/>
<path class="st1" d="M46.019,46.892L19.721,72.678c-0.818-0.652-1.363-1.655-1.363-2.842V23.949c0-1.187,0.545-2.19,1.363-2.842
	L46.019,46.892z"/>
<path class="st2" d="M54.772,38.308l-8.753,8.584L19.721,21.107c1.097-0.879,2.683-1.119,4.081-0.331L54.772,38.308z"/>
<path class="st3" d="M54.772,55.476l-30.97,17.532c-1.398,0.788-2.985,0.548-4.081-0.331l26.298-25.785L54.772,55.476z"/>
<path class="st4" d="M64.336,50.065l-9.564,5.411l-8.753-8.584l8.753-8.584l9.564,5.411C66.801,45.114,66.801,48.67,64.336,50.065z"
	/>
<path d="M118.722,50.607c-2.334,0-4.446,0.842-5.949,2.37c-1.594,1.621-2.436,3.902-2.436,6.595c0,5.118,3.336,8.692,8.112,8.692
	c2.195,0,4.234-0.762,5.741-2.146c1.752-1.608,2.678-3.966,2.678-6.82c0-2.531-0.778-4.701-2.249-6.276
	C123.142,51.443,121.103,50.607,118.722,50.607z M118.654,53.238c3.273,0,4.763,3.195,4.763,6.163c0,3.611-2.032,6.232-4.832,6.232
	c-2.8,0-4.832-2.592-4.832-6.163C113.754,56.368,115.269,53.238,118.654,53.238z"/>
<path d="M137.471,50.607c-2.334,0-4.446,0.842-5.949,2.37c-1.594,1.621-2.436,3.902-2.436,6.595c0,5.118,3.336,8.692,8.112,8.692
	c2.195,0,4.234-0.762,5.741-2.146c1.752-1.608,2.678-3.966,2.678-6.82c0-2.531-0.778-4.701-2.249-6.276
	C141.891,51.443,139.852,50.607,137.471,50.607z M137.403,53.238c3.273,0,4.763,3.195,4.763,6.163c0,3.611-2.032,6.232-4.832,6.232
	s-4.832-2.592-4.832-6.163C132.503,56.368,134.018,53.238,137.403,53.238z"/>
<path d="M160.533,53.139c-0.658-0.998-2.145-2.532-5.065-2.532c-2,0-3.876,0.834-5.282,2.348c-1.538,1.657-2.351,3.945-2.351,6.617
	c0,2.272,0.72,4.356,2.027,5.869c1.325,1.534,3.171,2.379,5.197,2.379c2.164,0,4.008-0.88,5.139-2.432v1.321
	c0,4.614-2.795,5.583-5.139,5.583c-2.454,0-4.139-0.887-4.749-1.269l-0.204-0.128l-0.871,2.653l0.119,0.08
	c1.293,0.862,3.44,1.398,5.603,1.398c1.811,0,4.346-0.352,6.136-2.029c1.673-1.495,2.419-3.866,2.419-7.688v-9.596
	c0-1.983,0.064-3.275,0.136-4.531l0.011-0.199h-3.008L160.533,53.139z M155.947,65.155c-3.465,0-4.695-3.1-4.695-5.754
	c0-3.625,1.9-6.061,4.729-6.061c2.26,0,3.559,1.572,4.022,3.047c0.113,0.339,0.161,0.729,0.161,1.306v2.971
	c0,0.553-0.081,1.102-0.229,1.545C159.327,63.999,157.762,65.155,155.947,65.155z"/>
<rect x="168.12" y="43.265" width="3.383" height="24.624"/>
<path d="M182.925,50.607c-4.675,0-7.941,3.743-7.941,9.102c0,2.523,0.764,4.656,2.208,6.166c1.473,1.541,3.585,2.355,6.108,2.355
	c2.703,0,4.524-0.566,5.576-1.041l0.142-0.064l-0.6-2.52l-0.206,0.087c-1.027,0.436-2.283,0.839-4.503,0.839
	c-3.311,0-5.346-1.999-5.475-5.36h11.586l0.035-0.308c0.037-0.313,0.087-0.742,0.087-1.28c0-0.896-0.139-3.189-1.423-5.137
	C187.297,51.589,185.362,50.607,182.925,50.607z M182.686,53.136c1.136,0,2.055,0.349,2.73,1.036
	c1.086,1.106,1.237,2.763,1.248,3.47h-8.373C178.558,55.874,179.742,53.136,182.686,53.136z"/>
<path d="M218.155,46.283c-1.446-1.3-3.659-1.96-6.579-1.96c-2.027,0-3.956,0.15-5.734,0.446l-0.158,0.026v23.093h3.348v-9.174
	c0.685,0.137,1.46,0.158,2.202,0.158c3.059,0,5.607-0.919,7.17-2.584c1.214-1.249,1.829-2.948,1.829-5.049
	C220.233,49.203,219.495,47.443,218.155,46.283z M211.302,56.105c-0.948,0-1.693-0.065-2.27-0.198v-8.651
	c0.572-0.125,1.529-0.199,2.612-0.199c3.38,0,5.241,1.534,5.241,4.319C216.885,54.382,214.85,56.105,211.302,56.105z"/>
<rect x="223.579" y="43.265" width="3.383" height="24.624"/>
<path d="M243.627,63.739v-6.181c0-3.171-1.123-6.951-6.472-6.951c-2.051,0-4.067,0.546-5.533,1.499l-0.124,0.08l0.81,2.348
	l0.202-0.131c1.16-0.751,2.731-1.199,4.201-1.199c2.368,0,3.568,1.223,3.568,3.636v0.153c-3.878,0.007-6.78,0.859-8.399,2.47
	c-1.021,1.016-1.539,2.317-1.539,3.867c0,1.295,0.47,2.503,1.324,3.4c0.956,1.005,2.311,1.536,3.919,1.536
	c2.012,0,3.859-0.845,5.01-2.276l0.218,1.9h3.126l-0.04-0.222C243.715,66.667,243.627,65.382,243.627,63.739z M236.369,65.668
	c-1.279,0-2.646-0.704-2.646-2.68c0-0.849,0.279-1.553,0.83-2.092c0.981-0.961,2.828-1.447,5.496-1.447
	c0.098,0,0.198,0.001,0.298,0.002v2.683c0,0.267-0.057,0.585-0.161,0.895C239.771,64.246,238.522,65.668,236.369,65.668z"/>
<path d="M258.056,50.983l-3.322,9.826c-0.27,0.788-0.515,1.619-0.731,2.352c-0.061,0.208-0.121,0.41-0.179,0.605
	c-0.254-0.873-0.591-1.934-0.921-2.893l-3.666-9.89h-3.689l6.215,15.484c0.137,0.378,0.194,0.587,0.194,0.721
	c0,0.139-0.118,0.406-0.223,0.641c-0.566,1.274-1.49,2.498-2.477,3.279c-1.054,0.892-2.145,1.299-2.565,1.433l-0.176,0.056
	l0.852,2.867l0.166-0.03c0.451-0.082,2.056-0.468,3.778-1.99c1.968-1.705,3.411-4.335,5.722-10.423l4.606-12.038H258.056z"/>
<path d="M107.804,53.796h-3.063H94.464v3.474h10.277c-0.827,4.929-5.113,8.685-10.277,8.685c-5.756,0-10.422-4.666-10.422-10.422
	c0-5.756,4.666-10.422,10.422-10.422c2.435,0,4.676,0.835,6.449,2.236l2.469-2.469c-2.412-2.023-5.524-3.241-8.919-3.241
	c-7.675,0-13.896,6.221-13.896,13.896S86.789,69.43,94.464,69.43s13.896-6.221,13.896-13.896c0-0.588-0.036-1.167-0.107-1.737
	H107.804z"/>
<polygon points="101.21,27.098 107.284,27.098 107.284,25.429 101.21,25.429 101.21,20.491 107.632,20.491 107.632,18.799 
	99.193,18.799 99.193,34.424 107.979,34.424 107.979,32.732 101.21,32.732 "/>
<polygon points="109.184,20.514 113.937,20.514 113.937,34.424 115.977,34.424 115.977,20.514 120.753,20.514 120.753,18.799 
	109.184,18.799 "/>
<rect x="127.406" y="18.799" width="2.017" height="15.625"/>
<polygon points="131.161,20.514 135.914,20.514 135.914,34.424 137.954,34.424 137.954,20.514 142.73,20.514 142.73,18.799 
	131.161,18.799 "/>
<path d="M155.712,18.544c-4.173,0-7.256,3.246-7.256,8.207c0,4.729,2.898,7.928,7.024,7.928c3.987,0,7.256-2.851,7.256-8.23
	C162.736,21.813,159.977,18.544,155.712,18.544z M155.596,33.033c-3.176,0-4.984-2.991-4.984-6.329c0-3.431,1.669-6.514,5.008-6.514
	c3.361,0,4.984,3.246,4.984,6.352C160.603,30.089,158.795,33.033,155.596,33.033z"/>
<path d="M175.185,18.799v6.538c0,2.434,0.046,4.335,0.232,6.422l-0.046,0.023c-0.742-1.6-1.646-3.246-2.805-5.077l-5.007-7.905
	h-2.202v15.625h1.901v-6.677c0-2.597-0.046-4.474-0.162-6.445l0.07-0.023c0.788,1.692,1.831,3.477,2.921,5.216l4.961,7.929h2.04
	V18.799H175.185z"/>
<path d="M96.746,25.759h-1.819h-6.105v2.064h6.103c-0.491,2.927-3.036,5.159-6.103,5.159c-3.419,0-6.191-2.772-6.191-6.191
	s2.772-6.191,6.191-6.191c1.446,0,2.777,0.496,3.831,1.328l1.467-1.467c-1.433-1.202-3.281-1.925-5.297-1.925
	c-4.559,0-8.254,3.695-8.254,8.254s3.695,8.254,8.254,8.254c4.559,0,8.254-3.695,8.254-8.254c0-0.349-0.021-0.693-0.064-1.032
	H96.746z"/>
</svg>
