<svg width="57" height="57" viewBox="0 0 57 57" fill="none" xmlns="http://www.w3.org/2000/svg">
<path opacity="0.54" d="M27.5195 10.3895C27.9976 9.71194 29.0024 9.71194 29.4805 10.3895L50.9807 40.8581C51.5416 41.653 50.9731 42.75 50.0002 42.75H6.99977C6.02687 42.75 5.45837 41.653 6.0193 40.8581L27.5195 10.3895Z" fill="#0F55DC"/>
<path d="M22.1113 34.9126L25.6738 38.4751L35.1738 28.9751" stroke="#0C111D" stroke-width="3" stroke-linecap="round" stroke-linejoin="round"/>
<path d="M23.75 14.25H33.25C38 14.25 38 11.875 38 9.5C38 4.75 35.625 4.75 33.25 4.75H23.75C21.375 4.75 19 4.75 19 9.5C19 14.25 21.375 14.25 23.75 14.25Z" stroke="#0C111D" stroke-width="3" stroke-miterlimit="10" stroke-linecap="round" stroke-linejoin="round"/>
<path d="M38 9.54761C45.9087 9.97511 49.875 12.8964 49.875 23.7501V38.0001C49.875 47.5001 47.5 52.2501 35.625 52.2501H21.375C9.5 52.2501 7.125 47.5001 7.125 38.0001V23.7501C7.125 12.9201 11.0913 9.97511 19 9.54761" stroke="#0C111D" stroke-width="3" stroke-miterlimit="10" stroke-linecap="round" stroke-linejoin="round"/>
</svg>
