<svg width="55" height="52" viewBox="0 0 55 52" fill="none" xmlns="http://www.w3.org/2000/svg">
<path opacity="0.54" d="M26.5195 7.38945C26.9976 6.71194 28.0024 6.71194 28.4805 7.38945L49.9807 37.8581C50.5416 38.653 49.9731 39.75 49.0002 39.75H5.99977C5.02687 39.75 4.45837 38.653 5.0193 37.8581L26.5195 7.38945Z" fill="#FF8139"/>
<path d="M39.7986 35.7998V42.25C39.7973 43.1044 39.486 43.9299 38.9214 44.5757C38.3567 45.2216 37.5765 45.6448 36.7231 45.7681V48.4453C36.7231 49.3881 36.3451 50.2922 35.6722 50.9589C34.9993 51.6255 34.0867 52 33.135 52H22.8833C21.9317 52 21.0191 51.6255 20.3462 50.9589C19.6733 50.2922 19.2952 49.3881 19.2952 48.4453V45.7681C18.4418 45.6448 17.6616 45.2216 17.097 44.5757C16.5324 43.9299 16.221 43.1044 16.2197 42.25V35.7998C12.8081 33.3386 10.2706 29.8704 8.97099 25.8926C7.67141 21.9147 7.67647 17.6313 8.98546 13.6564C10.2944 9.68158 12.8401 6.21936 16.2576 3.76608C19.6751 1.31281 23.7888 -0.00554276 28.0092 1.90735e-05C39.0318 1.90735e-05 48 8.8847 48 19.8047C48.0022 22.9225 47.2604 25.9967 45.8351 28.7764C44.4098 31.5561 42.3414 33.9627 39.7986 35.7998ZM22.8833 48.9531H33.135C33.271 48.9531 33.4014 48.8996 33.4975 48.8044C33.5936 48.7092 33.6476 48.58 33.6476 48.4453V45.8047H22.3707V48.4453C22.3707 48.58 22.4248 48.7092 22.5209 48.8044C22.617 48.8996 22.7474 48.9531 22.8833 48.9531ZM28.0092 3.04689C18.7827 3.04689 11.1902 10.4853 11.0939 19.628C11.0602 22.4153 11.7303 25.1668 13.0432 27.6323C14.3561 30.0978 16.2702 32.1991 18.6115 33.7452C18.821 33.8838 18.993 34.0714 19.1122 34.2913C19.2315 34.5113 19.2943 34.7569 19.2952 35.0066V42.25C19.2952 42.3847 19.3492 42.5138 19.4454 42.6091C19.5415 42.7043 19.6719 42.7578 19.8078 42.7578H23.3959V15.793C23.3959 15.3889 23.2339 15.0014 22.9455 14.7158C22.6571 14.43 22.266 14.2695 21.8582 14.2695C21.4503 14.2695 21.0592 14.43 20.7708 14.7158C20.4824 15.0014 20.3204 15.3889 20.3204 15.793V18.8399C20.3204 19.2439 20.1584 19.6314 19.87 19.9171C19.5816 20.2028 19.1905 20.3633 18.7827 20.3633C18.3748 20.3633 17.9837 20.2028 17.6953 19.9171C17.4069 19.6314 17.2449 19.2439 17.2449 18.8399V15.793C17.2449 14.5809 17.7309 13.4184 18.5961 12.5613C19.4612 11.7042 20.6347 11.2227 21.8582 11.2227C23.0817 11.2227 24.2551 11.7042 25.1202 12.5613C25.9854 13.4184 26.4714 14.5809 26.4714 15.793V42.7578H29.5469V15.793C29.5469 14.5809 30.033 13.4184 30.8981 12.5613C31.7633 11.7042 32.9367 11.2227 34.1602 11.2227C35.3837 11.2227 36.5571 11.7042 37.4223 12.5613C38.2874 13.4184 38.7735 14.5809 38.7735 15.793V18.8399C38.7735 19.2439 38.6115 19.6314 38.3231 19.9171C38.0347 20.2028 37.6436 20.3633 37.2357 20.3633C36.8279 20.3633 36.4367 20.2028 36.1484 19.9171C35.86 19.6314 35.698 19.2439 35.698 18.8399V15.793C35.698 15.3889 35.5359 15.0014 35.2476 14.7158C34.9592 14.43 34.568 14.2695 34.1602 14.2695C33.7524 14.2695 33.3612 14.43 33.0728 14.7158C32.7845 15.0014 32.6224 15.3889 32.6224 15.793V42.7578H36.2105C36.3465 42.7578 36.4769 42.7043 36.573 42.6091C36.6691 42.5138 36.7231 42.3847 36.7231 42.25V35.0066C36.7231 34.7561 36.7854 34.5096 36.9045 34.2886C37.0236 34.0677 37.1958 33.8793 37.4059 33.7401C39.7201 32.2099 41.6173 30.1373 42.9289 27.7063C44.2405 25.2753 44.9259 22.5612 44.9245 19.8047C44.9245 10.5625 37.3382 3.04689 28.0092 3.04689Z" fill="#0C111D"/>
</svg>
