<svg width="16" height="16" viewBox="0 0 16 16" fill="none" xmlns="http://www.w3.org/2000/svg">
<path d="M9.42015 7.55986C9.68015 6.46652 8.72682 5.51319 7.63348 5.77319C7.12015 5.89986 6.70015 6.31986 6.57348 6.83319C6.31348 7.92652 7.26682 8.87986 8.36015 8.61986C8.88015 8.49319 9.30015 8.07319 9.42015 7.55986Z" fill="url(#paint0_linear_1612_360)"/>
<path d="M4.01298 11.9797C3.89298 11.9797 3.76632 11.933 3.67298 11.8463C2.37965 10.6463 1.63965 8.95301 1.63965 7.19301C1.63965 3.68634 4.49298 0.833008 7.99965 0.833008C11.5063 0.833008 14.3597 3.68634 14.3597 7.19301C14.3597 8.96634 13.6463 10.6063 12.353 11.8263C12.153 12.013 11.833 12.0063 11.6463 11.8063C11.4596 11.6063 11.4663 11.2863 11.6663 11.0997C12.7596 10.073 13.3597 8.69301 13.3597 7.19967C13.3597 4.24634 10.953 1.83967 7.99965 1.83967C5.04632 1.83967 2.63965 4.24634 2.63965 7.19967C2.63965 8.70634 3.24632 10.093 4.35298 11.1197C4.55298 11.3063 4.56632 11.6263 4.37965 11.8263C4.27965 11.9263 4.14632 11.9797 4.01298 11.9797Z" fill="url(#paint1_linear_1612_360)"/>
<path d="M10.6667 10.2C10.5467 10.2 10.42 10.1534 10.3267 10.0667C10.1267 9.88004 10.1133 9.56004 10.3067 9.36004C10.86 8.77337 11.1667 8.00004 11.1667 7.20004C11.1667 5.45337 9.74668 4.04004 8.00668 4.04004C6.26668 4.04004 4.84668 5.46004 4.84668 7.20004C4.84668 8.00671 5.15335 8.77337 5.70668 9.36004C5.89335 9.56004 5.88668 9.88004 5.68668 10.0667C5.48668 10.26 5.16668 10.2467 4.98001 10.0467C4.25335 9.27337 3.84668 8.26004 3.84668 7.20004C3.84668 4.90671 5.71335 3.04004 8.00668 3.04004C10.3 3.04004 12.1667 4.90671 12.1667 7.20004C12.1667 8.26004 11.7667 9.27337 11.0333 10.0467C10.9333 10.1467 10.8 10.2 10.6667 10.2Z" fill="url(#paint2_linear_1612_360)"/>
<path d="M6.86692 11.1067L5.90692 12.3C5.14692 13.2533 5.82692 14.6667 7.04025 14.6667H8.95358C10.1736 14.6667 10.8536 13.2533 10.0869 12.3067L9.12692 11.1133C8.55358 10.38 7.44692 10.38 6.86692 11.1067Z" fill="url(#paint3_linear_1612_360)"/>
<defs>
<linearGradient id="paint0_linear_1612_360" x1="6.54075" y1="7.19643" x2="9.4639" y2="7.1879" gradientUnits="userSpaceOnUse">
<stop stop-color="#431DAB"/>
<stop offset="1" stop-color="#AE6DFE"/>
</linearGradient>
<linearGradient id="paint1_linear_1612_360" x1="1.68508" y1="6.40598" x2="14.3619" y2="6.36376" gradientUnits="userSpaceOnUse">
<stop stop-color="#431DAB"/>
<stop offset="1" stop-color="#AE6DFE"/>
</linearGradient>
<linearGradient id="paint2_linear_1612_360" x1="3.87639" y1="6.62202" x2="12.1682" y2="6.59392" gradientUnits="userSpaceOnUse">
<stop stop-color="#431DAB"/>
<stop offset="1" stop-color="#AE6DFE"/>
</linearGradient>
<linearGradient id="paint3_linear_1612_360" x1="5.60414" y1="12.6145" x2="10.4119" y2="12.598" gradientUnits="userSpaceOnUse">
<stop stop-color="#431DAB"/>
<stop offset="1" stop-color="#AE6DFE"/>
</linearGradient>
</defs>
</svg>
