<svg width="28" height="28" viewBox="0 0 28 28" fill="none" xmlns="http://www.w3.org/2000/svg">
<path d="M16.485 13.2299C16.94 11.3166 15.2717 9.6482 13.3583 10.1032C12.46 10.3249 11.725 11.0599 11.5034 11.9582C11.0484 13.8716 12.7167 15.5399 14.63 15.0849C15.54 14.8632 16.275 14.1283 16.485 13.2299Z" stroke="white" stroke-width="1.17" stroke-linecap="round" stroke-linejoin="round"/>
<path d="M21.0118 20.0549C23.0068 18.1883 24.2551 15.5399 24.2551 12.5882C24.2551 6.91823 19.6584 2.33325 14.0001 2.33325C8.34178 2.33325 3.74512 6.92989 3.74512 12.5882C3.74512 15.5516 5.00511 18.2232 7.02345 20.0899" stroke="white" stroke-width="1.17" stroke-linecap="round" stroke-linejoin="round"/>
<path d="M9.33307 16.975C8.25973 15.8317 7.59473 14.2917 7.59473 12.5883C7.59473 9.05334 10.4647 6.18335 13.9997 6.18335C17.5347 6.18335 20.4047 9.05334 20.4047 12.5883C20.4047 14.2917 19.7397 15.82 18.6664 16.975" stroke="white" stroke-width="1.17" stroke-linecap="round" stroke-linejoin="round"/>
<path d="M12.0165 19.4367L10.3365 21.525C9.00652 23.1934 10.1848 25.655 12.3198 25.655H15.6682C17.8032 25.655 18.9932 23.1817 17.6515 21.525L15.9715 19.4367C14.9682 18.165 13.0315 18.165 12.0165 19.4367Z" stroke="white" stroke-width="1.17" stroke-linecap="round" stroke-linejoin="round"/>
</svg>
