<svg width="18" height="18" viewBox="0 0 18 18" fill="none" xmlns="http://www.w3.org/2000/svg">
<path d="M16.4776 13.7477C16.4776 14.0177 16.4176 14.2952 16.2901 14.5652C16.1626 14.8352 15.9976 15.0902 15.7801 15.3302C15.4126 15.7352 15.0076 16.0277 14.5501 16.2152C14.1001 16.4027 13.6126 16.5002 13.0876 16.5002C12.3226 16.5002 11.5051 16.3202 10.6426 15.9527C9.78006 15.5852 8.91756 15.0902 8.06256 14.4677C7.20006 13.8377 6.38256 13.1402 5.60256 12.3677C4.83006 11.5877 4.13256 10.7702 3.51006 9.91524C2.89506 9.06024 2.40006 8.20524 2.04006 7.35774C1.68006 6.50274 1.50006 5.68524 1.50006 4.90524C1.50006 4.39524 1.59006 3.90774 1.77006 3.45774C1.95006 3.00024 2.23506 2.58024 2.63256 2.20524C3.11256 1.73274 3.63756 1.50024 4.19256 1.50024C4.40256 1.50024 4.61256 1.54524 4.80006 1.63524C4.99506 1.72524 5.16756 1.86024 5.30256 2.05524L7.04256 4.50774C7.17756 4.69524 7.27506 4.86774 7.34256 5.03274C7.41006 5.19024 7.44756 5.34774 7.44756 5.49024C7.44756 5.67024 7.39506 5.85024 7.29006 6.02274C7.19256 6.19524 7.05006 6.37524 6.87006 6.55524L6.30006 7.14774C6.21756 7.23024 6.18006 7.32774 6.18006 7.44774C6.18006 7.50774 6.18756 7.56024 6.20256 7.62024C6.22506 7.68024 6.24756 7.72524 6.26256 7.77024C6.39756 8.01774 6.63006 8.34024 6.96006 8.73024C7.29756 9.12024 7.65756 9.51774 8.04756 9.91524C8.45256 10.3127 8.84256 10.6802 9.24006 11.0177C9.63006 11.3477 9.95256 11.5727 10.2076 11.7077C10.2451 11.7227 10.2901 11.7452 10.3426 11.7677C10.4026 11.7902 10.4626 11.7977 10.5301 11.7977C10.6576 11.7977 10.7551 11.7527 10.8376 11.6702L11.4076 11.1077C11.5951 10.9202 11.7751 10.7777 11.9476 10.6877C12.1201 10.5827 12.2926 10.5302 12.4801 10.5302C12.6226 10.5302 12.7726 10.5602 12.9376 10.6277C13.1026 10.6952 13.2751 10.7927 13.4626 10.9202L15.9451 12.6827C16.1401 12.8177 16.2751 12.9752 16.3576 13.1627C16.4326 13.3502 16.4776 13.5377 16.4776 13.7477Z" stroke="#111112" stroke-width="1.5" stroke-miterlimit="10"/>
<path d="M13.875 6.75049C13.875 6.30049 13.5225 5.61049 12.9975 5.04799C12.5175 4.53049 11.88 4.12549 11.25 4.12549" stroke="#111112" stroke-width="1.5" stroke-linecap="round" stroke-linejoin="round"/>
<path d="M16.5001 6.75024C16.5001 3.84774 14.1526 1.50024 11.2501 1.50024" stroke="#111112" stroke-width="1.5" stroke-linecap="round" stroke-linejoin="round"/>
</svg>
