<svg width="21" height="20" viewBox="0 0 21 20" fill="none" xmlns="http://www.w3.org/2000/svg">
<path fill-rule="evenodd" clip-rule="evenodd" d="M4.66667 10.9695C4.50311 10.9126 4.34891 10.8508 4.20682 10.7836C3.98482 10.6787 3.72494 10.5296 3.50326 10.3129C3.27951 10.0942 3 9.70787 3 9.16699C3 8.62611 3.27951 8.23983 3.50326 8.02113C3.72494 7.80447 3.98482 7.65537 4.20682 7.5504C4.65715 7.33745 5.22897 7.17867 5.83544 7.05738C7.06898 6.81067 8.71748 6.66699 10.5 6.66699C12.2825 6.66699 13.931 6.81067 15.1646 7.05738C15.771 7.17867 16.3429 7.33745 16.7932 7.5504C17.0152 7.65537 17.2751 7.80447 17.4967 8.02113C17.7205 8.23983 18 8.62611 18 9.16699C18 9.70787 17.7205 10.0942 17.4967 10.3129C17.2751 10.5296 17.0152 10.6787 16.7932 10.7836C16.6511 10.8508 16.4969 10.9126 16.3333 10.9696V15.8337C16.3333 16.3459 16.0432 16.7509 15.7041 17.0395C15.3626 17.3302 14.9052 17.5638 14.3945 17.7476C13.3679 18.1172 11.9909 18.3337 10.5 18.3337C9.00906 18.3337 7.63206 18.1172 6.60545 17.7476C6.09481 17.5638 5.63742 17.3302 5.29587 17.0395C4.95682 16.7509 4.66667 16.3459 4.66667 15.8337V10.9695ZM15.7768 9.83714L15.7795 9.83628C16.3941 9.64278 16.75 9.4132 16.75 9.16699C16.75 8.92078 16.3941 8.69119 15.7795 8.49769L15.7768 8.49684C14.6678 8.14825 12.7189 7.91699 10.5 7.91699C8.28108 7.91699 6.33224 8.14825 5.22318 8.49684L5.22046 8.49769C4.60591 8.69119 4.25 8.92078 4.25 9.16699C4.25 9.4132 4.60591 9.64278 5.22046 9.83628L5.22318 9.83714C6.33224 10.1858 8.28108 10.417 10.5 10.417C12.7189 10.417 14.6678 10.1858 15.7768 9.83714Z" fill="#0F55DC"/>
<path d="M11.794 1.57896C11.9475 1.27186 12.3858 1.27186 12.5393 1.57896C12.9524 2.40513 13.0951 2.54784 13.9213 2.96093C14.2284 3.11448 14.2284 3.55273 13.9213 3.70628C13.0951 4.11937 12.9524 4.26208 12.5393 5.08825C12.3858 5.39535 11.9475 5.39535 11.794 5.08825C11.3809 4.26208 11.2382 4.11937 10.412 3.70628C10.1049 3.55273 10.1049 3.11448 10.412 2.96093C11.2382 2.54784 11.3809 2.40513 11.794 1.57896Z" fill="#0F55DC"/>
<path d="M7.6271 3.24547C7.78065 2.93836 8.21891 2.93836 8.37246 3.24547C8.51769 3.53593 8.63063 3.64887 8.92109 3.7941C9.22819 3.94765 9.22819 4.3859 8.92109 4.53946C8.63063 4.68469 8.51769 4.79763 8.37246 5.08809C8.21891 5.39519 7.78065 5.39519 7.6271 5.08809C7.48187 4.79763 7.36893 4.68469 7.07847 4.53946C6.77137 4.3859 6.77137 3.94765 7.07847 3.7941C7.36893 3.64887 7.48187 3.53593 7.6271 3.24547Z" fill="#0F55DC"/>
</svg>
