<svg width="87" height="87" viewBox="0 0 87 87" fill="none" xmlns="http://www.w3.org/2000/svg">
<circle cx="43.6361" cy="43.6361" r="43.3636" fill="#BB33DF"/>
<g clip-path="url(#clip0_2938_1288)">
<path d="M60.2779 50.6213C58.1834 50.6213 56.4139 52.0336 55.8681 53.9556H51.4422V49.0746H55.9612C60.8694 49.0746 64.8625 45.0815 64.8625 40.1732C64.8625 36.2379 62.2525 32.7808 58.5471 31.6548C57.4271 27.1699 53.3786 23.9533 48.6899 23.9533C46.8723 23.9533 45.1312 24.422 43.5946 25.3175C41.9672 23.8292 39.8334 22.9932 37.5913 22.9932C32.7823 22.9932 28.8517 26.8268 28.6948 31.5983C24.8887 32.6622 22.1841 36.147 22.1841 40.1732C22.1841 45.0815 26.1772 49.0746 31.0855 49.0746H35.6045V53.9556H31.1786C30.6328 52.0336 28.8632 50.6213 26.7687 50.6213C24.2407 50.6213 22.1841 52.6779 22.1841 55.2059C22.1841 57.7338 24.2407 59.7905 26.7687 59.7905C28.8632 59.7905 30.6328 58.3782 31.1786 56.4562H36.8548C37.5453 56.4562 38.1051 55.8964 38.1051 55.2059V49.0746H42.273V56.631C40.351 57.1767 38.9387 58.9463 38.9387 61.0408C38.9387 63.5688 40.9954 65.6254 43.5233 65.6254C46.0513 65.6254 48.1079 63.5688 48.1079 61.0408C48.1079 58.9463 46.6956 57.1768 44.7737 56.631V49.0746H48.9415V55.2059C48.9415 55.8964 49.5013 56.4562 50.1918 56.4562H55.8681C56.4138 58.3782 58.1834 59.7905 60.2779 59.7905C62.8059 59.7905 64.8625 57.7338 64.8625 55.2059C64.8625 52.6779 62.8059 50.6213 60.2779 50.6213ZM26.7687 57.2898C25.6196 57.2898 24.6848 56.355 24.6848 55.2059C24.6848 54.0568 25.6196 53.122 26.7687 53.122C27.9178 53.122 28.8526 54.0568 28.8526 55.2059C28.8526 56.355 27.9178 57.2898 26.7687 57.2898ZM45.6072 61.0408C45.6072 62.1899 44.6724 63.1248 43.5233 63.1248C42.3742 63.1248 41.4394 62.1899 41.4394 61.0408C41.4394 59.8918 42.3742 58.9569 43.5233 58.9569C44.6724 58.9569 45.6072 59.8918 45.6072 61.0408ZM31.0855 46.5739C27.5562 46.5739 24.6848 43.7026 24.6848 40.1732C24.6848 37.0188 27.036 34.2961 30.1538 33.8402C30.8117 33.744 31.2792 33.1496 31.2178 32.4876C31.1997 32.2923 31.1906 32.0928 31.1906 31.8945C31.1906 28.3652 34.0619 25.4939 37.5913 25.4939C39.4743 25.4939 41.25 26.3125 42.463 27.7397C42.8889 28.2408 43.63 28.3263 44.1589 27.9355C45.4703 26.9663 47.037 26.454 48.6898 26.454C52.4932 26.454 55.6562 29.2446 56.2474 32.8749C56.331 33.3882 56.7237 33.7962 57.2334 33.8993C60.205 34.5009 62.3618 37.1394 62.3618 40.1732C62.3618 43.7026 59.4904 46.5739 55.9611 46.5739H31.0855ZM60.2779 57.2898C59.1289 57.2898 58.194 56.355 58.194 55.2059C58.194 54.0568 59.1289 53.122 60.2779 53.122C61.427 53.122 62.3619 54.0568 62.3619 55.2059C62.3619 56.355 61.427 57.2898 60.2779 57.2898Z" fill="white"/>
</g>
<defs>
<clipPath id="clip0_2938_1288">
<rect width="42.6785" height="42.6785" fill="white" transform="translate(22.1841 22.9702)"/>
</clipPath>
</defs>
</svg>
