<svg width="94" height="94" viewBox="0 0 94 94" fill="none" xmlns="http://www.w3.org/2000/svg">
<circle cx="46.6364" cy="46.6364" r="46.6364" fill="#00B59F"/>
<g clip-path="url(#clip0_2938_1294)">
<path d="M47.9816 48.3071L47.9811 48.3084L47.9798 48.3114L47.9717 48.3306C47.9643 48.3479 47.9531 48.3741 47.9379 48.4085C47.9074 48.4773 47.8611 48.5792 47.7985 48.7094C47.6733 48.97 47.4829 49.3437 47.2237 49.7928C46.705 50.6916 45.9125 51.8897 44.8179 53.0871C42.629 55.4813 39.2439 57.861 34.4244 57.861C28.6657 57.861 23.9941 53.2128 23.9941 47.4886C23.9941 41.7644 28.6657 37.1162 34.4244 37.1162C37.246 37.1162 39.5777 37.9247 41.4753 39.0738C42.5172 39.7049 42.8471 41.0605 42.2133 42.0957C41.5756 43.1352 40.214 43.4646 39.168 42.8298L39.1676 42.8296C37.8937 42.06 36.3214 41.5189 34.4244 41.5189C31.1131 41.5189 28.4235 44.192 28.4235 47.4886C28.4235 50.7853 31.1131 53.4584 34.4244 53.4584C37.8222 53.4584 40.1887 51.7508 41.6966 50.0589C42.4503 49.2132 42.9927 48.3683 43.3468 47.7349C43.524 47.418 43.6544 47.1533 43.7409 46.9669C43.7841 46.8737 43.8164 46.8001 43.8381 46.7492C43.849 46.7238 43.8571 46.704 43.8627 46.6904L43.8691 46.6746L43.8704 46.6713L43.8705 46.6712L43.8709 46.6703L43.8709 46.6702L43.8714 46.6689L43.8727 46.6658L43.8808 46.6466C43.8881 46.6293 43.8994 46.6032 43.9146 46.5688C43.945 46.4999 43.9913 46.398 44.0539 46.2678C44.1792 46.0073 44.3696 45.6336 44.6288 45.1844C45.1474 44.2856 45.9399 43.0875 47.0346 41.8902C49.2235 39.4959 52.6085 37.1162 57.4281 37.1162C63.1868 37.1162 67.8583 41.7644 67.8583 47.4886C67.8583 53.2128 63.1868 57.861 57.4281 57.861C54.6064 57.861 52.2748 57.0525 50.3771 55.9034C49.3353 55.2723 49.0054 53.9167 49.6392 52.8815C50.2769 51.8421 51.6385 51.5126 52.6845 52.1474L52.6849 52.1477C53.9587 52.9172 55.5311 53.4584 57.4281 53.4584C60.7394 53.4584 63.429 50.7853 63.429 47.4886C63.429 44.192 60.7394 41.5189 57.4281 41.5189C54.0302 41.5189 51.6638 43.2264 50.1559 44.9184C49.4022 45.7641 48.8598 46.6089 48.5057 47.2423C48.3285 47.5593 48.1981 47.824 48.1116 48.0103C48.0683 48.1035 48.036 48.1772 48.0144 48.228C48.0035 48.2535 47.9953 48.2732 47.9897 48.2868L47.9833 48.3027L47.9821 48.3059L47.982 48.306L47.9816 48.307L47.9816 48.3071Z" fill="white" stroke="#00B59F" stroke-width="0.5"/>
</g>
<defs>
<clipPath id="clip0_2938_1294">
<rect width="45.8995" height="45.8995" fill="white" transform="translate(23.5654 24.4106)"/>
</clipPath>
</defs>
</svg>
