<svg width="57" height="57" viewBox="0 0 57 57" fill="none" xmlns="http://www.w3.org/2000/svg">
<path fill-rule="evenodd" clip-rule="evenodd" d="M21.7881 20.0881H36.0003C36.3699 20.0881 36.6683 20.3876 36.6683 20.7561C36.6683 21.1257 36.3699 21.424 36.0003 21.424H21.7881C21.4196 21.424 21.1202 21.1246 21.1202 20.7561C21.1202 20.3865 21.4196 20.0881 21.7881 20.0881ZM17.4152 17.198V15.8621H11.5838C11.2153 15.8621 10.9158 16.1616 10.9158 16.5301V26.9092L9.42181 25.4152C9.1613 25.1546 8.73714 25.1546 8.47663 25.4152C8.21612 25.6757 8.21612 26.0998 8.47663 26.3592L11.1118 28.9944C11.242 29.1246 11.4135 29.1903 11.5838 29.1903C11.7552 29.1903 11.9256 29.1257 12.0558 28.9944L14.691 26.3592C14.9515 26.0987 14.9515 25.6757 14.691 25.4152C14.4305 25.1546 14.0074 25.1546 13.7469 25.4152L12.2518 26.9092V17.1969H17.4152V17.198ZM40.3733 17.198H45.5366V26.9103L44.0415 25.4163C43.781 25.1558 43.358 25.1558 43.0963 25.4163C42.8358 25.6768 42.8358 26.1009 43.0963 26.3603L45.7304 28.9955C45.8617 29.1257 46.0321 29.1914 46.2035 29.1914C46.3738 29.1914 46.5453 29.1268 46.6755 28.9955L49.3096 26.3603C49.5712 26.0998 49.5712 25.6768 49.3096 25.4163C49.049 25.1558 48.626 25.1558 48.3655 25.4163L46.8715 26.9103V16.5312C46.8715 16.1616 46.572 15.8632 46.2035 15.8632H40.3721V17.198H40.3733ZM19.7408 6.50273H21.6289V4.61461L19.7408 6.50273ZM21.7881 24.3141H35.9992C36.3688 24.3141 36.6671 24.6136 36.6671 24.9821C36.6671 25.3517 36.3688 25.6501 35.9992 25.6501H21.7881C21.4185 25.6501 21.1202 25.3506 21.1202 24.9821C21.1202 24.6125 21.4196 24.3141 21.7881 24.3141ZM38.9928 29.3896V3.66943H22.9649V7.1707C22.9649 7.54031 22.6654 7.83867 22.2969 7.83867H18.7956V29.3896H38.9928ZM21.1202 16.5301C21.1202 16.1604 21.4196 15.8621 21.7881 15.8621H35.9992C36.3688 15.8621 36.6671 16.1616 36.6671 16.5301C36.6671 16.8986 36.3677 17.198 35.9992 17.198H21.7881C21.4196 17.198 21.1202 16.8986 21.1202 16.5301ZM21.7881 12.972C21.4196 12.972 21.1202 12.6725 21.1202 12.304C21.1202 11.9355 21.4196 11.6361 21.7881 11.6361H36.0003C36.3699 11.6361 36.6683 11.9355 36.6683 12.304C36.6683 12.6737 36.3699 12.972 36.0003 12.972H21.7881ZM24.8241 8.07803C24.8241 7.70842 25.1235 7.41006 25.492 7.41006H35.9992C36.3688 7.41006 36.6671 7.70953 36.6671 8.07803C36.6671 8.44652 36.3688 8.746 35.9992 8.746H25.492C25.1235 8.746 24.8241 8.44652 24.8241 8.07803Z" fill="#00B59F"/>
<path d="M17.2124 38.9026C15.715 39.3591 13.7156 39.6096 11.5847 39.6096C9.45281 39.6096 7.45447 39.358 5.95711 38.9026C4.36957 38.4195 4.01221 37.9096 4.01221 37.7693C4.01221 37.6279 4.36957 37.1192 5.95711 36.636C7.45447 36.1796 9.45393 35.9291 11.5847 35.9291C13.7156 35.9291 15.7139 36.1796 17.2124 36.636C18.7999 37.1203 19.1573 37.6291 19.1573 37.7693V37.7704C19.1562 37.9107 18.7977 38.4195 17.2124 38.9026Z" fill="#99E1D9"/>
<path d="M4.01221 42.7858C4.01221 43.3369 6.58834 44.626 11.5847 44.626C16.5812 44.626 19.1573 43.3357 19.1573 42.7858V39.5506C17.4751 40.5002 14.457 40.9455 11.5847 40.9455C8.71248 40.9455 5.69438 40.5002 4.01221 39.5506V42.7858Z" fill="#99E1D9"/>
<path d="M19.1573 47.8011C19.1573 48.3522 16.5812 49.6414 11.5847 49.6414C6.58834 49.6414 4.01109 48.3522 4.01221 47.8011V44.567C5.69438 45.5155 8.71248 45.9609 11.5847 45.9609C14.457 45.9609 17.4751 45.5167 19.1573 44.567V47.8011Z" fill="#99E1D9"/>
<path d="M11.5847 54.6578C16.5812 54.6578 19.1573 53.3675 19.1573 52.8176V49.5835C17.4751 50.532 14.457 50.9773 11.5847 50.9773C8.71248 50.9773 5.69438 50.532 4.01221 49.5835V52.8176C4.01221 53.3675 6.58834 54.6578 11.5847 54.6578Z" fill="#99E1D9"/>
<path d="M38.6297 49.5835C40.313 50.532 43.3311 50.9773 46.2033 50.9773C49.0767 50.9773 52.0948 50.532 53.7759 49.5835V52.8176C53.7759 53.3675 51.1997 54.6578 46.2033 54.6578C41.2058 54.6578 38.6297 53.3675 38.6297 52.8176V49.5835Z" fill="#99E1D9"/>
<path d="M53.7759 44.567C52.0937 45.5155 49.0756 45.9609 46.2033 45.9609C43.3311 45.9609 40.313 45.5155 38.6297 44.567V47.8011C38.6297 48.3522 41.2069 49.6414 46.2033 49.6414C51.1997 49.6414 53.7759 48.3522 53.7759 47.8011V44.567Z" fill="#99E1D9"/>
<path d="M38.6297 39.5506C40.3119 40.5002 43.3311 40.9455 46.2033 40.9455C49.0767 40.9455 52.0948 40.5002 53.7759 39.5506V42.7858C53.7759 43.3369 51.1997 44.626 46.2033 44.626C41.2058 44.626 38.6297 43.3357 38.6297 42.7858V39.5506Z" fill="#99E1D9"/>
<path d="M51.831 36.636C50.3325 36.1796 48.3342 35.9291 46.2033 35.9291C44.0725 35.9291 42.0742 36.1807 40.5746 36.636C38.987 37.1203 38.6297 37.6291 38.6297 37.7693C38.6297 37.9096 38.987 38.4195 40.5746 38.9026C42.0731 39.3591 44.0714 39.6096 46.2033 39.6096C48.3342 39.6096 50.3325 39.3591 51.831 38.9026C53.4185 38.4195 53.7759 37.9096 53.7759 37.7693C53.7759 37.6279 53.4185 37.1192 51.831 36.636Z" fill="#99E1D9"/>
</svg>
