<svg width="49" height="48" viewBox="0 0 49 48" fill="none" xmlns="http://www.w3.org/2000/svg">
<g clip-path="url(#clip0_2938_1127)">
<path d="M14.8989 39.6701L17.1293 37.0381V32.1066L14.8989 34.7377V39.6701Z" fill="#FFC399"/>
<path d="M22.2305 44.7197L23.1378 44.326C23.2509 44.277 23.3731 44.2524 23.4963 44.2539C23.6195 44.2554 23.741 44.2829 23.8528 44.3346C23.9647 44.3864 24.0643 44.4611 24.1453 44.554C24.2262 44.6469 24.2867 44.7558 24.3226 44.8737L24.9998 47.0936L25.6771 44.8737C25.713 44.7558 25.7734 44.6469 25.8544 44.554C25.9354 44.4611 26.035 44.3864 26.1469 44.3346C26.2587 44.2829 26.3802 44.2554 26.5034 44.2539C26.6266 44.2524 26.7488 44.277 26.8618 44.326L27.7692 44.7197V42.6687H22.2305V44.7197Z" fill="#FFC399"/>
<path d="M40.3215 14.8324H37.8715C37.6501 14.833 37.4367 14.7496 37.2743 14.5991C37.1119 14.4486 37.0126 14.2421 36.9965 14.0213C36.538 7.7213 30.7525 2.78455 23.826 2.78455C16.8995 2.78455 11.1157 7.71954 10.6564 14.0213C10.6402 14.2421 10.5409 14.4486 10.3785 14.5991C10.2162 14.7496 10.0028 14.833 9.78136 14.8324H9.67636C7.28728 14.9024 5.0195 15.9006 3.35437 17.6152C1.68923 19.3299 0.757813 21.6259 0.757812 24.016C0.757813 26.4061 1.68923 28.7021 3.35437 30.4167C5.0195 32.1313 7.28728 33.1296 9.67636 33.1995H13.907L17.127 29.3985V24.761C17.1322 20.9374 18.0431 17.1695 19.7852 13.7658L24.2215 5.11555C24.3027 4.98172 24.417 4.87107 24.5534 4.79428C24.6898 4.7175 24.8437 4.67716 25.0002 4.67716C25.1568 4.67716 25.3107 4.7175 25.4471 4.79428C25.5835 4.87107 25.6978 4.98172 25.779 5.11555L30.2152 13.7658C31.9579 17.1693 32.8695 20.9373 32.8752 24.761V29.3985L36.0952 33.1995H40.3215C42.7106 33.1296 44.9783 32.1313 46.6435 30.4167C48.3086 28.7021 49.24 26.4061 49.24 24.016C49.24 21.6259 48.3086 19.3299 46.6435 17.6152C44.9783 15.9006 42.7106 14.9024 40.3215 14.8324ZM6.51848 18.727C5.39329 19.4544 4.50688 20.4966 3.96961 21.7239C3.56229 22.6803 3.38257 23.7182 3.44461 24.7558C3.45148 24.8705 3.43567 24.9855 3.39809 25.0941C3.36051 25.2028 3.3019 25.3029 3.2256 25.3889C3.1493 25.4749 3.05681 25.545 2.95341 25.5952C2.85001 25.6454 2.73773 25.6747 2.62298 25.6815H2.57048C2.34709 25.6819 2.13201 25.5969 1.96933 25.4438C1.80664 25.2907 1.70866 25.0812 1.69548 24.8582C1.61679 23.5487 1.84324 22.2388 2.35698 21.0318C3.03526 19.4843 4.15466 18.171 5.57523 17.2562C5.67179 17.1914 5.78029 17.1466 5.89438 17.1242C6.00847 17.1019 6.12587 17.1025 6.23972 17.126C6.35357 17.1496 6.46159 17.1956 6.55747 17.2613C6.65335 17.3271 6.73516 17.4113 6.79812 17.509C6.86109 17.6067 6.90394 17.716 6.92419 17.8305C6.94444 17.945 6.94166 18.0624 6.91604 18.1758C6.89041 18.2892 6.84244 18.3963 6.77493 18.491C6.70743 18.5856 6.62173 18.6659 6.52286 18.727H6.51848Z" fill="#FF6A00"/>
<path d="M21.0898 40.6519C21.0898 40.7215 21.1175 40.7883 21.1667 40.8375C21.216 40.8867 21.2827 40.9144 21.3523 40.9144H28.6411C28.7107 40.9144 28.7775 40.8867 28.8267 40.8375C28.8759 40.7883 28.9036 40.7215 28.9036 40.6519V38.2334H21.0898V40.6519Z" fill="#FFC399"/>
<path d="M21.332 23.9875C21.3326 24.7129 21.5481 25.4218 21.9515 26.0246C22.3548 26.6275 22.9279 27.0972 23.5982 27.3744C24.2685 27.6517 25.0059 27.7239 25.7172 27.5821C26.4286 27.4403 27.0819 27.0907 27.5946 26.5776C28.1073 26.0646 28.4564 25.411 28.5977 24.6995C28.7391 23.9881 28.6663 23.2507 28.3886 22.5806C28.1109 21.9105 27.6407 21.3378 27.0376 20.9349C26.4344 20.532 25.7254 20.3169 25 20.3169C24.0273 20.3187 23.095 20.7062 22.4075 21.3942C21.7199 22.0823 21.3332 23.0148 21.332 23.9875Z" fill="#FF6A00"/>
<path d="M32.8706 37.0381L35.101 39.6701V34.7377L32.8706 32.1066V37.0381Z" fill="#FFC399"/>
<path d="M25 7.43164L21.3416 14.5638C19.7275 17.7209 18.8838 21.2152 18.8794 24.761V36.486H31.1206V24.761C31.1163 21.2152 30.2725 17.7209 28.6584 14.5638L25 7.43164ZM30.418 23.9875C30.4175 25.059 30.0993 26.1062 29.5036 26.9969C28.908 27.8875 28.0616 28.5816 27.0716 28.9912C26.0815 29.4009 24.9922 29.5078 23.9414 29.2985C22.8906 29.0891 21.9254 28.5729 21.168 27.8151C20.4105 27.0572 19.8948 26.0918 19.6859 25.0409C19.4771 23.99 19.5845 22.9008 19.9947 21.9109C20.4048 20.9211 21.0993 20.075 21.9902 19.4798C22.8811 18.8846 23.9286 18.5669 25 18.5669C26.4368 18.5687 27.8143 19.1405 28.83 20.1568C29.8458 21.173 30.4169 22.5507 30.418 23.9875Z" fill="#FFC399"/>
</g>
<defs>
<clipPath id="clip0_2938_1127">
<rect width="49" height="48" fill="white"/>
</clipPath>
</defs>
</svg>
