<svg width="48" height="48" viewBox="0 0 48 48" fill="none" xmlns="http://www.w3.org/2000/svg">
<path opacity="0.4" d="M6.33596 38.4H16.896L15.936 42.24H11.712C10.56 42.24 9.79196 43.008 9.79196 44.16C9.79196 45.12 10.56 46.08 11.712 46.08H36.288C37.44 46.08 38.208 45.12 38.208 44.16C38.208 43.008 37.44 42.24 36.288 42.24H32.256L31.296 38.4H41.856C44.736 38.4 47.232 35.904 47.232 33.024C47.232 23.808 47.232 16.896 47.232 7.48796C47.232 4.60796 44.736 2.11196 41.856 2.11196H6.33596C3.45596 1.91996 0.959961 4.41596 0.959961 7.29596V32.832C0.959961 35.904 3.26396 38.4 6.33596 38.4ZM4.79996 7.29596C4.79996 6.52796 5.56796 5.75996 6.33596 5.75996H41.664C42.432 5.75996 43.2 6.52796 43.2 7.29596V26.88H4.79996V7.29596Z" fill="#BB33DF"/>
<path d="M35.5201 19.968C34.5601 19.968 33.9841 19.392 33.6001 18.816C33.2161 18.048 33.4081 17.28 33.9841 16.704L34.1761 16.512C34.9441 15.744 34.9441 14.592 34.1761 13.824L32.8321 12.48C32.0641 11.712 30.9121 11.712 30.1441 12.48L29.9521 12.672C29.5681 13.44 28.8001 13.44 28.0321 13.248C28.0321 13.248 28.0321 13.248 27.8401 13.248C27.0721 13.056 26.6881 12.288 26.6881 11.52V11.328C26.6881 10.368 25.9201 9.40796 24.7681 9.40796H23.0401C22.0801 9.40796 21.1201 10.176 21.1201 11.328V11.52C21.1201 12.288 20.7361 13.056 19.9681 13.248C19.9681 13.248 19.9681 13.248 19.7761 13.248C19.2001 13.44 18.4321 13.44 17.8561 12.864V12.672C17.0881 11.904 15.9361 11.904 15.1681 12.672L13.8241 14.016C13.0561 14.784 13.0561 15.936 13.8241 16.704L14.0161 16.896C14.5921 17.28 14.7841 18.048 14.4001 18.816C14.0161 19.584 13.4401 19.968 12.6721 19.968H12.4801C11.5201 19.968 10.5601 20.736 10.5601 21.888V23.04H18.2401V22.848C18.2401 19.584 20.7361 17.088 24.0001 17.088C27.2641 17.088 29.7601 19.584 29.7601 22.848V23.04H37.4401V21.888C37.4401 20.928 36.4801 19.968 35.5201 19.968Z" fill="#BB33DF"/>
</svg>
