<svg width="60" height="60" viewBox="0 0 60 60" fill="none" xmlns="http://www.w3.org/2000/svg">
<path d="M17.981 28.1734C17.981 35.2689 23.733 41.021 30.8285 41.021C37.9241 41.021 43.6761 35.2689 43.6761 28.1734C43.6761 21.0778 37.9241 15.3258 30.8285 15.3258C23.7365 15.3338 17.9889 21.0813 17.981 28.1734ZM30.8285 28.9852C28.6965 28.9972 26.89 27.4182 26.6172 25.3036C26.3444 23.1895 27.6909 21.2031 29.7563 20.6739V19.5878C29.7563 19.0959 30.1548 18.6974 30.6467 18.6974C31.1386 18.6974 31.537 19.0959 31.537 19.5878V20.6198C33.5572 20.9616 35.0319 22.718 35.019 24.7675C35.019 25.2534 34.625 25.6474 34.139 25.6474C33.6531 25.6474 33.2591 25.2534 33.2591 24.7675C33.2576 23.4225 32.1665 22.3334 30.8216 22.3349C29.4766 22.3364 28.3875 23.428 28.3895 24.7729C28.391 26.1174 29.4826 27.2065 30.8275 27.2045C33.0082 27.2169 34.8192 28.8903 35.0036 31.0636C35.1879 33.2363 33.6844 35.1909 31.537 35.5705V36.6318C31.537 37.1237 31.1386 37.5221 30.6467 37.5221C30.1548 37.5221 29.7563 37.1237 29.7563 36.6318V35.5158C27.8956 35.0245 26.5954 33.3471 26.5829 31.4228C26.5829 30.9254 26.9864 30.522 27.4837 30.522C27.9811 30.522 28.3845 30.9254 28.3845 31.4228C28.3875 32.6664 29.3246 33.7093 30.5607 33.8449C30.6064 33.8375 30.6531 33.834 30.6998 33.8335C30.7669 33.8335 30.8335 33.8415 30.8991 33.8564C32.2346 33.8236 33.2944 32.7216 33.275 31.386C33.2556 30.05 32.1641 28.9793 30.8285 28.9852Z" fill="#FF6A00"/>
<path opacity="0.4" d="M51.4477 47.1467C51.4412 47.1502 51.4342 47.1536 51.4268 47.1571L43.1617 51.0619C43.2506 51.5195 43.2894 51.985 43.2769 52.4511C43.264 52.933 42.8695 53.3171 42.3876 53.3171C42.3791 53.3171 42.3707 53.3171 42.3622 53.3171L30.2659 52.9842C29.774 52.9708 29.3865 52.5614 29.3999 52.0695C29.4133 51.5776 29.8232 51.1901 30.3146 51.2035L41.4336 51.5095C41.065 49.3547 39.2276 47.7588 37.0425 47.6952L29.6841 47.493C28.2308 47.4513 26.8058 47.0831 25.5145 46.4158L24.7658 46.0283C21.0886 44.1124 16.6577 44.3618 13.2189 46.6787L12.9243 57.3833L14.1888 56.7061C15.4453 56.0304 16.9155 55.8694 18.2888 56.2574L30.7767 59.7627C33.1834 60.2556 35.6846 59.9764 37.9234 58.9638L55.2242 47.7727C54.237 46.7621 52.7082 46.5082 51.4477 47.1467Z" fill="#FF6A00"/>
<path opacity="0.4" d="M4.79785 59.2425L5.23657 43.3159L11.5257 43.4893L11.087 59.4159L4.79785 59.2425Z" fill="#FF6A00"/>
</svg>
