<svg width="23" height="23" viewBox="0 0 23 23" fill="none" xmlns="http://www.w3.org/2000/svg">
<path d="M23 11.5C23 12.4813 21.7944 13.2902 21.5529 14.1948C21.3037 15.1302 21.9343 16.4335 21.4609 17.2519C20.9798 18.0837 19.5327 18.1834 18.8581 18.8581C18.1834 19.5327 18.0837 20.9798 17.2519 21.4609C16.4335 21.9343 15.1302 21.3037 14.1948 21.5529C13.2902 21.7944 12.4813 23 11.5 23C10.5187 23 9.70983 21.7944 8.80517 21.5529C7.86983 21.3037 6.5665 21.9343 5.74808 21.4609C4.91625 20.9798 4.81658 19.5327 4.14192 18.8581C3.46725 18.1834 2.02017 18.0837 1.53908 17.2519C1.06567 16.4335 1.69625 15.1302 1.44708 14.1948C1.20558 13.2902 0 12.4813 0 11.5C0 10.5187 1.20558 9.70983 1.44708 8.80517C1.69625 7.86983 1.06567 6.5665 1.53908 5.74808C2.02017 4.91625 3.46725 4.81658 4.14192 4.14192C4.81658 3.46725 4.91625 2.02017 5.74808 1.53908C6.5665 1.06567 7.86983 1.69625 8.80517 1.44708C9.70983 1.20558 10.5187 0 11.5 0C12.4813 0 13.2902 1.20558 14.1948 1.44708C15.1302 1.69625 16.4335 1.06567 17.2519 1.53908C18.0837 2.02017 18.1834 3.46725 18.8581 4.14192C19.5327 4.81658 20.9798 4.91625 21.4609 5.74808C21.9343 6.5665 21.3037 7.86983 21.5529 8.80517C21.7944 9.70983 23 10.5187 23 11.5Z" fill="#5ED508"/>
<path d="M14.8233 8.07281L10.4456 12.4505L8.17632 10.1831C7.68373 9.69047 6.88448 9.69047 6.3919 10.1831C5.89932 10.6756 5.89932 11.4749 6.3919 11.9675L9.57548 15.1511C10.0546 15.6302 10.8328 15.6302 11.312 15.1511L16.6058 9.85722C17.0984 9.36464 17.0984 8.56539 16.6058 8.07281C16.1132 7.58022 15.3159 7.58022 14.8233 8.07281Z" fill="white"/>
</svg>
