<svg width="28" height="28" viewBox="0 0 28 28" fill="none" xmlns="http://www.w3.org/2000/svg">
<path d="M12.857 22.75H8.75033C8.02699 22.75 7.38533 22.7267 6.81366 22.645C3.74533 22.3067 2.91699 20.86 2.91699 16.9167V11.0833C2.91699 7.14 3.74533 5.69333 6.81366 5.355C7.38533 5.27333 8.02699 5.25 8.75033 5.25H12.787" stroke="white" stroke-width="1.17" stroke-linecap="round" stroke-linejoin="round"/>
<path d="M17.5234 5.25H19.2501C19.9734 5.25 20.6151 5.27333 21.1868 5.355C24.2551 5.69333 25.0834 7.14 25.0834 11.0833V16.9167C25.0834 20.86 24.2551 22.3067 21.1868 22.645C20.6151 22.7267 19.9734 22.75 19.2501 22.75H17.5234" stroke="white" stroke-width="1.17" stroke-linecap="round" stroke-linejoin="round"/>
<path d="M17.5 2.33325V25.6666" stroke="white" stroke-width="1.17" stroke-linecap="round" stroke-linejoin="round"/>
<path d="M9.33301 9.91675V18.0834" stroke="white" stroke-width="1.17" stroke-linecap="round" stroke-linejoin="round"/>
</svg>
