<svg width="21" height="21" viewBox="0 0 21 21" fill="none" xmlns="http://www.w3.org/2000/svg">
<path opacity="0.1" d="M21 10.5C21 11.396 19.8993 12.1345 19.6787 12.9605C19.4513 13.8145 20.027 15.0045 19.5947 15.7517C19.1555 16.5112 17.8342 16.6022 17.2183 17.2183C16.6022 17.8342 16.5112 19.1555 15.7517 19.5947C15.0045 20.027 13.8145 19.4513 12.9605 19.6787C12.1345 19.8993 11.396 21 10.5 21C9.604 21 8.8655 19.8993 8.0395 19.6787C7.1855 19.4513 5.9955 20.027 5.24825 19.5947C4.48875 19.1555 4.39775 17.8342 3.78175 17.2183C3.16575 16.6022 1.8445 16.5112 1.40525 15.7517C0.973 15.0045 1.54875 13.8145 1.32125 12.9605C1.10075 12.1345 0 11.396 0 10.5C0 9.604 1.10075 8.8655 1.32125 8.0395C1.54875 7.1855 0.973 5.9955 1.40525 5.24825C1.8445 4.48875 3.16575 4.39775 3.78175 3.78175C4.39775 3.16575 4.48875 1.8445 5.24825 1.40525C5.9955 0.973 7.1855 1.54875 8.0395 1.32125C8.8655 1.10075 9.604 0 10.5 0C11.396 0 12.1345 1.10075 12.9605 1.32125C13.8145 1.54875 15.0045 0.973 15.7517 1.40525C16.5112 1.8445 16.6022 3.16575 17.2183 3.78175C17.8342 4.39775 19.1555 4.48875 19.5947 5.24825C20.027 5.9955 19.4513 7.1855 19.6787 8.0395C19.8993 8.8655 21 9.604 21 10.5Z" fill="#2029BD"/>
<path d="M13.5336 7.37076L9.53661 11.3678L7.46461 9.29751C7.01486 8.84776 6.28511 8.84776 5.83536 9.29751C5.38561 9.74726 5.38561 10.477 5.83536 10.9268L8.74211 13.8335C9.17961 14.271 9.89011 14.271 10.3276 13.8335L15.1611 9.00001C15.6109 8.55026 15.6109 7.82051 15.1611 7.37076C14.7114 6.92101 13.9834 6.92101 13.5336 7.37076Z" fill="#2029BD"/>
</svg>
