<svg width="41" height="41" viewBox="0 0 41 41" fill="none" xmlns="http://www.w3.org/2000/svg">
<path d="M13.6665 20.8417H25.6248" stroke="#33CCCC" stroke-width="2.3" stroke-miterlimit="10" stroke-linecap="round" stroke-linejoin="round"/>
<path d="M13.6665 27.675H21.149" stroke="#33CCCC" stroke-width="2.3" stroke-miterlimit="10" stroke-linecap="round" stroke-linejoin="round"/>
<path d="M17.0832 10.25H23.9165C27.3332 10.25 27.3332 8.54166 27.3332 6.83332C27.3332 3.41666 25.6248 3.41666 23.9165 3.41666H17.0832C15.3748 3.41666 13.6665 3.41666 13.6665 6.83332C13.6665 10.25 15.3748 10.25 17.0832 10.25Z" stroke="#0C111D" stroke-width="2.3" stroke-miterlimit="10" stroke-linecap="round" stroke-linejoin="round"/>
<path d="M27.3333 6.86749C33.0221 7.17499 35.875 9.27624 35.875 17.0833V27.3333C35.875 34.1667 34.1667 37.5833 25.625 37.5833H15.375C6.83333 37.5833 5.125 34.1667 5.125 27.3333V17.0833C5.125 9.29333 7.97792 7.17499 13.6667 6.86749" stroke="#0C111D" stroke-width="2.3" stroke-miterlimit="10" stroke-linecap="round" stroke-linejoin="round"/>
</svg>
