<svg width="18" height="18" viewBox="0 0 18 18" fill="none" xmlns="http://www.w3.org/2000/svg">
<path d="M16.5 9C16.5 4.86 13.14 1.5 9 1.5C4.86 1.5 1.5 4.86 1.5 9C1.5 13.14 4.86 16.5 9 16.5" stroke="#111112" stroke-width="1.5" stroke-linecap="round" stroke-linejoin="round"/>
<path d="M5.99995 2.25H6.74995C5.28745 6.63 5.28745 11.37 6.74995 15.75H5.99995" stroke="#111112" stroke-width="1.5" stroke-linecap="round" stroke-linejoin="round"/>
<path d="M11.25 2.25C11.9775 4.44 12.345 6.72 12.345 9" stroke="#111112" stroke-width="1.5" stroke-linecap="round" stroke-linejoin="round"/>
<path d="M2.25 12V11.25C4.44 11.9775 6.72 12.345 9 12.345" stroke="#111112" stroke-width="1.5" stroke-linecap="round" stroke-linejoin="round"/>
<path d="M2.25 6.74995C6.63 5.28745 11.37 5.28745 15.75 6.74995" stroke="#111112" stroke-width="1.5" stroke-linecap="round" stroke-linejoin="round"/>
<path d="M14.4075 11.8048L11.7525 14.4598C11.6475 14.5648 11.55 14.7598 11.5275 14.9023L11.385 15.9148C11.3325 16.2823 11.5875 16.5373 11.955 16.4848L12.9675 16.3423C13.11 16.3198 13.3125 16.2223 13.41 16.1173L16.065 13.4623C16.5225 13.0048 16.74 12.4723 16.065 11.7973C15.3975 11.1298 14.865 11.3473 14.4075 11.8048Z" stroke="#111112" stroke-width="1.5" stroke-miterlimit="10" stroke-linecap="round" stroke-linejoin="round"/>
<path d="M14.0249 12.1875C14.2499 12.9975 14.8799 13.6275 15.6899 13.8525" stroke="#111112" stroke-width="1.5" stroke-miterlimit="10" stroke-linecap="round" stroke-linejoin="round"/>
</svg>
