<svg width="21" height="21" viewBox="0 0 21 21" fill="none" xmlns="http://www.w3.org/2000/svg">
<path opacity="0.1" d="M21 10.5C21 11.396 19.8993 12.1345 19.6787 12.9605C19.4513 13.8145 20.027 15.0045 19.5947 15.7517C19.1555 16.5112 17.8342 16.6022 17.2183 17.2183C16.6022 17.8342 16.5112 19.1555 15.7517 19.5947C15.0045 20.027 13.8145 19.4513 12.9605 19.6787C12.1345 19.8993 11.396 21 10.5 21C9.604 21 8.8655 19.8993 8.0395 19.6787C7.1855 19.4513 5.9955 20.027 5.24825 19.5947C4.48875 19.1555 4.39775 17.8342 3.78175 17.2183C3.16575 16.6022 1.8445 16.5112 1.40525 15.7517C0.973 15.0045 1.54875 13.8145 1.32125 12.9605C1.10075 12.1345 0 11.396 0 10.5C0 9.604 1.10075 8.8655 1.32125 8.0395C1.54875 7.1855 0.973 5.9955 1.40525 5.24825C1.8445 4.48875 3.16575 4.39775 3.78175 3.78175C4.39775 3.16575 4.48875 1.8445 5.24825 1.40525C5.9955 0.973 7.1855 1.54875 8.0395 1.32125C8.8655 1.10075 9.604 0 10.5 0C11.396 0 12.1345 1.10075 12.9605 1.32125C13.8145 1.54875 15.0045 0.973 15.7517 1.40525C16.5112 1.8445 16.6022 3.16575 17.2183 3.78175C17.8342 4.39775 19.1555 4.48875 19.5947 5.24825C20.027 5.9955 19.4513 7.1855 19.6787 8.0395C19.8993 8.8655 21 9.604 21 10.5Z" fill="#2029BD"/>
<path d="M14.6156 7.43806L11.7883 10.2657L14.6156 13.0933C15.0362 13.514 15.0362 14.1955 14.6156 14.6162C14.4055 14.8263 14.13 14.9315 13.8547 14.9315C13.5788 14.9315 13.3033 14.8265 13.0933 14.6162L10.2654 11.7884L7.43757 14.6162C7.22747 14.8263 6.95194 14.9315 6.67634 14.9315C6.40082 14.9315 6.12548 14.8265 5.91519 14.6162C5.49463 14.1957 5.49463 13.5141 5.91519 13.0932L8.74248 10.2657L5.91503 7.43806C5.49447 7.0175 5.49447 6.33583 5.91503 5.91528C6.33551 5.49504 7.01677 5.49504 7.43741 5.91528L10.2653 8.74295L13.093 5.91528C13.5137 5.49504 14.1951 5.49504 14.6155 5.91528C15.0362 6.33583 15.0362 7.0175 14.6156 7.43806Z" fill="#2029BD"/>
</svg>
