<svg width="56" height="56" viewBox="0 0 56 56" fill="none" xmlns="http://www.w3.org/2000/svg">
<path d="M45.1243 27.2348H36.2301C35.8073 27.2348 35.4645 27.5776 35.4645 28.0005C35.4645 32.1142 32.1177 35.461 28.0039 35.461C23.8902 35.461 20.5434 32.1142 20.5434 28.0005C20.5434 27.5776 20.2007 27.2348 19.7778 27.2348H10.8834C10.4606 27.2348 10.1178 27.5776 10.1178 28.0005V29.7124C10.1178 30.7546 10.9658 31.6026 12.008 31.6026C13.4951 31.6026 14.4246 32.5673 14.7985 33.4701C15.1725 34.373 15.1974 35.7124 14.1458 36.7639C13.7888 37.1209 13.5922 37.5956 13.5922 38.1006C13.5922 38.6056 13.7888 39.0803 14.1459 39.4373L16.5671 41.8584C16.9241 42.2155 17.3988 42.412 17.9038 42.412C18.4088 42.412 18.8835 42.2155 19.2404 41.8584C20.2935 40.8053 21.6329 40.8293 22.5353 41.2031C23.4376 41.5768 24.4016 42.5069 24.4016 43.9963C24.4016 45.0386 25.2496 45.8864 26.2919 45.8864H29.7159C30.7581 45.8864 31.6061 45.0386 31.6061 43.9963C31.6061 42.5092 32.5708 41.5798 33.4735 41.2058C34.3764 40.8317 35.7158 40.807 36.7675 41.8585C37.5044 42.5955 38.7036 42.5952 39.4406 41.8585L41.8617 39.4373C42.2188 39.0803 42.4154 38.6056 42.4154 38.1006C42.4154 37.5956 42.2188 37.1209 41.8617 36.7638C40.8102 35.7124 40.8351 34.373 41.2091 33.4701C41.583 32.5673 42.5125 31.6026 43.9997 31.6026C45.0419 31.6026 45.8899 30.7546 45.8899 29.7124V28.0005C45.8899 27.5776 45.5472 27.2348 45.1243 27.2348ZM44.3587 29.7124C44.3587 29.9104 44.1977 30.0714 43.9997 30.0714C42.1244 30.0714 40.5131 31.1491 39.7944 32.8842C39.0757 34.6192 39.4531 36.5208 40.7789 37.8466C40.8704 37.9382 40.884 38.045 40.884 38.1006C40.884 38.1561 40.8704 38.2629 40.7789 38.3543L38.3577 40.7756C38.2177 40.9157 37.9897 40.9156 37.85 40.7756C36.5239 39.4497 34.6224 39.0725 32.8873 39.7911C31.1524 40.5097 30.0746 42.1211 30.0746 43.9962C30.0746 44.1942 29.9136 44.3551 29.7156 44.3551H26.2916C26.0937 44.3551 25.9327 44.1941 25.9327 43.9962C25.9327 42.119 24.8552 40.5067 23.121 39.7882C22.5399 39.5475 21.9398 39.43 21.349 39.43C20.1765 39.43 19.0399 39.8929 18.1573 40.7756C18.0659 40.867 17.959 40.8807 17.9035 40.8807C17.8479 40.8807 17.741 40.867 17.6496 40.7756L15.2284 38.3543C15.1369 38.2629 15.1233 38.1561 15.1233 38.1006C15.1233 38.045 15.1369 37.9382 15.2284 37.8467C16.5544 36.5208 16.9317 34.6192 16.213 32.8842C15.4944 31.1493 13.8831 30.0714 12.0078 30.0714C11.8099 30.0714 11.6489 29.9103 11.6489 29.7124V28.7661H19.0442C19.4339 33.3672 23.3034 36.9923 28.0037 36.9923C32.704 36.9923 36.5736 33.3672 36.9633 28.7661H44.3585L44.3587 29.7124ZM52.9118 43.5785C52.9636 43.9982 52.6655 44.3803 52.2458 44.4322L47.9246 44.9657C47.8928 44.9697 47.8611 44.9716 47.8298 44.9716C47.4488 44.9716 47.1188 44.6875 47.0709 44.2996L46.5373 39.9785C46.4854 39.5589 46.7836 39.1766 47.2033 39.1248C47.6229 39.0728 48.0051 39.3712 48.0569 39.7908L48.36 42.2451C55.2656 32.4348 54.1949 19.0611 45.5688 10.435C36.4996 1.36589 22.19 0.648172 12.2833 8.76533C11.9564 9.0333 11.4739 8.9855 11.2059 8.65836C10.9379 8.33133 10.9858 7.84887 11.3129 7.58091C16.3464 3.45659 22.7129 1.35298 29.2408 1.65737C35.8126 1.96384 41.9959 4.69669 46.6516 9.35234C51.3048 14.0056 54.0375 20.1856 54.3461 26.754C54.6238 32.6649 52.9268 38.4451 49.5423 43.223L52.0582 42.9124C52.4783 42.8608 52.8599 43.1588 52.9118 43.5785ZM44.8021 47.3413C45.07 47.6684 45.0221 48.1507 44.6951 48.4188C39.9814 52.2811 34.0983 54.3714 28.0091 54.3714C27.5959 54.3714 27.1819 54.3618 26.7671 54.3424C20.1953 54.0359 14.012 51.3031 9.35635 46.6475C0.224089 37.5151 -0.918551 23.1871 6.46503 12.7768L3.94973 13.0874C3.53071 13.1399 3.1479 12.8411 3.09606 12.4214C3.04421 12.0017 3.34237 11.6195 3.76204 11.5677L8.08323 11.0341C8.28459 11.009 8.48792 11.0654 8.64804 11.1903C8.80817 11.3152 8.91207 11.4986 8.93701 11.7001L9.47054 16.0213C9.52239 16.4409 9.22423 16.8232 8.80456 16.8749C8.38543 16.9272 8.00273 16.6286 7.95089 16.209L7.64803 13.7561C0.767793 23.5532 1.86482 36.9902 10.4392 45.5645C19.5082 54.6338 33.818 55.3515 43.7246 47.2344C44.0516 46.9663 44.5341 47.0142 44.8021 47.3413ZM33.1613 22.9105H32.6064C32.1836 22.9105 31.8408 22.5676 31.8408 22.1448C31.8408 21.722 32.1836 21.3792 32.6064 21.3792H33.1613C34.867 21.3792 36.2546 19.9915 36.2546 18.2859C36.2546 16.5803 34.867 15.1925 33.1613 15.1925H31.1667C30.748 15.1925 30.4069 14.8561 30.4011 14.4375C30.3723 12.3539 28.6534 10.6588 26.5691 10.6588C25.5448 10.6588 24.5827 11.058 23.8598 11.7829C23.1354 12.5092 22.7365 13.4776 22.7366 14.5096C22.7366 14.8623 22.4957 15.1695 22.1531 15.2533C20.7401 15.5993 19.7532 16.8464 19.7532 18.2859C19.7532 19.9916 21.1409 21.3792 22.8466 21.3792C23.2694 21.3792 23.6122 21.722 23.6122 22.1448C23.6122 22.5677 23.2694 22.9105 22.8466 22.9105C20.2966 22.9105 18.222 20.8358 18.222 18.2858C18.222 16.3331 19.4354 14.619 21.2349 13.9378C21.3623 12.7141 21.8981 11.5814 22.7755 10.7016C23.7877 9.68649 25.135 9.12747 26.569 9.12747C29.2297 9.12747 31.4651 11.1013 31.8679 13.6612H33.1611C35.711 13.6612 37.7857 15.7357 37.7857 18.2858C37.7857 20.8358 35.7112 22.9105 33.1613 22.9105ZM25.7506 17.6406V23.6676L25.9006 23.5175C26.1996 23.2187 26.6844 23.2187 26.9833 23.5175C27.2824 23.8165 27.2824 24.3013 26.9833 24.6003L25.5264 26.0573C25.3768 26.2067 25.1809 26.2815 24.9849 26.2815C24.7889 26.2815 24.5931 26.2067 24.4435 26.0573L22.9866 24.6003C22.6875 24.3013 22.6875 23.8165 22.9866 23.5175C23.2855 23.2187 23.7703 23.2187 24.0693 23.5175L24.2193 23.6676V17.6406C24.2193 17.2177 24.5621 16.8749 24.9849 16.8749C25.4078 16.8749 25.7506 17.2177 25.7506 17.6406ZM29.6635 25.5159V19.489L29.5135 19.639C29.2146 19.9379 28.7298 19.938 28.4308 19.639C28.1319 19.34 28.1318 18.8552 28.4308 18.5563L29.8878 17.0992C30.0313 16.9557 30.2261 16.8749 30.4292 16.8749C30.6323 16.8749 30.827 16.9555 30.9706 17.0992L32.4276 18.5563C32.7266 18.8553 32.7266 19.34 32.4276 19.639C32.1287 19.938 31.6438 19.938 31.3449 19.639L31.1948 19.4889V25.5158C31.1948 25.9386 30.852 26.2814 30.4292 26.2814C30.0064 26.2814 29.6635 25.9387 29.6635 25.5159ZM22.0024 28.0005C22.0024 31.3097 24.6947 34.002 28.0039 34.002C31.3132 34.002 34.0054 31.3097 34.0054 28.0005C34.0054 27.5776 33.6627 27.2348 33.2398 27.2348H22.768C22.3452 27.2348 22.0024 27.5776 22.0024 28.0005ZM32.4086 28.7661C32.0442 30.8675 30.2077 32.4707 28.0039 32.4707C25.8 32.4707 23.9635 30.8675 23.5993 28.7661H32.4086Z" fill="#1438BC"/>
</svg>
