<svg width="70" height="70" viewBox="0 0 70 70" fill="none" xmlns="http://www.w3.org/2000/svg">
<path d="M47.3974 17.8611C45.4459 16.1015 43.1411 14.7792 40.6371 13.9827C38.1331 13.1862 35.4879 12.9338 32.8785 13.2425C28.9399 13.6923 25.2484 15.3898 22.3433 18.0871C19.4382 20.7843 17.4718 24.3399 16.7314 28.2342C15.9909 32.1286 16.5152 36.1578 18.2277 39.7329C19.9402 43.3081 22.7511 46.242 26.2498 48.1059V59.0626C26.2504 59.6426 26.481 60.1987 26.8911 60.6088C27.3012 61.0189 27.8573 61.2495 28.4373 61.2501H30.6248V63.4376C30.6254 64.0176 30.856 64.5737 31.2661 64.9838C31.6762 65.3939 32.2323 65.6245 32.8123 65.6251H37.1873C37.7673 65.6245 38.3233 65.3939 38.7334 64.9838C39.1436 64.5737 39.3742 64.0176 39.3748 63.4376V61.2501H41.5623C42.1423 61.2495 42.6983 61.0189 43.1084 60.6088C43.5186 60.1987 43.7492 59.6426 43.7498 59.0626V48.1064C46.3896 46.7004 48.6509 44.6778 50.3415 42.2105C52.032 39.7432 53.1019 36.9042 53.46 33.9348C53.8181 30.9655 53.4539 27.9535 52.3984 25.155C51.3429 22.3566 49.6273 19.8543 47.3974 17.8611ZM41.5623 52.5001V54.6876H28.4373V52.5001H41.5623ZM37.1889 63.4376H32.8123V61.2501H37.1878L37.1889 63.4376ZM38.281 59.0626H28.4373V56.8751H41.5623V59.0626H38.281ZM42.1764 46.4541C41.9922 46.5438 41.837 46.6835 41.7284 46.8573C41.6198 47.031 41.5622 47.2318 41.5623 47.4367V50.3126H36.0935V45.2968L39.0543 42.3359C39.2536 42.1296 39.3638 41.8533 39.3613 41.5666C39.3588 41.2798 39.2438 41.0055 39.041 40.8027C38.8382 40.5999 38.5639 40.4848 38.2771 40.4824C37.9903 40.4799 37.714 40.5901 37.5078 40.7893L34.9998 43.2972L32.4918 40.7893C32.2855 40.5901 32.0093 40.4799 31.7225 40.4824C31.4357 40.4848 31.1614 40.5999 30.9586 40.8027C30.7558 41.0055 30.6408 41.2798 30.6383 41.5666C30.6358 41.8533 30.746 42.1296 30.9453 42.3359L33.906 45.2968V50.3126H28.4373V47.4367C28.4373 47.2318 28.3798 47.031 28.2712 46.8573C28.1626 46.6835 28.0073 46.5438 27.8231 46.4541C24.6303 44.9034 22.0269 42.3585 20.4042 39.2017C18.7815 36.0449 18.227 32.4468 18.8241 28.9479C19.4212 25.449 21.1377 22.2384 23.7156 19.7985C26.2935 17.3586 29.5936 15.8212 33.12 15.4173C33.7516 15.3467 34.3866 15.3112 35.0222 15.311C39.054 15.2989 42.9457 16.7891 45.9384 19.4907C47.9445 21.2838 49.4783 23.5431 50.4045 26.0693C51.3306 28.5955 51.6206 31.3108 51.2488 33.9756C50.877 36.6404 49.8549 39.1727 48.2726 41.3489C46.6904 43.5251 44.5967 45.2787 42.1764 46.4541Z" fill="#1438BC"/>
<path d="M35 10.9375C35.2901 10.9375 35.5683 10.8223 35.7734 10.6171C35.9785 10.412 36.0938 10.1338 36.0938 9.84375V5.46875C36.0938 5.17867 35.9785 4.90047 35.7734 4.69535C35.5683 4.49023 35.2901 4.375 35 4.375C34.7099 4.375 34.4317 4.49023 34.2266 4.69535C34.0215 4.90047 33.9062 5.17867 33.9062 5.46875V9.84375C33.9062 10.1338 34.0215 10.412 34.2266 10.6171C34.4317 10.8223 34.7099 10.9375 35 10.9375Z" fill="#1438BC"/>
<path d="M18.7587 17.0241C18.8596 17.1285 18.9803 17.2118 19.1138 17.2692C19.2472 17.3265 19.3907 17.3567 19.536 17.3579C19.6812 17.3592 19.8252 17.3315 19.9596 17.2765C20.094 17.2215 20.2162 17.1403 20.3189 17.0376C20.4216 16.9349 20.5028 16.8128 20.5578 16.6784C20.6128 16.544 20.6404 16.3999 20.6392 16.2547C20.6379 16.1095 20.6077 15.966 20.5504 15.8325C20.4931 15.6991 20.4098 15.5784 20.3053 15.4775L17.2115 12.3837C17.1106 12.2792 16.9899 12.1959 16.8565 12.1386C16.7231 12.0813 16.5795 12.0511 16.4343 12.0498C16.2891 12.0486 16.1451 12.0763 16.0106 12.1313C15.8762 12.1862 15.7541 12.2675 15.6514 12.3702C15.5487 12.4729 15.4675 12.595 15.4125 12.7294C15.3575 12.8638 15.3298 13.0078 15.3311 13.1531C15.3324 13.2983 15.3625 13.4418 15.4199 13.5752C15.4772 13.7087 15.5605 13.8294 15.665 13.9303L18.7587 17.0241Z" fill="#1438BC"/>
<path d="M13.125 30.625H8.75C8.45992 30.625 8.18172 30.7402 7.9766 30.9454C7.77148 31.1505 7.65625 31.4287 7.65625 31.7188C7.65625 32.0088 7.77148 32.287 7.9766 32.4921C8.18172 32.6973 8.45992 32.8125 8.75 32.8125H13.125C13.4151 32.8125 13.6933 32.6973 13.8984 32.4921C14.1035 32.287 14.2188 32.0088 14.2188 31.7188C14.2188 31.4287 14.1035 31.1505 13.8984 30.9454C13.6933 30.7402 13.4151 30.625 13.125 30.625Z" fill="#1438BC"/>
<path d="M18.7587 46.4135L15.665 49.5073C15.5605 49.6081 15.4772 49.7288 15.4199 49.8623C15.3625 49.9957 15.3324 50.1392 15.3311 50.2845C15.3298 50.4297 15.3575 50.5737 15.4125 50.7081C15.4675 50.8426 15.5487 50.9647 15.6514 51.0674C15.7541 51.1701 15.8762 51.2513 16.0106 51.3063C16.1451 51.3613 16.2891 51.3889 16.4343 51.3877C16.5795 51.3864 16.7231 51.3563 16.8565 51.2989C16.9899 51.2416 17.1106 51.1583 17.2115 51.0538L20.3053 47.96C20.5045 47.7538 20.6148 47.4775 20.6123 47.1907C20.6098 46.9039 20.4948 46.6296 20.292 46.4268C20.0892 46.224 19.8149 46.109 19.5281 46.1065C19.2413 46.104 18.965 46.2142 18.7587 46.4135Z" fill="#1438BC"/>
<path d="M52.788 12.3837L49.6943 15.4775C49.5898 15.5784 49.5065 15.6991 49.4492 15.8325C49.3918 15.966 49.3617 16.1095 49.3604 16.2547C49.3591 16.3999 49.3868 16.544 49.4418 16.6784C49.4968 16.8128 49.578 16.9349 49.6807 17.0376C49.7834 17.1403 49.9055 17.2215 50.0399 17.2765C50.1744 17.3315 50.3184 17.3592 50.4636 17.3579C50.6088 17.3567 50.7524 17.3265 50.8858 17.2692C51.0192 17.2118 51.1399 17.1285 51.2408 17.0241L54.3346 13.9303C54.4391 13.8294 54.5224 13.7087 54.5797 13.5752C54.637 13.4418 54.6672 13.2983 54.6685 13.1531C54.6697 13.0078 54.6421 12.8638 54.5871 12.7294C54.5321 12.595 54.4509 12.4729 54.3482 12.3702C54.2455 12.2675 54.1233 12.1862 53.9889 12.1313C53.8545 12.0763 53.7105 12.0486 53.5653 12.0498C53.42 12.0511 53.2765 12.0813 53.1431 12.1386C53.0096 12.1959 52.8889 12.2792 52.788 12.3837Z" fill="#1438BC"/>
<path d="M51.2413 46.4135C51.035 46.2142 50.7587 46.104 50.4719 46.1065C50.1852 46.109 49.9108 46.224 49.708 46.4268C49.5053 46.6296 49.3902 46.9039 49.3877 47.1907C49.3852 47.4775 49.4955 47.7538 49.6947 47.96L52.7885 51.0538C52.9948 51.2531 53.2711 51.3633 53.5579 51.3608C53.8446 51.3583 54.119 51.2433 54.3217 51.0405C54.5245 50.8377 54.6396 50.5634 54.6421 50.2766C54.6445 49.9898 54.5343 49.7135 54.3351 49.5073L51.2413 46.4135Z" fill="#1438BC"/>
<path d="M61.25 30.625H56.875C56.5849 30.625 56.3067 30.7402 56.1016 30.9454C55.8965 31.1505 55.7812 31.4287 55.7812 31.7188C55.7812 32.0088 55.8965 32.287 56.1016 32.4921C56.3067 32.6973 56.5849 32.8125 56.875 32.8125H61.25C61.5401 32.8125 61.8183 32.6973 62.0234 32.4921C62.2285 32.287 62.3438 32.0088 62.3438 31.7188C62.3438 31.4287 62.2285 31.1505 62.0234 30.9454C61.8183 30.7402 61.5401 30.625 61.25 30.625Z" fill="#1438BC"/>
</svg>
