<svg width="48" height="54" viewBox="0 0 48 54" fill="none" xmlns="http://www.w3.org/2000/svg">
<g clip-path="url(#clip0_3002_981)">
<path d="M24.0005 19.0529C17.7496 19.0529 11.8579 18.148 7.41012 16.5059C2.6319 14.7403 0 12.2618 0 9.52699C0 6.79219 2.6319 4.31262 7.41012 2.54707C11.8579 0.904922 17.7496 0 24.0005 0C30.2514 0 36.1421 0.904922 40.5888 2.54707C45.3702 4.31262 47.9989 6.79113 47.9989 9.52699C47.9989 12.2629 45.3702 14.7403 40.5888 16.5059C36.1421 18.148 30.2504 19.0529 24.0005 19.0529ZM24.0005 2.10938C11.1088 2.10938 2.12507 6.01805 2.12507 9.52699C2.12507 13.0359 11.1088 16.9436 24.0005 16.9436C36.8923 16.9436 45.8749 13.0349 45.8749 9.52699C45.8749 6.0191 36.8912 2.10938 24.0005 2.10938Z" fill="#1438BC"/>
<path d="M24.0005 30.702C17.7496 30.702 11.8579 29.7971 7.41012 28.155C2.6319 26.3894 0 23.9109 0 21.175C0 20.8953 0.111945 20.6271 0.311209 20.4293C0.510473 20.2315 0.780733 20.1204 1.06253 20.1204C1.34434 20.1204 1.6146 20.2315 1.81386 20.4293C2.01312 20.6271 2.12507 20.8953 2.12507 21.175C2.12507 24.6798 11.1088 28.5927 24.0005 28.5927C36.8923 28.5927 45.8749 24.6798 45.8749 21.175C45.8749 20.8953 45.9869 20.6271 46.1861 20.4293C46.3854 20.2315 46.6557 20.1204 46.9375 20.1204C47.2193 20.1204 47.4895 20.2315 47.6888 20.4293C47.8881 20.6271 48 20.8953 48 21.175C48 23.9109 45.3692 26.3894 40.5899 28.155C36.1421 29.7971 30.2504 30.702 24.0005 30.702Z" fill="#1438BC"/>
<path d="M24.0005 42.351C17.7496 42.351 11.8579 41.446 7.41012 39.8039C2.6319 38.0383 0 35.5598 0 32.824C0 32.5443 0.111945 32.276 0.311209 32.0782C0.510473 31.8804 0.780733 31.7693 1.06253 31.7693C1.34434 31.7693 1.6146 31.8804 1.81386 32.0782C2.01312 32.276 2.12507 32.5443 2.12507 32.824C2.12507 36.3329 11.1088 40.2416 24.0005 40.2416C36.8923 40.2416 45.8749 36.3329 45.8749 32.824C45.8749 32.5443 45.9869 32.276 46.1861 32.0782C46.3854 31.8804 46.6557 31.7693 46.9375 31.7693C47.2193 31.7693 47.4895 31.8804 47.6888 32.0782C47.8881 32.276 48 32.5443 48 32.824C48 35.5598 45.3692 38.0383 40.5899 39.8039C36.1421 41.4492 30.2504 42.351 24.0005 42.351Z" fill="#1438BC"/>
<path d="M24.0005 54.0001C17.7496 54.0001 11.8579 53.0952 7.41012 51.452C2.6319 49.6875 0 47.209 0 44.4731V9.5271C0 9.24738 0.111945 8.97912 0.311209 8.78132C0.510473 8.58353 0.780733 8.47241 1.06253 8.47241C1.34434 8.47241 1.6146 8.58353 1.81386 8.78132C2.01312 8.97912 2.12507 9.24738 2.12507 9.5271V44.4731C2.12507 47.9821 11.1088 51.8907 24.0005 51.8907C36.8923 51.8907 45.8749 47.9821 45.8749 44.4731V9.5271C45.8749 9.24738 45.9869 8.97912 46.1861 8.78132C46.3854 8.58353 46.6557 8.47241 46.9375 8.47241C47.2193 8.47241 47.4895 8.58353 47.6888 8.78132C47.8881 8.97912 48 9.24738 48 9.5271V44.4731C48 47.209 45.3692 49.6875 40.5899 51.452C36.1421 53.0952 30.2504 54.0001 24.0005 54.0001Z" fill="#1438BC"/>
<path d="M41.6035 22.2307C41.5339 22.2306 41.4645 22.2235 41.3963 22.2097C41.3283 22.196 41.2618 22.1759 41.1977 22.1495C41.1333 22.1233 41.0717 22.0908 41.0138 22.0525C40.8973 21.9762 40.7975 21.8771 40.7206 21.7614C40.6824 21.7037 40.6497 21.6426 40.6228 21.579C40.5963 21.5153 40.576 21.4493 40.5623 21.3817C40.5339 21.2457 40.5339 21.1054 40.5623 20.9693C40.5889 20.8334 40.6426 20.7041 40.7201 20.5889C40.7977 20.4737 40.8975 20.375 41.0138 20.2986C41.0717 20.2602 41.1333 20.2277 41.1977 20.2015C41.2618 20.1752 41.3283 20.155 41.3963 20.1414C41.5335 20.114 41.6747 20.114 41.8118 20.1414C42.0172 20.1827 42.206 20.2828 42.3548 20.4293C42.4039 20.479 42.4483 20.533 42.4876 20.5907C42.5648 20.7054 42.6186 20.8341 42.6459 20.9693C42.6728 21.1055 42.6728 21.2456 42.6459 21.3817C42.6322 21.4493 42.6119 21.5153 42.5853 21.579C42.5585 21.6426 42.5257 21.7037 42.4876 21.7614C42.4486 21.819 42.4041 21.8727 42.3548 21.9217C42.3056 21.9707 42.2515 22.0145 42.1932 22.0525C42.1356 22.0906 42.0744 22.1231 42.0105 22.1495C41.9463 22.1758 41.8798 22.1959 41.8118 22.2097C41.7432 22.2235 41.6735 22.2305 41.6035 22.2307Z" fill="#1438BC"/>
<path d="M37.336 23.2896C37.2664 23.2894 37.197 23.2823 37.1288 23.2685C37.0608 23.2548 36.9942 23.2347 36.9301 23.2083C36.8657 23.1821 36.8042 23.1496 36.7463 23.1113C36.6881 23.0733 36.634 23.0295 36.5848 22.9805C36.4857 22.8827 36.4073 22.7661 36.3542 22.6378C36.3277 22.5741 36.3074 22.5081 36.2937 22.4405C36.2797 22.3711 36.2729 22.3004 36.2735 22.2296C36.273 22.1588 36.2798 22.0881 36.2937 22.0187C36.3077 21.9512 36.3279 21.8852 36.3542 21.8214C36.4077 21.6936 36.4861 21.5775 36.5848 21.4797C36.6339 21.4304 36.6881 21.3862 36.7463 21.3479C36.8042 21.3096 36.8657 21.2771 36.9301 21.2508C36.9942 21.2245 37.0608 21.2043 37.1288 21.1907C37.2656 21.1633 37.4064 21.1633 37.5432 21.1907C37.6112 21.2043 37.6778 21.2245 37.7419 21.2508C37.8063 21.2771 37.8678 21.3096 37.9257 21.3479C38.042 21.425 38.1417 21.5243 38.219 21.64C38.2573 21.6972 38.2901 21.758 38.3167 21.8214C38.3435 21.885 38.3638 21.9511 38.3773 22.0187C38.3915 22.0881 38.3986 22.1588 38.3985 22.2296C38.3987 22.3004 38.3916 22.3711 38.3773 22.4405C38.3641 22.5082 38.3438 22.5743 38.3167 22.6378C38.2901 22.7015 38.2574 22.7626 38.219 22.8202C38.142 22.9359 38.0423 23.035 37.9257 23.1113C37.8678 23.1496 37.8063 23.1821 37.7419 23.2083C37.6778 23.2347 37.6112 23.2548 37.5432 23.2685C37.475 23.2823 37.4056 23.2894 37.336 23.2896Z" fill="#1438BC"/>
<path d="M33.0697 24.3484C32.9984 24.3485 32.9272 24.3414 32.8572 24.3273C32.7892 24.3136 32.7227 24.2934 32.6585 24.2672C32.4637 24.1885 32.2974 24.0532 32.1815 23.8791C32.1429 23.8216 32.1101 23.7605 32.0837 23.6966C32.0571 23.633 32.0369 23.5669 32.0231 23.4994C32.0095 23.4317 32.0028 23.3628 32.0029 23.2937C32.0025 23.2229 32.0093 23.1522 32.0231 23.0828C32.0389 23.0155 32.061 22.9498 32.089 22.8866C32.1426 22.7591 32.2205 22.643 32.3185 22.5449C32.3686 22.4961 32.423 22.452 32.4811 22.4131C32.5387 22.375 32.5999 22.3425 32.6638 22.316C32.728 22.2898 32.7945 22.2697 32.8625 22.2559C32.9996 22.2285 33.1409 22.2285 33.278 22.2559C33.346 22.2695 33.4126 22.2897 33.4767 22.316C33.5408 22.3427 33.6024 22.3752 33.6605 22.4131C33.7183 22.452 33.7723 22.4961 33.822 22.5449C33.8713 22.5937 33.9155 22.6474 33.9538 22.7052C33.9921 22.7624 34.0249 22.8232 34.0515 22.8866C34.0778 22.9504 34.0981 23.0164 34.1121 23.0838C34.1263 23.1533 34.1334 23.2239 34.1333 23.2948C34.1332 23.3639 34.126 23.4328 34.1121 23.5004C34.0984 23.568 34.0781 23.634 34.0515 23.6977C34.0251 23.7616 33.9924 23.8227 33.9538 23.8801C33.9155 23.9379 33.8713 23.9916 33.822 24.0404C33.7726 24.0892 33.7185 24.133 33.6605 24.1712C33.6024 24.2091 33.5408 24.2416 33.4767 24.2683C33.4126 24.2946 33.346 24.3148 33.278 24.3284C33.2094 24.3419 33.1397 24.3486 33.0697 24.3484Z" fill="#1438BC"/>
<path d="M41.6036 33.8788C41.534 33.8789 41.4646 33.8722 41.3964 33.8587C41.3283 33.8451 41.2618 33.825 41.1977 33.7986C41.1333 33.7724 41.0717 33.7399 41.0138 33.7016C40.9556 33.6632 40.9015 33.619 40.8523 33.5697C40.6537 33.3716 40.5418 33.1036 40.541 32.8241C40.5409 32.7532 40.548 32.6826 40.5623 32.6131C40.576 32.5456 40.5963 32.4796 40.6228 32.4159C40.6497 32.3522 40.6824 32.2912 40.7206 32.2335C40.7591 32.1759 40.8032 32.1222 40.8523 32.0731C40.9015 32.0242 40.9556 31.9803 41.0138 31.9424C41.0717 31.904 41.1333 31.8715 41.1977 31.8453C41.2618 31.819 41.3283 31.7988 41.3964 31.7852C41.5335 31.7578 41.6747 31.7578 41.8118 31.7852C41.9481 31.8123 42.0777 31.8657 42.1933 31.9424C42.2515 31.9803 42.3056 32.0242 42.3548 32.0731C42.4039 32.1224 42.4483 32.1761 42.4876 32.2335C42.5258 32.2912 42.5585 32.3522 42.5853 32.4159C42.6119 32.4796 42.6322 32.5456 42.6459 32.6131C42.6598 32.6826 42.6666 32.7533 42.6661 32.8241C42.6653 33.1036 42.5535 33.3716 42.3548 33.5697C42.3056 33.619 42.2515 33.6632 42.1933 33.7016C42.0777 33.7782 41.9481 33.8316 41.8118 33.8587C41.7432 33.8722 41.6735 33.8789 41.6036 33.8788Z" fill="#1438BC"/>
<path d="M37.336 34.9375C37.2664 34.9376 37.197 34.9309 37.1288 34.9174C37.0608 34.9038 36.9942 34.8837 36.9301 34.8573C36.8657 34.8311 36.8042 34.7986 36.7463 34.7603C36.6881 34.7223 36.6339 34.6785 36.5848 34.6295C36.5357 34.5802 36.4912 34.5265 36.452 34.4692C36.4138 34.4115 36.3811 34.3504 36.3542 34.2867C36.3276 34.2231 36.3073 34.157 36.2936 34.0895C36.2667 33.9533 36.2667 33.8133 36.2936 33.6771C36.3073 33.6096 36.3276 33.5435 36.3542 33.4799C36.3811 33.4162 36.4138 33.3551 36.452 33.2974C36.4912 33.2401 36.5357 33.1864 36.5848 33.1371C36.6339 33.0881 36.6881 33.0443 36.7463 33.0063C36.8042 32.968 36.8657 32.9355 36.9301 32.9093C36.9942 32.8829 37.0608 32.8628 37.1288 32.8492C37.2655 32.8218 37.4064 32.8218 37.5432 32.8492C37.6112 32.8628 37.6777 32.8829 37.7419 32.9093C37.8062 32.9355 37.8678 32.968 37.9257 33.0063C37.9839 33.0443 38.038 33.0881 38.0872 33.1371C38.1363 33.1861 38.1804 33.2398 38.2189 33.2974C38.2571 33.3551 38.2898 33.4162 38.3167 33.4799C38.3437 33.5434 38.364 33.6094 38.3773 33.6771C38.4056 33.8131 38.4056 33.9535 38.3773 34.0895C38.364 34.1571 38.3437 34.2232 38.3167 34.2867C38.2898 34.3504 38.2571 34.4115 38.2189 34.4692C38.1804 34.5268 38.1363 34.5805 38.0872 34.6295C38.038 34.6785 37.9839 34.7223 37.9257 34.7603C37.8678 34.7986 37.8062 34.8311 37.7419 34.8573C37.6777 34.8837 37.6112 34.9038 37.5432 34.9174C37.475 34.9309 37.4055 34.9376 37.336 34.9375Z" fill="#1438BC"/>
<path d="M33.0697 35.9965C32.9984 35.9969 32.9272 35.9902 32.8572 35.9764C32.7892 35.9627 32.7227 35.9425 32.6585 35.9163C32.5299 35.8628 32.4127 35.7855 32.3132 35.6885C32.2148 35.5903 32.1368 35.4738 32.0837 35.3457C32.0571 35.2821 32.0368 35.216 32.0231 35.1485C32.0096 35.0808 32.0028 35.0119 32.0029 34.9428C32.0035 34.6631 32.1149 34.3949 32.3132 34.1961C32.3632 34.1477 32.4177 34.1039 32.4758 34.0653C32.5334 34.0272 32.5946 33.9947 32.6585 33.9683C32.7227 33.9421 32.7892 33.9219 32.8572 33.9082C33.0634 33.8666 33.2774 33.8871 33.4718 33.967C33.6661 34.0468 33.8321 34.1824 33.9484 34.3564C33.9866 34.4141 34.0193 34.4752 34.0462 34.5389C34.0728 34.6025 34.093 34.6686 34.1067 34.7361C34.1351 34.8721 34.1351 35.0125 34.1067 35.1485C34.093 35.216 34.0728 35.2821 34.0462 35.3457C34.0193 35.4094 33.9866 35.4705 33.9484 35.5282C33.8715 35.6439 33.7717 35.7429 33.6552 35.8193C33.597 35.8572 33.5355 35.8896 33.4714 35.9163C33.4072 35.9427 33.3407 35.9628 33.2727 35.9764C33.2058 35.9896 33.1379 35.9963 33.0697 35.9965Z" fill="#1438BC"/>
<path d="M41.6036 45.5278C41.534 45.528 41.4646 45.5212 41.3964 45.5077C41.3283 45.4941 41.2618 45.474 41.1977 45.4476C41.1333 45.4217 41.0718 45.3896 41.0138 45.3516C40.9559 45.313 40.9018 45.2688 40.8523 45.2198C40.803 45.171 40.7589 45.1173 40.7206 45.0595C40.6822 45.0023 40.6495 44.9415 40.6228 44.8781C40.5964 44.8144 40.5761 44.7484 40.5623 44.6809C40.5481 44.6114 40.5409 44.5408 40.541 44.4699C40.5412 44.4008 40.5483 44.3319 40.5623 44.2643C40.576 44.1967 40.5963 44.1307 40.6228 44.067C40.6492 44.0031 40.682 43.942 40.7206 43.8846C40.7975 43.7689 40.8973 43.6698 41.0138 43.5935C41.0717 43.5552 41.1333 43.5227 41.1977 43.4965C41.2618 43.4701 41.3283 43.4499 41.3964 43.4363C41.5335 43.4089 41.6747 43.4089 41.8118 43.4363C41.8798 43.4501 41.9463 43.4702 42.0105 43.4965C42.0744 43.5229 42.1356 43.5554 42.1933 43.5935C42.2515 43.6315 42.3056 43.6753 42.3548 43.7243C42.4041 43.7733 42.4486 43.827 42.4876 43.8846C42.5262 43.942 42.5589 44.0031 42.5853 44.067C42.6119 44.1307 42.6322 44.1967 42.6459 44.2643C42.6595 44.332 42.6663 44.4009 42.6661 44.4699C42.6665 44.5407 42.6597 44.6114 42.6459 44.6809C42.632 44.7484 42.6118 44.8144 42.5853 44.8781C42.5188 45.0386 42.4134 45.1803 42.2785 45.2907C42.1435 45.4011 41.9832 45.4767 41.8118 45.5109C41.7431 45.5233 41.6734 45.529 41.6036 45.5278Z" fill="#1438BC"/>
<path d="M37.336 46.5867C37.2664 46.5869 37.197 46.5802 37.1288 46.5667C37.0607 46.553 36.9942 46.5329 36.9301 46.5065C36.8657 46.4803 36.8041 46.4478 36.7463 46.4095C36.63 46.332 36.53 46.2328 36.4519 46.1174C36.4143 46.0599 36.3819 45.9992 36.3553 45.936C36.3282 45.8725 36.3079 45.8064 36.2947 45.7387C36.2805 45.6693 36.2734 45.5986 36.2734 45.5278C36.2736 45.4587 36.2807 45.3898 36.2947 45.3221C36.3079 45.2545 36.3282 45.1884 36.3553 45.1249C36.3817 45.0612 36.4141 45.0002 36.4519 44.9424C36.4909 44.8849 36.5354 44.8312 36.5848 44.7821C36.6339 44.7332 36.6881 44.6893 36.7463 44.6513C36.8041 44.613 36.8657 44.5805 36.9301 44.5543C36.9942 44.5279 37.0607 44.5078 37.1288 44.4942C37.2655 44.4668 37.4064 44.4668 37.5432 44.4942C37.6112 44.5078 37.6777 44.5279 37.7419 44.5543C37.8062 44.5805 37.8678 44.613 37.9257 44.6513C37.9839 44.6893 38.038 44.7332 38.0872 44.7821C38.1363 44.8311 38.1804 44.8848 38.2189 44.9424C38.2575 44.9999 38.2903 45.061 38.3167 45.1249C38.3437 45.1884 38.364 45.2545 38.3773 45.3221C38.3912 45.3898 38.3983 45.4587 38.3985 45.5278C38.3986 45.5986 38.3915 45.6693 38.3773 45.7387C38.364 45.8064 38.3437 45.8725 38.3167 45.936C38.29 45.9994 38.2573 46.0601 38.2189 46.1174C38.1807 46.1751 38.1365 46.2289 38.0872 46.2777C38.0377 46.3267 37.9837 46.3708 37.9257 46.4095C37.8678 46.4478 37.8062 46.4803 37.7419 46.5065C37.6777 46.5329 37.6112 46.553 37.5432 46.5667C37.4749 46.5802 37.4055 46.5869 37.336 46.5867Z" fill="#1438BC"/>
<path d="M33.0697 47.6465C32.9983 47.6466 32.9272 47.6395 32.8572 47.6254C32.7892 47.6117 32.7227 47.5915 32.6585 47.5653C32.4644 47.4854 32.2985 47.3502 32.1818 47.1767C32.0651 47.0033 32.0029 46.7994 32.0029 46.5908C32.0028 46.5217 32.0096 46.4528 32.0231 46.3851C32.0368 46.3176 32.0571 46.2515 32.0837 46.1879C32.1368 46.0598 32.2148 45.9433 32.3132 45.8451C32.4127 45.7481 32.5299 45.6708 32.6585 45.6173C32.7227 45.5911 32.7892 45.5709 32.8572 45.5572C32.9943 45.5298 33.1356 45.5298 33.2727 45.5572C33.3407 45.5708 33.4072 45.5909 33.4714 45.6173C33.5355 45.644 33.597 45.6764 33.6552 45.7143C33.7717 45.7907 33.8715 45.8897 33.9484 46.0054C33.9866 46.0631 34.0193 46.1242 34.0462 46.1879C34.0728 46.2515 34.093 46.3176 34.1067 46.3851C34.1206 46.4528 34.1278 46.5217 34.128 46.5908C34.128 46.7644 34.0849 46.9353 34.0024 47.0884C33.9199 47.2414 33.8006 47.3719 33.6552 47.4683C33.597 47.5062 33.5355 47.5386 33.4714 47.5653C33.4072 47.5917 33.3407 47.6118 33.2727 47.6254C33.2059 47.639 33.1379 47.6461 33.0697 47.6465Z" fill="#1438BC"/>
</g>
<defs>
<clipPath id="clip0_3002_981">
<rect width="48" height="54" fill="white"/>
</clipPath>
</defs>
</svg>
