<svg width="63" height="63" viewBox="0 0 63 63" fill="none" xmlns="http://www.w3.org/2000/svg">
<path d="M42.3154 21.7547C42.7584 23.0344 42.9798 24.3756 42.9798 25.7414C42.9798 26.2828 42.5492 26.7135 42.0078 26.7135C41.4664 26.7135 41.0357 26.2828 41.0357 25.7414C41.0357 24.5971 40.8511 23.465 40.482 22.3945C39.4607 19.4291 37.172 17.1158 34.2066 16.0576C33.7021 15.873 33.4314 15.3193 33.616 14.8148C33.8005 14.3104 34.3542 14.0396 34.8587 14.2242C38.3779 15.4793 41.0972 18.2232 42.3154 21.7547ZM46.7328 26.652C46.499 30.9832 44.5548 34.9576 41.2572 37.8246C38.7101 40.0395 37.2089 43.2141 37.049 46.6225C40.2236 46.4379 41.9339 50.4369 39.633 52.5779C41.8724 54.6451 40.322 58.5703 37.2335 58.5334H36.2C36.2984 60.8836 34.4158 62.877 32.0533 62.877H24.7074C22.3449 62.8893 20.4623 60.8836 20.5607 58.5334H19.5271C16.4386 58.5703 14.8882 54.6451 17.1277 52.5779C15.1589 50.8184 16.1064 47.3115 18.6658 46.7455C18.1613 46.2041 17.7552 45.5643 17.4845 44.8506C12.8457 45.1951 9.32651 40.4209 10.8523 36.102C5.00757 33.4564 5.00757 24.8801 10.8523 22.2346C9.32651 17.9279 12.8457 13.1537 17.4845 13.4859C19.6994 7.6166 28.3742 9.11777 28.448 15.4301V42.9064C28.448 44.3338 27.9189 45.6258 27.0453 46.6225H29.7769V11.9848C29.7523 10.742 30.9089 9.65918 32.1517 9.79453C40.5804 10.3975 47.348 18.2109 46.7328 26.652ZM20.9052 39.8426C21.1021 40.3471 20.8437 40.9008 20.3392 41.0977C20.0808 41.1961 19.8593 41.3314 19.6871 41.516C18.9488 42.2543 19.1457 43.4725 19.1703 43.6201C20.0931 48.0006 26.4423 47.3977 26.5285 42.9188V15.4424C26.5039 11.468 21.0775 10.3236 19.4533 13.9166C20.7576 14.175 24.6212 17.4727 21.8527 18.0879C20.9175 18.0633 20.733 16.8328 19.9824 16.4145C16.3402 13.5229 11.1476 17.485 12.7349 21.6932C14.5683 21.4225 16.4755 22.173 17.6568 23.5881C18.0013 23.9941 17.9521 24.6094 17.5337 24.9539C17.1277 25.2984 16.5125 25.2492 16.1679 24.8309C15.9095 24.5232 15.3435 23.9695 14.4453 23.7111C13.5716 23.4527 12.8087 23.6127 12.4396 23.7234C7.41929 25.2 7.01323 32.3367 11.7875 34.3916C12.4396 33.3457 16.2787 30.4172 16.9554 32.4598C17.0908 32.9766 16.7709 33.5057 16.2541 33.641C10.7292 35.0068 11.4921 42.7711 17.1892 42.9188C17.2138 42.1066 17.4353 41.0115 18.3089 40.1379C18.9365 39.4857 20.3884 38.6367 20.9052 39.8426ZM34.2681 58.5334H22.5171C22.4187 59.8131 23.4277 60.9328 24.7197 60.9328H32.0656C33.3576 60.9451 34.3542 59.8131 34.2681 58.5334ZM38.7593 55.0758C38.7593 54.2391 38.0826 53.55 37.2335 53.55H19.5517C18.715 53.55 18.0259 54.2268 18.0259 55.0758C18.0259 55.9125 18.7027 56.6016 19.5517 56.6016H37.2459C38.0703 56.5893 38.7593 55.9125 38.7593 55.0758ZM19.5517 48.5666C17.546 48.6158 17.546 51.5566 19.5517 51.6059H37.2459C38.0826 51.6059 38.7716 50.9291 38.7716 50.0801C38.7716 49.2434 38.0949 48.5543 37.2459 48.5543H19.5517V48.5666ZM31.9794 11.7264C31.8072 11.7387 31.7334 11.8002 31.7087 11.9848V46.6225H35.0802C35.2525 42.648 37.0121 38.932 39.9775 36.3604C49.3414 28.35 44.198 12.723 31.9794 11.7264ZM44.481 13.5229L48.9722 9.03164C49.8582 8.12109 48.5169 6.76758 47.5941 7.65352L43.1029 12.1447C42.2169 13.0676 43.5705 14.4088 44.481 13.5229ZM55.5552 24.917H49.206C47.9263 24.9416 47.9263 26.8365 49.206 26.8611H55.5552C56.8349 26.8365 56.8349 24.9416 55.5552 24.917ZM44.481 38.243C43.5705 37.357 42.2169 38.6982 43.1029 39.6211L47.5941 44.1123C48.5169 44.9982 49.8582 43.657 48.9722 42.7342L44.481 38.243ZM31.721 7.43203V1.08281C31.6964 -0.196875 29.8015 -0.196875 29.7769 1.08281V7.43203C29.8015 8.71172 31.6964 8.71172 31.721 7.43203Z" fill="#1438BC"/>
</svg>
