<svg width="22" height="18" viewBox="0 0 22 18" fill="none" xmlns="http://www.w3.org/2000/svg">
<path d="M5.61477 6.9605C6.12148 4.35858 8.37538 2.48596 10.9911 2.48861C14.0128 2.49165 16.4631 4.97499 16.46 8.0392V8.03935C16.46 8.46992 16.8052 8.82214 17.235 8.82214C18.5309 8.82214 19.5847 9.88645 19.5847 11.2033C19.5847 12.5201 18.5309 13.5844 17.235 13.5844H14.1103H13.9603V13.7344V15V15.15H14.1103L17.2344 15.15C17.2345 15.15 17.2345 15.15 17.2346 15.15H17.235V15C19.0759 15.0074 20.6499 13.6604 20.9495 11.8211C21.2864 9.75214 19.9032 7.79838 17.8599 7.45719L5.61477 6.9605ZM5.61477 6.9605C5.55142 7.28914 5.28763 7.54202 4.95704 7.58677C3.33238 7.82141 2.19994 9.34614 2.4319 10.9957C2.64015 12.4766 3.88809 13.5768 5.36165 13.5844H7.86099H8.01099V13.7344V15V15.15H7.86099L5.36127 15.15L5.36081 15.15C2.86022 15.1423 0.842436 13.084 0.850021 10.5566C0.856224 8.48309 2.23784 6.67512 4.21291 6.14455C5.19303 2.38854 8.97868 0.116194 12.7144 1.06573C15.6184 1.80389 17.7354 4.32181 18.0002 7.33033L5.61477 6.9605Z" fill="#85888E" stroke="#85888E" stroke-width="0.3"/>
<path d="M11.4682 8.77943L11.4685 8.77974L13.7252 11.0365L13.8313 11.1425L13.7252 11.2486L12.9297 12.0441L12.8239 12.1499L12.7178 12.0443L11.676 11.0071V17.3474V17.4974H11.526H10.3977H10.2477V17.3474V11.0082L9.21178 12.0441L9.10572 12.1501L8.99965 12.0441L8.20416 11.2486L8.09809 11.1425L8.20416 11.0365L10.4609 8.77974L10.4612 8.77943C10.7398 8.50251 11.1896 8.50251 11.4682 8.77943Z" fill="#85888E" stroke="#85888E" stroke-width="0.3"/>
</svg>
