<svg width="23" height="23" viewBox="0 0 23 23" fill="none" xmlns="http://www.w3.org/2000/svg">
<path d="M23 11.5C23 12.4813 21.7944 13.2902 21.5529 14.1948C21.3037 15.1302 21.9343 16.4335 21.4609 17.2519C20.9798 18.0837 19.5327 18.1834 18.8581 18.8581C18.1834 19.5327 18.0837 20.9798 17.2519 21.4609C16.4335 21.9343 15.1302 21.3037 14.1948 21.5529C13.2902 21.7944 12.4813 23 11.5 23C10.5187 23 9.70983 21.7944 8.80517 21.5529C7.86983 21.3037 6.5665 21.9343 5.74808 21.4609C4.91625 20.9798 4.81658 19.5327 4.14192 18.8581C3.46725 18.1834 2.02017 18.0837 1.53908 17.2519C1.06567 16.4335 1.69625 15.1302 1.44708 14.1948C1.20558 13.2902 0 12.4813 0 11.5C0 10.5187 1.20558 9.70983 1.44708 8.80517C1.69625 7.86983 1.06567 6.5665 1.53908 5.74808C2.02017 4.91625 3.46725 4.81658 4.14192 4.14192C4.81658 3.46725 4.91625 2.02017 5.74808 1.53908C6.5665 1.06567 7.86983 1.69625 8.80517 1.44708C9.70983 1.20558 10.5187 0 11.5 0C12.4813 0 13.2902 1.20558 14.1948 1.44708C15.1302 1.69625 16.4335 1.06567 17.2519 1.53908C18.0837 2.02017 18.1834 3.46725 18.8581 4.14192C19.5327 4.81658 20.9798 4.91625 21.4609 5.74808C21.9343 6.5665 21.3037 7.86983 21.5529 8.80517C21.7944 9.70983 23 10.5187 23 11.5Z" fill="#FF002E"/>
<path d="M16.0085 8.14631L12.9118 11.2433L16.0085 14.3401C16.4691 14.8009 16.4691 15.5473 16.0085 16.0081C15.7784 16.2382 15.4766 16.3534 15.175 16.3534C14.8729 16.3534 14.5712 16.2384 14.3412 16.0081L11.2439 12.9109L8.1468 16.0081C7.91668 16.2382 7.61492 16.3534 7.31307 16.3534C7.0113 16.3534 6.70974 16.2384 6.47942 16.0081C6.01881 15.5475 6.01881 14.801 6.47942 14.3401L9.57599 11.2433L6.47925 8.14631C6.01864 7.6857 6.01864 6.93911 6.47925 6.4785C6.93977 6.01824 7.68592 6.01824 8.14662 6.4785L11.2439 9.57547L14.3409 6.4785C14.8016 6.01824 15.5479 6.01824 16.0083 6.4785C16.4691 6.93911 16.4691 7.6857 16.0085 8.14631Z" fill="white"/>
</svg>
