<svg width="28" height="28" viewBox="0 0 28 28" fill="none" xmlns="http://www.w3.org/2000/svg">
<path d="M14.0002 17.3601C12.9385 17.3601 12.0752 16.4967 12.0752 15.4351V12.5534C12.0752 11.4918 12.9385 10.6284 14.0002 10.6284C15.0619 10.6284 15.9252 11.4918 15.9252 12.5534V15.4351C15.9252 16.4967 15.0619 17.3601 14.0002 17.3601Z" stroke="white" stroke-width="1.17" stroke-linecap="round"/>
<path d="M19.8103 15.7149C19.577 18.7249 17.057 21.0816 14.0003 21.0816C10.7803 21.0816 8.16699 18.4682 8.16699 15.2482V12.7515C8.16699 9.53155 10.7803 6.91821 14.0003 6.91821C17.022 6.91821 19.507 9.21653 19.7987 12.1565" stroke="white" stroke-width="1.17" stroke-linecap="round"/>
<path d="M17.5 2.33325H19.8333C23.3333 2.33325 25.6667 4.66659 25.6667 8.16659V10.4999" stroke="white" stroke-width="1.17" stroke-miterlimit="10" stroke-linecap="round" stroke-linejoin="round"/>
<path d="M2.33301 10.4999V8.16659C2.33301 4.66659 4.66634 2.33325 8.16634 2.33325H10.4997" stroke="white" stroke-width="1.17" stroke-miterlimit="10" stroke-linecap="round" stroke-linejoin="round"/>
<path d="M17.5 25.6667H19.8333C23.3333 25.6667 25.6667 23.3333 25.6667 19.8333V17.5" stroke="white" stroke-width="1.17" stroke-miterlimit="10" stroke-linecap="round" stroke-linejoin="round"/>
<path d="M2.33301 17.5V19.8333C2.33301 23.3333 4.66634 25.6667 8.16634 25.6667H10.4997" stroke="white" stroke-width="1.17" stroke-miterlimit="10" stroke-linecap="round" stroke-linejoin="round"/>
</svg>
