<svg width="14" height="14" viewBox="0 0 14 14" fill="none" xmlns="http://www.w3.org/2000/svg">
<g clip-path="url(#clip0_3248_1034)">
<path d="M6.72395 6.70978C6.72378 6.85676 6.68004 7.00039 6.59826 7.12251C6.51647 7.24463 6.40032 7.33978 6.26448 7.3959C6.12864 7.45203 5.97921 7.46662 5.83508 7.43784C5.69095 7.40906 5.55857 7.3382 5.45471 7.23421C5.35084 7.13022 5.28014 6.99776 5.25153 6.8536C5.22291 6.70943 5.23768 6.56002 5.29397 6.42425C5.35025 6.28847 5.44552 6.17243 5.56774 6.09079C5.68996 6.00915 5.83364 5.96558 5.98062 5.96558C6.07831 5.96558 6.17505 5.98484 6.26529 6.02225C6.35553 6.05966 6.4375 6.11449 6.50654 6.18361C6.57557 6.25273 6.63032 6.33477 6.66762 6.42506C6.70493 6.51534 6.72406 6.61209 6.72395 6.70978Z" fill="white" stroke="#1337BB" stroke-width="0.173674"/>
<path d="M11.4692 8.33974C11.5791 8.23814 11.6468 8.09895 11.6588 7.94978C11.6709 7.80061 11.6264 7.65236 11.5343 7.53443C11.4421 7.4165 11.3091 7.33751 11.1614 7.31312C11.0137 7.28873 10.8623 7.32073 10.7372 7.40277C10.5351 7.18336 10.3134 6.96366 10.072 6.74367C10.3384 6.49713 10.5912 6.23623 10.8292 5.96214C11.7193 4.93486 12.0267 4.05173 11.6976 3.47774C11.2634 2.73094 9.84534 2.6962 8.02697 3.26325C7.92278 2.76015 7.77757 2.26642 7.59279 1.78702C7.66178 1.75013 7.72283 1.70001 7.77245 1.63953C7.82207 1.57904 7.8593 1.50938 7.88199 1.43451C7.90469 1.35964 7.91243 1.28103 7.90475 1.20317C7.89706 1.12531 7.87412 1.04973 7.83723 0.98074C7.80034 0.911748 7.75022 0.850698 7.68974 0.801075C7.62926 0.751453 7.55959 0.714229 7.48472 0.691531C7.40985 0.668832 7.33124 0.661102 7.25338 0.668782C7.17552 0.676463 7.09994 0.699403 7.03095 0.736294C6.91998 0.552662 6.76737 0.397714 6.58544 0.283972C6.40352 0.17023 6.19738 0.100886 5.9837 0.081543C5.10925 0.081543 4.35898 1.32592 3.94477 3.22591C3.5999 3.11809 3.24943 3.0291 2.89491 2.95932C1.56022 2.69881 0.642356 2.87769 0.310639 3.45255C-0.123546 4.19935 0.559861 5.4498 1.96054 6.73933C1.65363 7.01356 1.36364 7.30616 1.09217 7.61552C0.201224 8.6428 -0.106178 9.52593 0.223802 10.0991C0.657987 10.8528 1.96054 10.7555 2.80894 10.5914C3.19976 10.514 3.58569 10.4137 3.96474 10.291C4.0707 10.7713 4.21592 11.2421 4.39892 11.6986C4.27963 11.784 4.19597 11.9103 4.16395 12.0535C4.13193 12.1967 4.15379 12.3466 4.22535 12.4747C4.29691 12.6028 4.41314 12.7 4.55185 12.7478C4.69056 12.7955 4.84201 12.7905 4.97726 12.7337C5.08801 12.9021 5.23579 13.0431 5.40931 13.1457C5.58283 13.2483 5.77751 13.31 5.97849 13.3259C6.84078 13.3259 7.58237 12.1102 7.99918 10.2528C8.38998 10.3805 8.78813 10.4846 9.19146 10.5645C10.0442 10.7295 11.3415 10.825 11.7757 10.0739C11.8857 9.78349 11.9151 9.46877 11.8608 9.16303C11.8066 8.8573 11.6706 8.57193 11.4675 8.33713L11.4692 8.33974ZM11.3824 7.90555C11.3824 7.96948 11.3634 8.03197 11.3278 8.08511C11.2923 8.13825 11.2418 8.17966 11.1827 8.20408C11.1237 8.2285 11.0587 8.23485 10.996 8.22232C10.9333 8.20978 10.8757 8.17893 10.8306 8.13366C10.7854 8.0884 10.7548 8.03076 10.7424 7.96804C10.73 7.90532 10.7365 7.84034 10.7611 7.78133C10.7857 7.72232 10.8272 7.67193 10.8805 7.63654C10.9337 7.60115 10.9963 7.58235 11.0602 7.58252C11.1026 7.58263 11.1446 7.5911 11.1837 7.60744C11.2229 7.62378 11.2584 7.64767 11.2884 7.67775C11.3183 7.70783 11.342 7.7435 11.3581 7.78274C11.3742 7.82197 11.3825 7.864 11.3824 7.90642V7.90555ZM11.4579 3.61581C11.7184 4.07431 11.418 4.86365 10.6225 5.78152C10.3852 6.0532 10.133 6.3115 9.86705 6.55524C9.37526 6.13101 8.85758 5.73775 8.31701 5.37773C8.27506 4.76231 8.19677 4.14991 8.08255 3.54373C9.76545 3.01229 11.0967 2.99492 11.457 3.61928L11.4579 3.61581ZM6.02972 9.14472C5.29818 8.78405 4.5915 8.375 3.91437 7.92032C3.88832 7.52694 3.87356 7.12315 3.87356 6.71068C3.87356 6.32946 3.88572 5.95606 3.9083 5.59135C4.58747 5.13865 5.29652 4.73248 6.03059 4.37563C6.72691 4.7194 7.40093 5.10659 8.04868 5.5349C8.10233 6.35006 8.10059 7.16792 8.04347 7.98284C7.39702 8.41339 6.72415 8.8029 6.02885 9.14906L6.02972 9.14472ZM8.01568 8.32498C7.96889 8.85124 7.89469 9.37471 7.79338 9.89325C7.29974 9.7192 6.81541 9.51979 6.34233 9.29581C6.91596 9.0024 7.47418 8.67981 8.01482 8.32932L8.01568 8.32498ZM5.71798 9.29668C5.21675 9.53623 4.70277 9.74814 4.17836 9.93146C4.06922 9.38105 3.99066 8.82502 3.94303 8.26593C4.51575 8.64086 5.10826 8.98465 5.71798 9.29581V9.29668ZM3.20231 6.07329C3.20231 6.12482 3.18703 6.17519 3.15841 6.21803C3.12978 6.26087 3.0891 6.29426 3.04149 6.31397C2.99389 6.33369 2.94151 6.33885 2.89098 6.3288C2.84044 6.31875 2.79402 6.29394 2.75759 6.2575C2.72116 6.22107 2.69635 6.17465 2.68629 6.12412C2.67624 6.07358 2.6814 6.0212 2.70112 5.9736C2.72083 5.926 2.75422 5.88531 2.79707 5.85669C2.83991 5.82806 2.89027 5.81278 2.9418 5.81278C3.01089 5.81278 3.07715 5.84023 3.12601 5.88908C3.17486 5.93794 3.20231 6.0042 3.20231 6.07329ZM2.64829 6.51703C2.74008 6.57986 2.84931 6.6122 2.9605 6.60947C3.0717 6.60674 3.17921 6.56907 3.2678 6.50181C3.35639 6.43455 3.42156 6.34111 3.45407 6.23474C3.48658 6.12837 3.48478 6.01446 3.44893 5.90917L3.6226 5.78847C3.60784 6.08979 3.60002 6.39633 3.60002 6.71241C3.60002 7.05976 3.60958 7.39322 3.62694 7.72233C3.19391 7.41751 2.7771 7.09026 2.37823 6.74194C2.46622 6.66726 2.55624 6.59229 2.64829 6.51703ZM3.93348 5.24313C3.97786 4.68957 4.05207 4.1388 4.15578 3.59323C4.68648 3.77366 5.20658 3.98385 5.71363 4.2228C5.1023 4.53026 4.50804 4.87058 3.93348 5.24226V5.24313ZM6.34581 4.22367C6.82384 4.00155 7.3131 3.80445 7.81162 3.63317C7.90759 4.14685 7.97744 4.66506 8.02089 5.18582C7.47928 4.83679 6.92019 4.51565 6.34581 4.22367ZM8.33785 5.72595C8.79697 6.04012 9.23848 6.3793 9.66037 6.74194C9.2381 7.11404 8.7951 7.46195 8.3335 7.78398C8.37237 7.09856 8.37382 6.41153 8.33785 5.72595ZM7.61449 1.27642C7.61449 1.34035 7.59553 1.40284 7.55999 1.45598C7.52446 1.50912 7.47396 1.55052 7.41488 1.57495C7.3558 1.59937 7.29081 1.60572 7.22812 1.59318C7.16543 1.58065 7.10788 1.54979 7.06274 1.50453C7.01759 1.45927 6.9869 1.40163 6.97453 1.33891C6.96216 1.27619 6.96869 1.21121 6.99327 1.1522C7.01785 1.09319 7.05939 1.0428 7.11263 1.0074C7.16586 0.972014 7.2284 0.953214 7.29233 0.953386C7.37785 0.953616 7.4598 0.987751 7.52019 1.04831C7.58058 1.10886 7.6145 1.1909 7.61449 1.27642ZM5.98196 0.362895C6.15507 0.382053 6.32126 0.441623 6.46711 0.536801C6.61297 0.631979 6.73442 0.760101 6.82168 0.910836C6.73942 1.01498 6.69448 1.14371 6.69403 1.27642C6.69426 1.43518 6.75748 1.58736 6.86982 1.69954C6.98217 1.81172 7.13444 1.87473 7.2932 1.87473C7.30449 1.87473 7.31578 1.87473 7.32707 1.87473C7.512 2.35645 7.65722 2.8525 7.76125 3.3579C7.17136 3.55942 6.59428 3.79663 6.0332 4.06823C5.44383 3.78097 4.83677 3.53153 4.2157 3.32143C4.59518 1.55951 5.25774 0.368973 5.98543 0.368973L5.98196 0.362895ZM0.547705 3.59583C0.904605 2.97756 2.13856 3.10086 2.84107 3.23546C3.19306 3.30508 3.54093 3.39408 3.88311 3.50205C3.76182 4.14214 3.68061 4.78917 3.63997 5.43938C3.52419 5.51812 3.41014 5.59743 3.29783 5.67732C3.20098 5.58955 3.07511 5.54068 2.94441 5.54011C2.80284 5.54034 2.66713 5.59668 2.56703 5.69679C2.46693 5.79689 2.41059 5.93259 2.41036 6.07416C2.41093 6.15599 2.43056 6.23656 2.46767 6.30949C2.36607 6.39633 2.26708 6.47535 2.17069 6.55871C0.868133 5.36644 0.186463 4.22193 0.547705 3.5967V3.59583ZM2.75944 10.3257C1.56543 10.5558 0.730061 10.4247 0.465209 9.9662C0.200356 9.5077 0.506023 8.72008 1.30145 7.80135C1.57139 7.49445 1.85994 7.20445 2.16548 6.93298C2.63559 7.34395 3.13032 7.72587 3.64691 8.07662C3.6919 8.73222 3.77891 9.38426 3.90742 10.0287C3.53053 10.1517 3.1466 10.2521 2.75771 10.3292L2.75944 10.3257ZM4.43539 12.1857C4.43522 12.1218 4.45402 12.0593 4.48941 12.006C4.5248 11.9528 4.57519 11.9113 4.63421 11.8867C4.69322 11.8621 4.7582 11.8556 4.82091 11.8679C4.88363 11.8803 4.94128 11.911 4.98654 11.9562C5.0318 12.0013 5.06266 12.0589 5.07519 12.1215C5.08773 12.1842 5.08138 12.2492 5.05695 12.3083C5.03253 12.3674 4.99113 12.4179 4.93799 12.4534C4.88485 12.4889 4.82236 12.5079 4.75843 12.5079C4.67291 12.5079 4.59087 12.474 4.53032 12.4136C4.46976 12.3532 4.43562 12.2713 4.43539 12.1857ZM5.98543 13.0541C5.82797 13.039 5.67594 12.9887 5.54064 12.9067C5.40533 12.8248 5.29023 12.7134 5.2039 12.5809C5.28863 12.4895 5.34238 12.3737 5.3575 12.25C5.37262 12.1264 5.34834 12.001 5.28812 11.892C5.2279 11.7829 5.13481 11.6956 5.02209 11.6424C4.90937 11.5893 4.78277 11.5731 4.6603 11.5961C4.4833 11.145 4.34276 10.6804 4.24001 10.2067C4.85357 9.99374 5.45332 9.74288 6.0358 9.45559C6.58979 9.72654 7.15927 9.9646 7.74128 10.1685C7.36006 11.8922 6.70965 13.055 5.98804 13.055L5.98543 13.0541ZM11.543 9.94014C11.2825 10.3978 10.4428 10.528 9.24963 10.2979C8.84794 10.2184 8.4515 10.1143 8.06257 9.98617C8.18359 9.37326 8.26711 8.75354 8.31266 8.13046C8.85701 7.76312 9.37735 7.3614 9.87052 6.92777C10.118 7.15181 10.3455 7.37672 10.5505 7.60076C10.4947 7.69208 10.4646 7.79681 10.4636 7.90382C10.4638 8.06243 10.527 8.21448 10.6391 8.32663C10.7513 8.43878 10.9033 8.50189 11.0619 8.50212C11.1209 8.50158 11.1794 8.49222 11.2356 8.47434C11.6238 9.08827 11.7366 9.60322 11.543 9.94014Z" fill="#1337BB" stroke="#1337BB" stroke-width="0.173674"/>
<path d="M5.98003 5.82764C5.80575 5.82764 5.63536 5.87931 5.49044 5.97612C5.34551 6.07293 5.23254 6.21054 5.1658 6.37155C5.09907 6.53255 5.08157 6.70973 5.11551 6.88068C5.14945 7.05163 5.2333 7.20867 5.35648 7.33197C5.47965 7.45527 5.63663 7.53928 5.80754 7.57339C5.97846 7.60749 6.15565 7.59017 6.31672 7.52359C6.47779 7.45701 6.6155 7.34417 6.71246 7.19934C6.80941 7.05451 6.86126 6.88419 6.86143 6.70991C6.8612 6.47614 6.76828 6.252 6.60306 6.08661C6.43784 5.92123 6.2138 5.8281 5.98003 5.82764ZM5.98003 7.31516C5.85981 7.31516 5.74229 7.27951 5.64232 7.21271C5.54236 7.14592 5.46444 7.05099 5.41843 6.93992C5.37243 6.82885 5.3604 6.70663 5.38385 6.58872C5.40731 6.47081 5.4652 6.36249 5.55021 6.27748C5.63522 6.19247 5.74353 6.13458 5.86144 6.11113C5.97936 6.08767 6.10157 6.0997 6.21264 6.14571C6.32371 6.19172 6.41865 6.26964 6.48544 6.3696C6.55223 6.46956 6.58789 6.58707 6.58789 6.7073C6.58789 6.86851 6.52384 7.02313 6.40985 7.13712C6.29585 7.25112 6.14125 7.31516 5.98003 7.31516Z" fill="#1337BB" stroke="#1337BB" stroke-width="0.173674"/>
</g>
<defs>
<clipPath id="clip0_3248_1034">
<rect width="12" height="13.4189" fill="white"/>
</clipPath>
</defs>
</svg>
