<svg width="70" height="61" viewBox="0 0 70 61" fill="none" xmlns="http://www.w3.org/2000/svg">
<path d="M1.36719 57.6953C3.05361 57.6953 3.82703 58.2004 4.80635 58.8399C5.8908 59.5483 7.24049 60.4297 9.7408 60.4297C12.2413 60.4297 13.5909 59.5483 14.6754 58.8401C14.8114 58.7512 14.9435 58.6653 15.0746 58.5826C16.0325 57.9662 16.8515 57.6953 18.1147 57.6953C19.8014 57.6953 20.5748 58.2005 21.5541 58.8401C22.6386 59.5483 23.9883 60.4297 26.4886 60.4297C28.9889 60.4297 30.3384 59.5483 31.4229 58.8401C32.4022 58.2005 33.1756 57.6953 34.8622 57.6953C36.5488 57.6953 37.3222 58.2003 38.3015 58.8401C39.3859 59.5483 40.7356 60.4297 43.2361 60.4297C45.7364 60.4297 47.0861 59.5483 48.1707 58.8401C49.15 58.2005 49.9235 57.6953 51.6102 57.6953C53.0544 57.6953 53.8293 58.0661 54.6369 58.574C55.8238 59.3111 57.1525 60.4297 59.9848 60.4297C62.4853 60.4297 63.8351 59.5483 64.9197 58.8401C65.899 58.2005 66.6725 57.6953 68.3594 57.6953C69.1143 57.6953 69.7266 57.0831 69.7266 56.3281C69.7266 55.5732 69.1143 54.9609 68.3594 54.9609C65.8589 54.9609 64.5091 55.8424 63.4245 56.5506C62.4452 57.1901 61.6716 57.6953 59.9848 57.6953C58.5747 57.6953 57.8028 57.3418 57.0154 56.8524C57.953 54.2351 62.2465 42.2514 62.959 40.2629C63.8853 37.6771 62.7376 34.7885 60.2894 33.5437L58.7891 32.7806V17.3633C58.7891 15.4786 57.2558 13.9453 55.3711 13.9453H51.9531V10.5273C51.9531 8.64268 50.4198 7.10938 48.5352 7.10938H39.6484V2.73438C39.6484 1.22664 38.4218 0 36.9141 0H32.8125C31.3048 0 30.0781 1.22664 30.0781 2.73438V7.10938H21.1914C19.3067 7.10938 17.7734 8.64268 17.7734 10.5273V13.9453H14.3555C12.4708 13.9453 10.9375 15.4786 10.9375 17.3633V32.7806L9.43715 33.5435C6.98879 34.7884 5.84117 37.6771 6.76771 40.2629L12.7113 56.8515C11.9235 57.3413 11.1516 57.6953 9.7408 57.6953C8.05424 57.6953 7.28082 57.1901 6.3015 56.5506C5.21705 55.8424 3.86736 54.9609 1.36719 54.9609C0.61209 54.9609 0 55.5732 0 56.3281C0 57.0831 0.61209 57.6953 1.36719 57.6953ZM29.9277 56.5507C28.9484 57.1903 28.175 57.6953 26.4886 57.6953C24.802 57.6953 24.0286 57.1903 23.0493 56.5506C21.9648 55.8424 20.6151 54.9609 18.1147 54.9609C16.8699 54.9609 15.9105 55.1796 15.1268 55.4863L11.1006 44.2493L33.4961 32.8609V55.0594C31.835 55.3075 30.7955 55.9839 29.9277 56.5507ZM46.6755 56.5506C45.6962 57.1901 44.9226 57.6953 43.2361 57.6953C41.5494 57.6953 40.776 57.1901 39.7966 56.5506C38.9293 55.9841 37.8904 55.3081 36.2305 55.0596V32.8609L58.6262 44.2489L54.5999 55.487C53.8158 55.1798 52.8559 54.9609 51.6102 54.9609C49.1098 54.9609 47.7601 55.8424 46.6755 56.5506ZM32.8125 2.73438H36.9141V7.10938H32.8125V2.73438ZM20.5078 10.5273C20.5078 10.1504 20.8145 9.84375 21.1914 9.84375H48.5352C48.9121 9.84375 49.2188 10.1504 49.2188 10.5273V13.9453H20.5078V10.5273ZM13.6719 17.3633C13.6719 16.9863 13.9785 16.6797 14.3555 16.6797H55.3711C55.748 16.6797 56.0547 16.9863 56.0547 17.3633V31.3902L37.342 21.875C35.79 21.086 33.9366 21.086 32.3846 21.875L13.6719 31.3902V17.3633ZM10.6765 35.981L33.6239 24.3124C34.4002 23.918 35.3268 23.9177 36.1028 24.3124L59.0502 35.981C60.2742 36.6034 60.848 38.0476 60.385 39.3404L59.5561 41.654L36.4123 29.8858C35.9424 29.6468 35.4283 29.5247 34.9128 29.5174C34.8962 29.5169 34.88 29.5148 34.8633 29.5148C34.8465 29.5148 34.8302 29.5168 34.8135 29.5174C34.298 29.525 33.7839 29.6471 33.314 29.8859L10.1709 41.6544L9.34186 39.3405C8.87852 38.0476 9.45246 36.6034 10.6765 35.981Z" fill="url(#paint0_linear_1661_306)"/>
<defs>
<linearGradient id="paint0_linear_1661_306" x1="34.8633" y1="-2.20115e-08" x2="34.8616" y2="62.379" gradientUnits="userSpaceOnUse">
<stop stop-color="#BDA6FF"/>
<stop offset="1" stop-color="#070430"/>
</linearGradient>
</defs>
</svg>
