<svg width="57" height="66" viewBox="0 0 57 66" fill="none" xmlns="http://www.w3.org/2000/svg">
<path fill-rule="evenodd" clip-rule="evenodd" d="M30.0837 4.66666C30.0837 5.44866 29.449 6.08332 28.667 6.08332C27.885 6.08332 27.2504 5.44866 27.2504 4.66666V1.83332C27.2504 1.05132 27.885 0.416656 28.667 0.416656C29.449 0.416656 30.0837 1.05132 30.0837 1.83332V4.66666ZM52.7497 27.3333H55.583C56.365 27.3333 56.9997 27.968 56.9997 28.75C56.9997 29.532 56.365 30.1667 55.583 30.1667H52.7497C51.9677 30.1667 51.333 29.532 51.333 28.75C51.333 27.968 51.9677 27.3333 52.7497 27.3333ZM4.58301 27.3333H1.74967C0.967675 27.3333 0.333008 27.968 0.333008 28.75C0.333008 29.532 0.967675 30.1667 1.74967 30.1667H4.58301C5.36501 30.1667 5.99968 29.532 5.99968 28.75C5.99968 27.968 5.36501 27.3333 4.58301 27.3333ZM11.6369 13.1369C11.2742 13.1369 10.9115 12.9981 10.6353 12.7218L8.63211 10.7187C8.0782 10.1647 8.0782 9.26941 8.63211 8.7155C9.18603 8.16158 10.0814 8.16158 10.6353 8.7155L12.6384 10.7187C13.1924 11.2726 13.1924 12.1679 12.6384 12.7218C12.3622 12.9981 11.9995 13.1369 11.6369 13.1369ZM48.7012 46.7813L46.698 44.7782C46.1441 44.2243 45.2488 44.2243 44.6949 44.7782C44.1409 45.3321 44.1409 46.2274 44.6949 46.7813L46.698 48.7845C46.9743 49.0608 47.337 49.1996 47.6996 49.1996C48.0623 49.1996 48.4249 49.0608 48.7012 48.7845C49.2551 48.2306 49.2551 47.3353 48.7012 46.7813ZM44.6949 10.7187L46.698 8.7155C47.2519 8.16158 48.1473 8.16158 48.7012 8.7155C49.2551 9.26941 49.2551 10.1647 48.7012 10.7187L46.698 12.7218C46.4218 12.9981 46.0591 13.1369 45.6964 13.1369C45.3338 13.1369 44.9711 12.9981 44.6949 12.7218C44.1409 12.1679 44.1409 11.2726 44.6949 10.7187ZM10.6353 44.7782L8.63211 46.7813C8.0782 47.3353 8.0782 48.2306 8.63211 48.7845C8.90836 49.0608 9.27103 49.1996 9.6337 49.1996C9.99636 49.1996 10.359 49.0608 10.6353 48.7845L12.6384 46.7813C13.1924 46.2274 13.1924 45.3321 12.6384 44.7782C12.0845 44.2243 11.1892 44.2243 10.6353 44.7782ZM8.83301 28.75C8.83301 17.8133 17.7297 8.91667 28.6663 8.91667C39.603 8.91667 48.4997 17.8133 48.4997 28.75C48.4997 36.2612 45.2343 41.0141 42.4944 43.6774C39.9714 46.1297 38.583 49.3058 38.583 52.6194V55.6667C38.583 57.5112 37.3944 59.0695 35.7497 59.656V59.9167C35.7497 63.0418 33.2082 65.5833 30.083 65.5833H27.2497C24.1245 65.5833 21.583 63.0418 21.583 59.9167V59.656C19.9383 59.0695 18.7497 57.5112 18.7497 55.6667V52.6194C18.7497 49.3058 17.3599 46.1297 14.8383 43.6774C12.0998 41.0141 8.83301 36.2612 8.83301 28.75ZM24.4163 59.9167C24.4163 61.4793 25.6871 62.75 27.2497 62.75H30.083C31.6456 62.75 32.9164 61.4793 32.9164 59.9167H24.4163ZM22.9997 57.0833H34.333C35.1136 57.0833 35.7497 56.4473 35.7497 55.6667V54.25H21.583V55.6667C21.583 56.4473 22.2191 57.0833 22.9997 57.0833ZM30.202 34.8629C30.6015 36.0515 30.7942 37.3081 30.7743 38.5774C32.5381 38.338 34.1899 37.5433 35.4706 36.2626C37.0799 34.6533 37.9398 32.4362 37.869 30.1723C35.591 30.1015 33.3881 30.96 31.7788 32.5708C31.1101 33.2394 30.6001 34.02 30.202 34.8629ZM21.8635 36.2612C23.4743 37.8705 25.6984 38.7403 27.9523 38.661C28.0246 36.4 27.1633 34.1815 25.5525 32.5722C23.9418 30.9628 21.7289 30.11 19.4637 30.1723C19.3914 32.4333 20.2528 34.6504 21.8635 36.2612ZM35.7979 51.4153C36.0968 47.7744 37.7458 44.3418 40.5182 41.6459L40.5154 41.6445C42.8642 39.3608 45.6635 35.2695 45.6635 28.7472C45.6635 19.3731 38.0376 11.7472 28.6635 11.7472C19.2894 11.7472 11.6635 19.3731 11.6635 28.7472C11.6635 35.2695 14.4628 39.3608 16.8117 41.6445C19.5841 44.339 21.2331 47.7716 21.532 51.4138H27.2483V41.4745C24.49 41.3626 21.8352 40.2392 19.8589 38.2615C17.3514 35.7554 16.1968 32.1613 16.7678 28.6466C16.8655 28.0459 17.3373 27.5742 17.9379 27.4764C21.4513 26.9027 25.0468 28.0601 27.5528 30.5676C27.9637 30.9784 28.3235 31.4261 28.6593 31.8893C28.9978 31.4247 29.3619 30.9784 29.7742 30.5662C32.2803 28.0615 35.8729 26.9055 39.3905 27.4778C39.9912 27.5756 40.4629 28.0473 40.5607 28.648C41.133 32.1642 39.9784 35.7597 37.4724 38.2643C35.4876 40.2477 32.8568 41.3683 30.0816 41.4717V51.4153H35.7979Z" fill="url(#paint0_linear_1661_294)"/>
<defs>
<linearGradient id="paint0_linear_1661_294" x1="28.6664" y1="0.416656" x2="28.664" y2="67.6855" gradientUnits="userSpaceOnUse">
<stop stop-color="#BDA6FF"/>
<stop offset="1" stop-color="#070430"/>
</linearGradient>
</defs>
</svg>
