<svg width="47" height="62" viewBox="0 0 47 62" fill="none" xmlns="http://www.w3.org/2000/svg">
<path d="M41.5359 30.0762C39.511 26.8676 37.1834 24.4006 34.7472 22.8092C35.7543 22.01 36.4034 20.7673 36.4034 19.3731C36.4034 17.7537 35.5281 16.3387 34.2325 15.5859L39.7237 4.77443L39.1351 4.01668C34.7827 -1.58745 30.9173 -0.0682024 27.811 1.1528C26.3674 1.72018 25.0038 2.25618 23.6252 2.13605L23.4988 2.12505L23.3724 2.13605C21.9895 2.25655 20.6828 1.71643 19.2987 1.14467C16.3597 -0.0692023 12.7021 -1.58008 8.35545 4.01668L7.78913 4.7458L12.8184 15.5548C11.4934 16.2994 10.5941 17.7316 10.5941 19.3731C10.5941 20.7673 11.2433 22.01 12.2504 22.8092C9.81467 24.4005 7.48743 26.8672 5.46312 30.0753C2.04229 35.4962 0 42.1575 0 47.8941C0 51.929 1.02805 55.3386 2.9729 57.7545C5.24063 60.5713 8.60208 61.9995 12.964 61.9995H34.0371C38.3985 61.9995 41.7597 60.5715 44.0272 57.7553C45.9721 55.3398 47 51.9305 47 47.8962C46.9999 42.1594 44.9572 35.4977 41.5359 30.0762ZM18.1838 3.92318C19.7226 4.55868 21.4622 5.27756 23.499 5.1348C25.5091 5.27506 27.2971 4.57193 28.879 3.95005C31.6466 2.86218 33.5394 2.11855 36.2104 5.14331L31.1989 15.0102H15.8344L11.2552 5.16818C13.8797 2.1458 15.5436 2.83255 18.1838 3.92318ZM14.8975 20.7361C14.1548 20.7361 13.5505 20.1247 13.5505 19.3731C13.5505 18.6343 14.1673 18.0101 14.8975 18.0101H32.1C32.8301 18.0101 33.4469 18.6343 33.4469 19.3731C33.4469 20.1247 32.8428 20.7361 32.1 20.7361H28.4182H18.5792H14.8975ZM41.7376 55.8573C40.0588 57.9423 37.4681 58.9995 34.0371 58.9995H12.964C4.69279 58.9995 2.95663 52.9603 2.95663 47.894C2.95663 42.7846 4.87118 36.5767 7.95297 31.6928C11.144 26.6361 15.0171 23.736 18.5794 23.736H28.4183C36.3183 23.736 44.0434 37.5702 44.0434 47.8961C44.0434 51.2309 43.2459 53.9838 41.7376 55.8573ZM20.6448 38.3967C20.6448 39.9294 21.2795 40.2692 23.8018 40.8071C25.9948 41.2749 29.3091 41.9816 29.3091 46.1564C29.3091 48.65 27.4671 50.7521 24.977 51.3592V54.1004H22.0205V51.3592C19.5303 50.7522 17.6883 48.65 17.6883 46.1564H20.6448C20.6448 47.4687 21.9252 48.5364 23.4988 48.5364C25.0724 48.5364 26.3527 47.4687 26.3527 46.1564C26.3527 44.6214 25.7177 44.2811 23.1938 43.7429C21.0015 43.2754 17.6884 42.5687 17.6884 38.3966C17.6884 35.9031 19.5304 33.8008 22.0206 33.1938V30.4527H24.9771V33.1938C27.4672 33.8008 29.3092 35.9031 29.3092 38.3966H26.3527C26.3527 37.0844 25.0724 36.0167 23.4988 36.0167C21.9252 36.0169 20.6448 37.0845 20.6448 38.3967Z" fill="url(#paint0_linear_1661_338)"/>
<defs>
<linearGradient id="paint0_linear_1661_338" x1="23.5" y1="-0.000488304" x2="23.4974" y2="63.9995" gradientUnits="userSpaceOnUse">
<stop stop-color="#BDA6FF"/>
<stop offset="1" stop-color="#070430"/>
</linearGradient>
</defs>
</svg>
