<svg width="59" height="64" viewBox="0 0 59 64" fill="none" xmlns="http://www.w3.org/2000/svg">
<path d="M34.27 59.2221C34.2681 58.2054 33.9422 57.2157 33.3396 56.3968C32.737 55.578 31.8891 54.9725 30.919 54.6684L30.919 34.4683L32.8044 34.4683L35.8138 34.4683L35.8138 48.0512C35.8146 48.3326 35.8988 48.6075 36.0557 48.841L40.3743 55.3159C40.0408 55.9779 39.8677 56.7091 39.8691 57.4504C39.8675 58.4964 40.2088 59.514 40.8407 60.3473C41.4727 61.1807 42.3605 61.7838 43.368 62.0643C44.3755 62.3448 45.4472 62.2872 46.4188 61.9002C47.3904 61.5133 48.2084 60.8185 48.7474 59.9221C49.2863 59.0258 49.5165 57.9775 49.4027 56.9377C49.2889 55.898 48.8374 54.9243 48.1173 54.1658C47.3972 53.4073 46.4483 52.9059 45.416 52.7384C44.3837 52.5708 43.3249 52.7464 42.4019 53.2382L38.6597 47.6386L38.6597 34.4683L43.832 34.4683L43.832 41.3487C43.8327 41.5763 43.888 41.8004 43.9932 42.0022C44.0984 42.204 44.2505 42.3776 44.4367 42.5085L48.6201 45.504C48.8077 46.6119 49.3813 47.6178 50.2392 48.3434C51.0971 49.0691 52.1841 49.4679 53.3077 49.4691C54.4313 49.4703 55.5192 49.0739 56.3786 48.3501C57.2381 47.6263 57.8139 46.6217 58.0039 45.5142C58.194 44.4066 57.9861 43.2676 57.4171 42.2986C56.8482 41.3296 55.9547 40.5931 54.895 40.2196C53.8353 39.8461 52.6776 39.8595 51.6268 40.2576C50.576 40.6557 49.7 41.4127 49.1537 42.3946L46.6778 40.6372L46.6778 34.4683L50.2351 34.4683C50.2778 34.4683 50.3276 34.4683 50.3774 34.4683C52.3042 34.27 54.1261 33.4938 55.6038 32.2414C57.0816 30.989 58.1462 29.319 58.6579 27.4506C59.1695 25.5822 59.1044 23.6028 58.471 21.7721C57.8376 19.9414 56.6655 18.3451 55.1086 17.1926C54.8882 14.2554 53.568 11.5094 51.4116 9.50319C49.2552 7.49697 46.4214 6.37819 43.4762 6.37032C42.7844 6.37154 42.094 6.43344 41.413 6.55532C40.4479 4.57181 38.9398 2.90292 37.064 1.74262C35.1881 0.582318 33.0215 -0.021758 30.8159 0.000597524C28.6104 0.022953 26.4565 0.670822 24.6045 1.86891C22.7525 3.067 21.2786 4.76611 20.3539 6.76877C18.7597 5.97823 17.0037 5.56901 15.2243 5.57342C12.1309 5.57718 9.16533 6.8078 6.97799 8.99533C4.79065 11.1829 3.56015 14.1487 3.55638 17.2424L3.55638 17.9539C2.44432 18.8141 1.54506 19.9186 0.92821 21.182C0.311358 22.4455 -0.00654325 23.8339 -0.000901372 25.2399C-0.00852323 27.3475 0.68706 29.3974 1.97571 31.0651C3.26437 32.7327 5.07244 33.9228 7.11367 34.447C7.22129 34.4697 7.33093 34.4817 7.44094 34.4825L12.3144 34.4825L12.3144 40.6301L9.83855 42.3875C9.29079 41.4002 8.41134 40.6387 7.35595 40.2377C6.30056 39.8367 5.13732 39.8221 4.07224 40.1966C3.00716 40.5711 2.10895 41.3104 1.53669 42.2837C0.964422 43.257 0.755022 44.4015 0.94557 45.5144C1.13611 46.6273 1.71432 47.6368 2.57778 48.3642C3.44124 49.0917 4.53424 49.49 5.66322 49.4888C6.79222 49.4875 7.88434 49.0868 8.7462 48.3575C9.60806 47.6281 10.184 46.6173 10.3721 45.504L14.5555 42.5085C14.7404 42.3768 14.8911 42.2029 14.9951 42.0011C15.099 41.7994 15.1532 41.5757 15.1531 41.3487L15.1531 34.4683L15.3168 34.4683L20.297 34.4683L20.297 47.6386L16.5547 53.2453C15.5437 52.7018 14.3717 52.5378 13.2503 52.783C12.129 53.0281 11.1323 53.6663 10.4403 54.5821C9.74832 55.498 9.40666 56.6312 9.47707 57.7769C9.54748 58.9227 10.0253 60.0055 10.8242 60.8297C11.6231 61.6539 12.6905 62.1652 13.8334 62.2712C14.9763 62.3772 16.1194 62.0709 17.0563 61.4077C17.9931 60.7444 18.6619 59.7679 18.9418 58.6547C19.2216 57.5414 19.0942 56.3647 18.5824 55.3372L22.9009 48.8624C23.0578 48.6288 23.142 48.354 23.1428 48.0726L23.1428 34.4683L28.0732 34.4683L28.0732 54.6684C27.2304 54.9316 26.4772 55.4233 25.8971 56.089C25.317 56.7547 24.9329 57.5682 24.7875 58.4391C24.642 59.31 24.7409 60.2042 25.0731 61.0222C25.4053 61.8403 25.9579 62.5502 26.6694 63.073C27.3808 63.5959 28.2234 63.9111 29.1033 63.9838C29.9832 64.0565 30.866 63.8837 31.6535 63.4846C32.4411 63.0856 33.1026 62.4759 33.5645 61.7234C34.0264 60.971 34.2706 60.1051 34.27 59.2221ZM46.5711 57.4362C46.5711 57.8176 46.458 58.1904 46.2461 58.5075C46.0343 58.8246 45.7332 59.0717 45.3809 59.2177C45.0286 59.3636 44.6409 59.4018 44.2669 59.3274C43.8929 59.253 43.5493 59.0693 43.2797 58.7997C43.01 58.53 42.8264 58.1864 42.752 57.8124C42.6776 57.4383 42.7158 57.0506 42.8617 56.6983C43.0077 56.346 43.2548 56.0448 43.5719 55.8329C43.8889 55.6211 44.2617 55.508 44.643 55.508C45.1538 55.5099 45.6431 55.7136 46.0043 56.0748C46.3655 56.436 46.5692 56.9254 46.5711 57.4362ZM55.2508 44.7C55.2508 45.0813 55.1378 45.4541 54.9259 45.7712C54.7141 46.0883 54.4129 46.3355 54.0606 46.4814C53.7083 46.6274 53.3207 46.6656 52.9467 46.5912C52.5727 46.5168 52.2291 46.3331 51.9595 46.0634C51.6898 45.7938 51.5062 45.4502 51.4318 45.0762C51.3574 44.7021 51.3956 44.3144 51.5415 43.9621C51.6874 43.6097 51.9346 43.3086 52.2516 43.0967C52.5687 42.8848 52.9415 42.7718 53.3228 42.7718C53.8336 42.7736 54.3229 42.9774 54.6841 43.3386C55.0452 43.6998 55.249 44.1892 55.2508 44.7ZM3.74136 44.7C3.74136 44.3186 3.85444 43.9458 4.06629 43.6287C4.27815 43.3116 4.57927 43.0645 4.93158 42.9185C5.28388 42.7726 5.67155 42.7344 6.04555 42.8088C6.41956 42.8832 6.7631 43.0669 7.03275 43.3365C7.30239 43.6062 7.48602 43.9498 7.56041 44.3238C7.63481 44.6978 7.59662 45.0855 7.45069 45.4379C7.30476 45.7902 7.05764 46.0914 6.74057 46.3032C6.42351 46.5151 6.05074 46.6282 5.66941 46.6282C5.15864 46.6263 4.66931 46.4226 4.30814 46.0614C3.94697 45.7002 3.74323 45.2108 3.74136 44.7ZM14.3492 59.3644C13.9679 59.3644 13.5951 59.2513 13.278 59.0395C12.961 58.8276 12.7138 58.5264 12.5679 58.1741C12.422 57.8218 12.3838 57.4341 12.4582 57.06C12.5326 56.686 12.7162 56.3424 12.9858 56.0727C13.2555 55.8031 13.599 55.6194 13.973 55.545C14.347 55.4706 14.7347 55.5088 15.087 55.6548C15.4393 55.8007 15.7404 56.0478 15.9523 56.3649C16.1642 56.682 16.2772 57.0548 16.2772 57.4362C16.2754 57.947 16.0716 58.4364 15.7105 58.7976C15.3493 59.1588 14.86 59.3626 14.3492 59.3644ZM7.63303 31.6151C6.25365 31.2036 5.04363 30.3584 4.18242 29.2049C3.32121 28.0514 2.85469 26.651 2.85204 25.2114C2.85558 24.1317 3.13203 23.0704 3.6557 22.1262C4.17938 21.182 4.93326 20.3856 5.84727 19.811C6.04999 19.6826 6.21696 19.505 6.33264 19.2948C6.44832 19.0845 6.50896 18.8485 6.50893 18.6085L6.50893 18.4093C6.44847 18.0088 6.41519 17.6047 6.40933 17.1997C6.413 14.8707 7.33585 12.6373 8.97721 10.9851C10.6186 9.33293 12.8458 8.39556 15.1745 8.37681C15.2266 8.3798 15.2789 8.3798 15.331 8.37681C16.3733 8.37868 17.4051 8.58597 18.3673 8.98683C19.3295 9.3877 20.2033 9.97428 20.9387 10.713C21.674 11.4518 22.2566 12.3283 22.6532 13.2923C23.0497 14.2564 23.2523 15.2892 23.2495 16.3316C23.2495 16.709 23.3994 17.071 23.6663 17.3379C23.9331 17.6047 24.295 17.7547 24.6724 17.7547C25.0498 17.7547 25.4117 17.6047 25.6786 17.3379C25.9454 17.071 26.0953 16.709 26.0953 16.3316C26.0952 14.8636 25.7933 13.4112 25.2082 12.0648C24.6232 10.7184 23.7676 9.50667 22.6946 8.50489C23.3331 6.81856 24.4737 5.36883 25.9623 4.35149C27.4509 3.33414 29.2159 2.7982 31.0188 2.81605C32.8217 2.83389 34.5757 3.40466 36.044 4.45127C37.5122 5.49788 38.6238 6.96991 39.2288 8.66854C39.3505 9.01162 39.599 9.29502 39.9232 9.46046C40.2475 9.6259 40.6228 9.66078 40.9719 9.55794C41.7853 9.32149 42.6292 9.20641 43.4762 9.21641C45.5013 9.22187 47.4631 9.92223 49.0339 11.2005C50.6046 12.4787 51.6892 14.2573 52.1062 16.2391C50.5629 16.0195 48.9897 16.1607 47.5102 16.6518C47.2397 16.7495 47.0052 16.927 46.8375 17.1607C46.6699 17.3944 46.577 17.6734 46.5711 17.961C46.5717 18.1283 46.6006 18.2943 46.6564 18.452C46.7214 18.628 46.8204 18.7894 46.948 18.927C47.0755 19.0646 47.229 19.1756 47.3996 19.2536C47.5702 19.3316 47.7545 19.3751 47.942 19.3817C48.1295 19.3882 48.3164 19.3576 48.492 19.2916C49.9958 18.8757 51.5842 18.8757 53.088 19.2916C54.24 20.0574 55.129 21.1586 55.6347 22.4462C56.1404 23.7339 56.2385 25.1458 55.9156 26.491C55.5927 27.8361 54.8645 29.0497 53.8294 29.9674C52.7944 30.8852 51.5024 31.4628 50.1284 31.6222L40.0755 31.6222C41.1782 30.6173 42.0592 29.3933 42.6619 28.0284C43.2646 26.6635 43.5759 25.1879 43.5758 23.6959C43.5758 23.3185 43.4259 22.9565 43.1591 22.6896C42.8922 22.4228 42.5303 22.2728 42.1529 22.2728C41.7755 22.2728 41.4136 22.4228 41.1468 22.6896C40.8799 22.9565 40.73 23.3185 40.73 23.6959C40.7281 25.7963 39.8935 27.8102 38.4091 29.2961C36.9247 30.7819 34.9117 31.6184 32.8115 31.6222L22.595 31.6222C23.6964 30.6162 24.5763 29.3919 25.179 28.0273C25.7816 26.6627 26.0937 25.1876 26.0953 23.6959C26.0953 23.3185 25.9454 22.9565 25.6786 22.6896C25.4117 22.4228 25.0498 22.2728 24.6724 22.2728C24.295 22.2728 23.9331 22.4228 23.6663 22.6896C23.3994 22.9565 23.2495 23.3185 23.2495 23.6959C23.2457 25.7969 22.4095 27.8108 20.924 29.2965C19.4385 30.7821 17.4247 31.6185 15.3239 31.6222L7.63303 31.6151ZM27.5538 59.215C27.5566 58.8349 27.6717 58.464 27.8847 58.1491C28.0976 57.8342 28.3989 57.5893 28.7506 57.4451C29.1023 57.301 29.4888 57.264 29.8615 57.3388C30.2341 57.4137 30.5764 57.597 30.8452 57.8658C31.1139 58.1346 31.2973 58.4769 31.3721 58.8496C31.447 59.2223 31.41 59.6088 31.2658 59.9606C31.1217 60.3123 30.8768 60.6136 30.5619 60.8266C30.247 61.0395 29.8762 61.1546 29.4961 61.1575C28.9841 61.1556 28.4937 60.9509 28.1323 60.5881C27.771 60.2254 27.5681 59.7342 27.5681 59.2221L27.5538 59.215Z" fill="url(#paint0_linear_1682_544)"/>
<defs>
<linearGradient id="paint0_linear_1682_544" x1="33" y1="-2" x2="32.5003" y2="67.5" gradientUnits="userSpaceOnUse">
<stop stop-color="#BDA6FF"/>
<stop offset="1" stop-color="#070430"/>
</linearGradient>
</defs>
</svg>
