<svg width="47" height="62" viewBox="0 0 47 62" fill="none" xmlns="http://www.w3.org/2000/svg">
<path d="M41.5359 30.0767C39.511 26.8681 37.1834 24.4011 34.7472 22.8097C35.7543 22.0104 36.4034 20.7678 36.4034 19.3736C36.4034 17.7542 35.5281 16.3392 34.2325 15.5864L39.7237 4.77492L39.1351 4.01717C34.7827 -1.58697 30.9173 -0.0677141 27.811 1.15329C26.3674 1.72066 25.0038 2.25666 23.6252 2.13654L23.4988 2.12554L23.3724 2.13654C21.9895 2.25704 20.6828 1.71691 19.2987 1.14516C16.3597 -0.068714 12.7021 -1.57959 8.35545 4.01717L7.78913 4.74629L12.8184 15.5553C11.4934 16.2999 10.5941 17.7321 10.5941 19.3736C10.5941 20.7678 11.2433 22.0104 12.2504 22.8097C9.81467 24.4009 7.48743 26.8677 5.46312 30.0758C2.04229 35.4967 0 42.158 0 47.8946C0 51.9295 1.02805 55.3391 2.9729 57.755C5.24063 60.5718 8.60208 62 12.964 62H34.0371C38.3985 62 41.7597 60.572 44.0272 57.7557C45.9721 55.3402 47 51.931 47 47.8967C46.9999 42.1598 44.9572 35.4982 41.5359 30.0767ZM18.1838 3.92367C19.7226 4.55917 21.4622 5.27804 23.499 5.13529C25.5091 5.27554 27.2971 4.57242 28.879 3.95054C31.6466 2.86267 33.5394 2.11904 36.2104 5.14379L31.1989 15.0107H15.8344L11.2552 5.16867C13.8797 2.14629 15.5436 2.83304 18.1838 3.92367ZM14.8975 20.7366C14.1548 20.7366 13.5505 20.1252 13.5505 19.3736C13.5505 18.6348 14.1673 18.0106 14.8975 18.0106H32.1C32.8301 18.0106 33.4469 18.6348 33.4469 19.3736C33.4469 20.1252 32.8428 20.7366 32.1 20.7366H28.4182H18.5792H14.8975ZM41.7376 55.8577C40.0588 57.9427 37.4681 59 34.0371 59H12.964C4.69279 59 2.95663 52.9607 2.95663 47.8945C2.95663 42.7851 4.87118 36.5772 7.95297 31.6933C11.144 26.6366 15.0171 23.7364 18.5794 23.7364H28.4183C36.3183 23.7364 44.0434 37.5707 44.0434 47.8966C44.0434 51.2314 43.2459 53.9842 41.7376 55.8577ZM20.6448 38.3972C20.6448 39.9298 21.2795 40.2697 23.8018 40.8076C25.9948 41.2753 29.3091 41.9821 29.3091 46.1569C29.3091 48.6505 27.4671 50.7526 24.977 51.3597V54.1009H22.0205V51.3597C19.5303 50.7527 17.6883 48.6505 17.6883 46.1569H20.6448C20.6448 47.4692 21.9252 48.5369 23.4988 48.5369C25.0724 48.5369 26.3527 47.4692 26.3527 46.1569C26.3527 44.6219 25.7177 44.2816 23.1938 43.7433C21.0015 43.2758 17.6884 42.5692 17.6884 38.3971C17.6884 35.9036 19.5304 33.8013 22.0206 33.1943V30.4532H24.9771V33.1943C27.4672 33.8013 29.3092 35.9036 29.3092 38.3971H26.3527C26.3527 37.0848 25.0724 36.0172 23.4988 36.0172C21.9252 36.0173 20.6448 37.085 20.6448 38.3972Z" fill="white"/>
</svg>
