<svg width="267" height="242" viewBox="0 0 267 242" fill="none" xmlns="http://www.w3.org/2000/svg">
<path d="M151.958 15.4668C124.772 40.3505 98.7 43.3761 72.0674 45.5382C72.0674 199.659 151.958 204.19 151.958 204.19C151.958 204.19 231.848 199.659 231.848 45.5382C205.216 43.3761 179.144 40.3505 151.958 15.4668Z" fill="#0F013E" stroke="url(#paint0_linear_1441_10298)" stroke-miterlimit="10" stroke-linecap="round" stroke-linejoin="round"/>
<path d="M151.958 15.4668C124.772 40.3505 98.7 43.3761 72.0674 45.5382C72.0674 199.659 151.958 204.19 151.958 204.19C151.958 204.19 231.848 199.659 231.848 45.5382C205.216 43.3761 179.144 40.3505 151.958 15.4668Z" fill="url(#paint1_linear_1441_10298)" stroke="url(#paint2_linear_1441_10298)" stroke-miterlimit="10" stroke-linecap="round" stroke-linejoin="round"/>
<path opacity="0.5" d="M78.334 68.6304C91.221 68.6304 101.668 58.0348 101.668 44.9644C101.668 31.894 91.221 21.2983 78.334 21.2983C65.447 21.2983 55 31.894 55 44.9644C55 58.0348 65.447 68.6304 78.334 68.6304Z" fill="url(#paint3_radial_1441_10298)"/>
<path opacity="0.8" d="M78.3344 55.4431C84.1217 55.4431 88.8132 50.7516 88.8132 44.9642C88.8132 39.1769 84.1217 34.4854 78.3344 34.4854C72.547 34.4854 67.8555 39.1769 67.8555 44.9642C67.8555 50.7516 72.547 55.4431 78.3344 55.4431Z" fill="url(#paint4_radial_1441_10298)"/>
<path opacity="0.5" d="M199.334 197.63C212.221 197.63 222.668 187.035 222.668 173.964C222.668 160.894 212.221 150.298 199.334 150.298C186.447 150.298 176 160.894 176 173.964C176 187.035 186.447 197.63 199.334 197.63Z" fill="url(#paint5_radial_1441_10298)"/>
<path opacity="0.8" d="M199.334 184.443C205.122 184.443 209.813 179.752 209.813 173.964C209.813 168.177 205.122 163.486 199.334 163.486C193.547 163.486 188.855 168.177 188.855 173.964C188.855 179.752 193.547 184.443 199.334 184.443Z" fill="url(#paint6_radial_1441_10298)"/>
<path opacity="0.5" d="M100.922 49.6579C106.71 49.6579 111.401 44.8969 111.401 39.024C111.401 33.1511 106.71 28.3901 100.922 28.3901C95.1349 28.3901 90.4434 33.1511 90.4434 39.024C90.4434 44.8969 95.1349 49.6579 100.922 49.6579Z" fill="url(#paint7_radial_1441_10298)"/>
<path opacity="0.8" d="M105.631 39.024C105.631 41.6216 103.521 43.7322 100.923 43.7322C98.3254 43.7322 96.2148 41.6216 96.2148 39.024C96.2148 36.4265 98.3254 34.3159 100.923 34.3159C103.521 34.3159 105.631 36.4265 105.631 39.024Z" fill="url(#paint8_radial_1441_10298)"/>
<path opacity="0.5" d="M78.3342 67.2354C82.9926 67.2354 86.7689 63.4029 86.7689 58.6752C86.7689 53.9475 82.9926 50.115 78.3342 50.115C73.6758 50.115 69.8994 53.9475 69.8994 58.6752C69.8994 63.4029 73.6758 67.2354 78.3342 67.2354Z" fill="url(#paint9_radial_1441_10298)"/>
<path opacity="0.8" d="M78.3341 62.468C80.4289 62.468 82.1271 60.7697 82.1271 58.6749C82.1271 56.58 80.4289 54.8818 78.3341 54.8818C76.2392 54.8818 74.541 56.58 74.541 58.6749C74.541 60.7697 76.2392 62.468 78.3341 62.468Z" fill="url(#paint10_radial_1441_10298)"/>
<path opacity="0.5" d="M128.839 89.0274C139.207 89.0274 147.612 80.5033 147.612 69.9883C147.612 59.4733 139.207 50.9492 128.839 50.9492C118.471 50.9492 110.065 59.4733 110.065 69.9883C110.065 80.5033 118.471 89.0274 128.839 89.0274Z" fill="url(#paint11_radial_1441_10298)"/>
<path opacity="0.8" d="M128.839 78.4232C133.497 78.4232 137.274 74.6469 137.274 69.9885C137.274 65.3301 133.497 61.5537 128.839 61.5537C124.181 61.5537 120.404 65.3301 120.404 69.9885C120.404 74.6469 124.181 78.4232 128.839 78.4232Z" fill="url(#paint12_radial_1441_10298)"/>
<path d="M151.958 15.4668C124.772 40.3505 98.7 43.3761 72.0674 45.5382C72.0674 199.659 151.958 204.19 151.958 204.19C151.958 204.19 231.848 199.659 231.848 45.5382C205.216 43.3761 179.144 40.3505 151.958 15.4668Z" fill="url(#paint13_linear_1441_10298)" fill-opacity="0.5" stroke="url(#paint14_linear_1441_10298)" stroke-width="2.4568" stroke-miterlimit="10" stroke-linecap="round" stroke-linejoin="round"/>
<path opacity="0.5" d="M195.83 29.4294C203.843 29.4294 210.338 22.8414 210.338 14.7147C210.338 6.588 203.843 0 195.83 0C187.818 0 181.322 6.588 181.322 14.7147C181.322 22.8414 187.818 29.4294 195.83 29.4294Z" fill="url(#paint15_radial_1441_10298)"/>
<path opacity="0.8" d="M195.831 21.2309C199.429 21.2309 202.347 18.3136 202.347 14.7148C202.347 11.1161 199.429 8.19873 195.831 8.19873C192.232 8.19873 189.314 11.1161 189.314 14.7148C189.314 18.3136 192.232 21.2309 195.831 21.2309Z" fill="url(#paint16_radial_1441_10298)"/>
<path opacity="0.5" d="M209.874 17.6371C213.472 17.6371 216.39 14.6768 216.39 11.0251C216.39 7.37339 213.472 4.41309 209.874 4.41309C206.275 4.41309 203.357 7.37339 203.357 11.0251C203.357 14.6768 206.275 17.6371 209.874 17.6371Z" fill="url(#paint17_radial_1441_10298)"/>
<path opacity="0.8" d="M212.796 11.0254C212.796 12.6415 211.482 13.955 209.866 13.955C208.25 13.955 206.937 12.6415 206.937 11.0254C206.937 9.40925 208.25 8.0957 209.866 8.0957C211.482 8.0957 212.796 9.40925 212.796 11.0254Z" fill="url(#paint18_radial_1441_10298)"/>
<path opacity="0.5" d="M201.079 23.2457C201.079 26.1827 198.732 28.5663 195.832 28.5663C192.932 28.5663 190.585 26.1827 190.585 23.2457C190.585 20.3086 192.932 17.925 195.832 17.925C198.725 17.925 201.079 20.3012 201.079 23.2457Z" fill="url(#paint19_radial_1441_10298)"/>
<path opacity="0.8" d="M198.186 23.2457C198.186 24.5445 197.13 25.5998 195.832 25.5998C194.533 25.5998 193.478 24.5445 193.478 23.2457C193.478 21.9469 194.533 20.8916 195.832 20.8916C197.13 20.8843 198.186 21.9395 198.186 23.2457Z" fill="url(#paint20_radial_1441_10298)"/>
<path opacity="0.5" d="M228.254 42.1148C234.702 42.1148 239.929 36.8154 239.929 30.2781C239.929 23.7409 234.702 18.4414 228.254 18.4414C221.807 18.4414 216.58 23.7409 216.58 30.2781C216.58 36.8154 221.807 42.1148 228.254 42.1148Z" fill="url(#paint21_radial_1441_10298)"/>
<path opacity="0.8" d="M228.256 35.5249C231.153 35.5249 233.502 33.1758 233.502 30.2781C233.502 27.3803 231.153 25.0312 228.256 25.0312C225.358 25.0312 223.009 27.3803 223.009 30.2781C223.009 33.1758 225.358 35.5249 228.256 35.5249Z" fill="url(#paint22_radial_1441_10298)"/>
<path d="M167.529 163.463C146.932 156.482 134.454 115.511 153.109 111.91C169.979 108.648 170.104 146.313 191.055 132.226" stroke="url(#paint23_linear_1441_10298)" stroke-width="2.4568" stroke-miterlimit="10" stroke-linecap="round" stroke-linejoin="round"/>
<path d="M130.934 58.9916C136.365 55.5675 143.243 53.3684 151.95 53.1028C159.101 53.3168 165.012 54.8444 169.905 57.2722" stroke="url(#paint24_linear_1441_10298)" stroke-width="2.4568" stroke-miterlimit="10" stroke-linecap="round" stroke-linejoin="round"/>
<path d="M159.788 165.729C147.346 159.914 133.546 140.675 136.978 119.806C138.314 111.674 144.756 105.195 152.947 104.28C174.311 101.896 173.905 140.41 192.619 123.119" stroke="url(#paint25_linear_1441_10298)" stroke-width="2.4568" stroke-miterlimit="10" stroke-linecap="round" stroke-linejoin="round"/>
<path d="M151.271 166.555C137.841 158.622 126.543 140.727 130.402 116.95C132.195 105.918 140.977 97.1953 152.083 95.9261C176.768 93.0997 175.875 130.831 193.172 116.404" stroke="url(#paint26_linear_1441_10298)" stroke-width="2.4568" stroke-miterlimit="10" stroke-linecap="round" stroke-linejoin="round"/>
<path d="M174.51 159.641C162.577 156.18 150.799 136.978 151.367 124.905C151.522 121.607 155.168 119.629 158.002 121.326C167.942 127.267 170.945 149.656 188.922 139.517" stroke="url(#paint27_linear_1441_10298)" stroke-width="2.4568" stroke-miterlimit="10" stroke-linecap="round" stroke-linejoin="round"/>
<path d="M139.967 164.725C127.562 153.899 120.389 137.9 122.5 118.227C124.241 101.984 137.37 89.1146 153.678 88.2807C180.451 86.9081 178.156 120.16 193.336 109.836" stroke="url(#paint28_linear_1441_10298)" stroke-width="2.4568" stroke-miterlimit="10" stroke-linecap="round" stroke-linejoin="round"/>
<path d="M120.714 150.468C116.736 141.487 113.607 130.255 115.393 118.256C118.537 97.1953 131.879 79.6689 153.449 79.6689C182.303 79.6689 182.303 106.021 193.181 102.42" stroke="url(#paint29_linear_1441_10298)" stroke-width="2.4568" stroke-miterlimit="10" stroke-linecap="round" stroke-linejoin="round"/>
<path d="M110.574 109.829C112.316 98.7965 126.359 66.2972 157.729 70.105C176.776 72.4222 182.628 88.8268 191.35 92.1697" stroke="url(#paint30_linear_1441_10298)" stroke-width="2.4568" stroke-miterlimit="10" stroke-linecap="round" stroke-linejoin="round"/>
<path d="M113.224 85.934C128.403 55.7224 169.913 52.0548 189.528 81.927" stroke="url(#paint31_linear_1441_10298)" stroke-width="2.4568" stroke-miterlimit="10" stroke-linecap="round" stroke-linejoin="round"/>
<path d="M159.611 132.226C162.844 138.771 170.289 150.645 182.296 152.04" stroke="url(#paint32_linear_1441_10298)" stroke-width="2.4568" stroke-miterlimit="10" stroke-linecap="round" stroke-linejoin="round"/>
<path d="M265.455 65.4782C260.467 79.5878 223.813 79.4919 183.587 65.2642C143.361 51.0365 114.803 28.0715 119.791 13.9619C124.78 -0.147669 161.434 -0.0517349 201.659 14.1759C241.878 28.3962 270.444 51.3686 265.455 65.4782Z" fill="url(#paint33_radial_1441_10298)"/>
<path opacity="0.6" d="M89.2772 241.317C138.584 241.317 178.554 201.347 178.554 152.04C178.554 102.734 138.584 62.7629 89.2772 62.7629C39.9707 62.7629 0 102.734 0 152.04C0 201.347 39.9707 241.317 89.2772 241.317Z" fill="url(#paint34_radial_1441_10298)"/>
<defs>
<linearGradient id="paint0_linear_1441_10298" x1="151.958" y1="15.4668" x2="139" y2="200.799" gradientUnits="userSpaceOnUse">
<stop stop-color="#0181FC"/>
<stop offset="0.479438" stop-color="#0074E7"/>
<stop offset="0.758163" stop-color="#FAF9FC"/>
<stop offset="1" stop-color="white"/>
</linearGradient>
<linearGradient id="paint1_linear_1441_10298" x1="102.5" y1="41.7988" x2="163.5" y2="198.799" gradientUnits="userSpaceOnUse">
<stop stop-color="#050A42"/>
<stop offset="1" stop-color="#081E6D"/>
</linearGradient>
<linearGradient id="paint2_linear_1441_10298" x1="151.958" y1="15.4668" x2="139" y2="200.799" gradientUnits="userSpaceOnUse">
<stop stop-color="#0181FC"/>
<stop offset="0.479438" stop-color="#0074E7"/>
<stop offset="0.758163" stop-color="#FAF9FC"/>
<stop offset="1" stop-color="white"/>
</linearGradient>
<radialGradient id="paint3_radial_1441_10298" cx="0" cy="0" r="1" gradientUnits="userSpaceOnUse" gradientTransform="translate(78.3323 44.9621) scale(23.3312 23.6629)">
<stop stop-color="white"/>
<stop offset="0.1498" stop-color="#3B86FF" stop-opacity="0.8497"/>
<stop offset="0.3193" stop-color="#3B86FF" stop-opacity="0.6795"/>
<stop offset="0.4832" stop-color="#3B86FF" stop-opacity="0.515"/>
<stop offset="0.6369" stop-color="#3B86FF" stop-opacity="0.3607"/>
<stop offset="0.7782" stop-color="#3B86FF" stop-opacity="0.219"/>
<stop offset="0.9024" stop-color="#3B86FF" stop-opacity="0.0944"/>
<stop offset="0.9964" stop-color="#3B86FF" stop-opacity="0"/>
</radialGradient>
<radialGradient id="paint4_radial_1441_10298" cx="0" cy="0" r="1" gradientUnits="userSpaceOnUse" gradientTransform="translate(78.3327 44.9621) scale(10.4814)">
<stop stop-color="white"/>
<stop offset="0.00871671" stop-color="#F9F9F9" stop-opacity="0.9913"/>
<stop offset="0.0869" stop-color="#3B86FF" stop-opacity="0.9131"/>
<stop offset="0.1704" stop-color="#3B86FF" stop-opacity="0.8296"/>
<stop offset="0.2573" stop-color="#3B86FF" stop-opacity="0.7426"/>
<stop offset="0.3484" stop-color="#3B86FF" stop-opacity="0.6514"/>
<stop offset="0.4451" stop-color="#3B86FF" stop-opacity="0.5548"/>
<stop offset="0.549" stop-color="#3B86FF" stop-opacity="0.4507"/>
<stop offset="0.664" stop-color="#3B86FF" stop-opacity="0.3358"/>
<stop offset="0.7984" stop-color="#3B86FF" stop-opacity="0.2013"/>
<stop offset="0.9996" stop-color="#3B86FF" stop-opacity="0"/>
</radialGradient>
<radialGradient id="paint5_radial_1441_10298" cx="0" cy="0" r="1" gradientUnits="userSpaceOnUse" gradientTransform="translate(199.332 173.962) scale(23.3312 23.6629)">
<stop stop-color="white"/>
<stop offset="0.1498" stop-color="#3B86FF" stop-opacity="0.8497"/>
<stop offset="0.3193" stop-color="#3B86FF" stop-opacity="0.6795"/>
<stop offset="0.4832" stop-color="#3B86FF" stop-opacity="0.515"/>
<stop offset="0.6369" stop-color="#3B86FF" stop-opacity="0.3607"/>
<stop offset="0.7782" stop-color="#3B86FF" stop-opacity="0.219"/>
<stop offset="0.9024" stop-color="#3B86FF" stop-opacity="0.0944"/>
<stop offset="0.9964" stop-color="#3B86FF" stop-opacity="0"/>
</radialGradient>
<radialGradient id="paint6_radial_1441_10298" cx="0" cy="0" r="1" gradientUnits="userSpaceOnUse" gradientTransform="translate(199.333 173.962) scale(10.4814)">
<stop stop-color="white"/>
<stop offset="0.00871671" stop-color="#F9F9F9" stop-opacity="0.9913"/>
<stop offset="0.0869" stop-color="white" stop-opacity="0.9131"/>
<stop offset="0.1704" stop-color="#3B86FF" stop-opacity="0.8296"/>
<stop offset="0.2573" stop-color="#3B86FF" stop-opacity="0.7426"/>
<stop offset="0.3484" stop-color="#3B86FF" stop-opacity="0.6514"/>
<stop offset="0.4451" stop-color="#3B86FF" stop-opacity="0.5548"/>
<stop offset="0.549" stop-color="#3B86FF" stop-opacity="0.4507"/>
<stop offset="0.664" stop-color="#3B86FF" stop-opacity="0.3358"/>
<stop offset="0.7984" stop-color="#3B86FF" stop-opacity="0.2013"/>
<stop offset="0.9996" stop-color="#3B86FF" stop-opacity="0"/>
</radialGradient>
<radialGradient id="paint7_radial_1441_10298" cx="0" cy="0" r="1" gradientUnits="userSpaceOnUse" gradientTransform="translate(100.919 39.0257) scale(10.4814 10.6304)">
<stop stop-color="white"/>
<stop offset="0.1498" stop-color="#3B86FF" stop-opacity="0.8497"/>
<stop offset="0.3193" stop-color="#3B86FF" stop-opacity="0.6795"/>
<stop offset="0.4832" stop-color="#3B86FF" stop-opacity="0.515"/>
<stop offset="0.6369" stop-color="#3B86FF" stop-opacity="0.3607"/>
<stop offset="0.7782" stop-color="#3B86FF" stop-opacity="0.219"/>
<stop offset="0.9024" stop-color="#3B86FF" stop-opacity="0.0944"/>
<stop offset="0.9964" stop-color="#3B86FF" stop-opacity="0"/>
</radialGradient>
<radialGradient id="paint8_radial_1441_10298" cx="0" cy="0" r="1" gradientUnits="userSpaceOnUse" gradientTransform="translate(100.92 39.0255) scale(4.70869 4.7087)">
<stop stop-color="white"/>
<stop offset="0.00871671" stop-color="#F9F9F9" stop-opacity="0.9913"/>
<stop offset="0.0869" stop-color="#3B86FF" stop-opacity="0.9131"/>
<stop offset="0.1704" stop-color="#3B86FF" stop-opacity="0.8296"/>
<stop offset="0.2573" stop-color="#3B86FF" stop-opacity="0.7426"/>
<stop offset="0.3484" stop-color="#3B86FF" stop-opacity="0.6514"/>
<stop offset="0.4451" stop-color="#303030" stop-opacity="0.5548"/>
<stop offset="0.549" stop-color="#3B86FF" stop-opacity="0.4507"/>
<stop offset="0.664" stop-color="#3B86FF" stop-opacity="0.3358"/>
<stop offset="0.7984" stop-color="#3B86FF" stop-opacity="0.2013"/>
<stop offset="0.9996" stop-color="#3B86FF" stop-opacity="0"/>
</radialGradient>
<radialGradient id="paint9_radial_1441_10298" cx="0" cy="0" r="1" gradientUnits="userSpaceOnUse" gradientTransform="translate(78.3325 58.6741) scale(8.43784 8.5578)">
<stop stop-color="white"/>
<stop offset="0.1498" stop-color="#3B86FF" stop-opacity="0.8497"/>
<stop offset="0.3193" stop-color="#3B86FF" stop-opacity="0.6795"/>
<stop offset="0.4832" stop-color="#3B86FF" stop-opacity="0.515"/>
<stop offset="0.6369" stop-color="#3B86FF" stop-opacity="0.3607"/>
<stop offset="0.7782" stop-color="#3B86FF" stop-opacity="0.219"/>
<stop offset="0.9024" stop-color="#3B86FF" stop-opacity="0.0944"/>
<stop offset="0.9964" stop-color="#3B86FF" stop-opacity="0"/>
</radialGradient>
<radialGradient id="paint10_radial_1441_10298" cx="0" cy="0" r="1" gradientUnits="userSpaceOnUse" gradientTransform="translate(78.3325 58.6738) scale(3.79063)">
<stop stop-color="white"/>
<stop offset="0.00871671" stop-color="#F9F9F9" stop-opacity="0.9913"/>
<stop offset="0.0869" stop-color="#C5C5C5" stop-opacity="0.9131"/>
<stop offset="0.1704" stop-color="#3B86FF" stop-opacity="0.8296"/>
<stop offset="0.2573" stop-color="#6E6E63" stop-opacity="0.721569"/>
<stop offset="0.3484" stop-color="#3B86FF" stop-opacity="0.6514"/>
<stop offset="0.4451" stop-color="#3B86FF" stop-opacity="0.5548"/>
<stop offset="0.549" stop-color="#3B86FF" stop-opacity="0.4507"/>
<stop offset="0.664" stop-color="#3B86FF" stop-opacity="0.3358"/>
<stop offset="0.7984" stop-color="#3B86FF" stop-opacity="0.2013"/>
<stop offset="0.9996" stop-color="#3B86FF" stop-opacity="0"/>
</radialGradient>
<radialGradient id="paint11_radial_1441_10298" cx="0" cy="0" r="1" gradientUnits="userSpaceOnUse" gradientTransform="translate(128.836 69.9858) scale(18.7722 19.0391)">
<stop stop-color="white"/>
<stop offset="0.1498" stop-color="#C5C5C5" stop-opacity="0.8497"/>
<stop offset="0.3193" stop-color="#3B86FF" stop-opacity="0.6795"/>
<stop offset="0.4832" stop-color="#3B86FF" stop-opacity="0.515"/>
<stop offset="0.6369" stop-color="#3B86FF" stop-opacity="0.3607"/>
<stop offset="0.7782" stop-color="#3B86FF" stop-opacity="0.219"/>
<stop offset="0.9024" stop-color="#3B86FF" stop-opacity="0.0944"/>
<stop offset="0.9964" stop-color="#3B86FF" stop-opacity="0"/>
</radialGradient>
<radialGradient id="paint12_radial_1441_10298" cx="0" cy="0" r="1" gradientUnits="userSpaceOnUse" gradientTransform="translate(128.836 69.9858) scale(8.43323)">
<stop stop-color="white"/>
<stop offset="0.00871671" stop-color="#F9F9F9" stop-opacity="0.9913"/>
<stop offset="0.0869" stop-color="#C5C5C5" stop-opacity="0.9131"/>
<stop offset="0.1704" stop-color="#3B86FF" stop-opacity="0.8296"/>
<stop offset="0.2573" stop-color="#3B86FF" stop-opacity="0.7426"/>
<stop offset="0.3484" stop-color="#3B86FF" stop-opacity="0.6514"/>
<stop offset="0.4451" stop-color="#3B86FF" stop-opacity="0.5548"/>
<stop offset="0.549" stop-color="#3B86FF" stop-opacity="0.4507"/>
<stop offset="0.664" stop-color="#3B86FF" stop-opacity="0.3358"/>
<stop offset="0.7984" stop-color="#3B86FF" stop-opacity="0.2013"/>
<stop offset="0.9996" stop-color="#3B86FF" stop-opacity="0"/>
</radialGradient>
<linearGradient id="paint13_linear_1441_10298" x1="87.7161" y1="29.8883" x2="216.197" y2="158.369" gradientUnits="userSpaceOnUse">
<stop stop-color="#09206E" stop-opacity="0.2"/>
<stop offset="0.2542" stop-color="#3B86FF" stop-opacity="0.367"/>
<stop offset="0.4886" stop-color="#3B86FF"/>
<stop offset="1" stop-color="#09206E"/>
</linearGradient>
<linearGradient id="paint14_linear_1441_10298" x1="87.0751" y1="159.01" x2="216.838" y2="29.2474" gradientUnits="userSpaceOnUse">
<stop stop-color="#FF4FE5"/>
<stop offset="0.1193" stop-color="#DC59EA" stop-opacity="0.9466"/>
<stop offset="0.3822" stop-color="#8272F6" stop-opacity="0.8289"/>
<stop offset="0.5809" stop-color="#3B86FF" stop-opacity="0.74"/>
<stop offset="0.8623" stop-color="#3B86FF"/>
<stop offset="1" stop-color="#3B86FF" stop-opacity="0.5"/>
</linearGradient>
<radialGradient id="paint15_radial_1441_10298" cx="0" cy="0" r="1" gradientUnits="userSpaceOnUse" gradientTransform="translate(195.827 14.7166) scale(14.5065 14.7128)">
<stop stop-color="white"/>
<stop offset="0.1498" stop-color="#C5C5C5" stop-opacity="0.8497"/>
<stop offset="0.3193" stop-color="#8A8A8A" stop-opacity="0.6795"/>
<stop offset="0.4832" stop-color="#585858" stop-opacity="0.515"/>
<stop offset="0.6369" stop-color="#323232" stop-opacity="0.3607"/>
<stop offset="0.7782" stop-color="#171717" stop-opacity="0.219"/>
<stop offset="0.9024" stop-color="#060606" stop-opacity="0.0944"/>
<stop offset="0.9964" stop-opacity="0"/>
</radialGradient>
<radialGradient id="paint16_radial_1441_10298" cx="0" cy="0" r="1" gradientUnits="userSpaceOnUse" gradientTransform="translate(195.828 14.7167) scale(6.51691 6.51691)">
<stop stop-color="white"/>
<stop offset="0.00871671" stop-color="#3B86FF" stop-opacity="0.9913"/>
<stop offset="0.0869" stop-color="#3B86FF" stop-opacity="0.9131"/>
<stop offset="0.1704" stop-color="#3B86FF" stop-opacity="0.8296"/>
<stop offset="0.2573" stop-color="#3B86FF" stop-opacity="0.7426"/>
<stop offset="0.3484" stop-color="#3B86FF" stop-opacity="0.6514"/>
<stop offset="0.4451" stop-color="#3B86FF" stop-opacity="0.5548"/>
<stop offset="0.549" stop-color="#3B86FF" stop-opacity="0.4507"/>
<stop offset="0.664" stop-color="#3B86FF" stop-opacity="0.3358"/>
<stop offset="0.7984" stop-color="#3B86FF" stop-opacity="0.2013"/>
<stop offset="0.9996" stop-color="#3B86FF" stop-opacity="0"/>
</radialGradient>
<radialGradient id="paint17_radial_1441_10298" cx="0" cy="0" r="1" gradientUnits="userSpaceOnUse" gradientTransform="translate(209.871 11.0254) scale(6.51694 6.60959)">
<stop stop-color="#52109D"/>
<stop offset="0.1498" stop-color="#52109D" stop-opacity="0.8497"/>
<stop offset="0.3193" stop-color="#8A8A8A" stop-opacity="0.6795"/>
<stop offset="0.4832" stop-color="#585858" stop-opacity="0.515"/>
<stop offset="0.6369" stop-color="#323232" stop-opacity="0.3607"/>
<stop offset="0.7782" stop-color="#171717" stop-opacity="0.219"/>
<stop offset="0.9024" stop-color="#060606" stop-opacity="0.0944"/>
<stop offset="0.9964" stop-opacity="0"/>
</radialGradient>
<radialGradient id="paint18_radial_1441_10298" cx="0" cy="0" r="1" gradientUnits="userSpaceOnUse" gradientTransform="translate(209.871 11.0257) scale(2.92765 2.92766)">
<stop stop-color="#52109D"/>
<stop offset="0.00871671" stop-color="#52109D" stop-opacity="0.9913"/>
<stop offset="0.0869" stop-color="#52109D" stop-opacity="0.9131"/>
<stop offset="0.1704" stop-color="#52109D" stop-opacity="0.8296"/>
<stop offset="0.2573" stop-color="#52109D" stop-opacity="0.7426"/>
<stop offset="0.3484" stop-color="#4C4C4C" stop-opacity="0.6514"/>
<stop offset="0.4451" stop-color="#52109D" stop-opacity="0.5548"/>
<stop offset="0.549" stop-color="#1B1B1B" stop-opacity="0.4507"/>
<stop offset="0.664" stop-color="#0C0C0C" stop-opacity="0.3358"/>
<stop offset="0.7984" stop-color="#030303" stop-opacity="0.2013"/>
<stop offset="0.9996" stop-opacity="0"/>
</radialGradient>
<radialGradient id="paint19_radial_1441_10298" cx="0" cy="0" r="1" gradientUnits="userSpaceOnUse" gradientTransform="translate(195.829 23.2424) scale(5.24633 5.32092)">
<stop stop-color="#52109D"/>
<stop offset="0.1498" stop-color="#52109D" stop-opacity="0.8497"/>
<stop offset="0.3193" stop-color="#8A8A8A" stop-opacity="0.6795"/>
<stop offset="0.4832" stop-color="#52109D" stop-opacity="0.515"/>
<stop offset="0.6369" stop-color="#323232" stop-opacity="0.3607"/>
<stop offset="0.7782" stop-color="#171717" stop-opacity="0.219"/>
<stop offset="0.9024" stop-color="#060606" stop-opacity="0.0944"/>
<stop offset="0.9964" stop-opacity="0"/>
</radialGradient>
<radialGradient id="paint20_radial_1441_10298" cx="0" cy="0" r="1" gradientUnits="userSpaceOnUse" gradientTransform="translate(195.829 23.2426) scale(2.35692 2.35692)">
<stop stop-color="#52109D"/>
<stop offset="0.00871671" stop-color="#52109D" stop-opacity="0.9913"/>
<stop offset="0.0869" stop-color="#52109D" stop-opacity="0.9131"/>
<stop offset="0.1704" stop-color="#52109D" stop-opacity="0.8296"/>
<stop offset="0.2573" stop-color="#52109D" stop-opacity="0.7426"/>
<stop offset="0.3484" stop-color="#52109D" stop-opacity="0.6514"/>
<stop offset="0.4451" stop-color="#52109D" stop-opacity="0.5548"/>
<stop offset="0.549" stop-color="#52109D" stop-opacity="0.4507"/>
<stop offset="0.664" stop-color="#52109D" stop-opacity="0.3358"/>
<stop offset="0.7984" stop-color="#52109D" stop-opacity="0.2013"/>
<stop offset="0.9996" stop-color="#52109D" stop-opacity="0"/>
</radialGradient>
<radialGradient id="paint21_radial_1441_10298" cx="0" cy="0" r="1" gradientUnits="userSpaceOnUse" gradientTransform="translate(228.253 30.2753) scale(11.6719 11.8378)">
<stop stop-color="#52109D"/>
<stop offset="0.1498" stop-color="#52109D" stop-opacity="0.8497"/>
<stop offset="0.3193" stop-color="#52109D" stop-opacity="0.6795"/>
<stop offset="0.4832" stop-color="#52109D" stop-opacity="0.515"/>
<stop offset="0.6369" stop-color="#52109D" stop-opacity="0.3607"/>
<stop offset="0.7782" stop-color="#52109D" stop-opacity="0.219"/>
<stop offset="0.9024" stop-color="#52109D" stop-opacity="0.0944"/>
<stop offset="0.9964" stop-color="#52109D" stop-opacity="0"/>
</radialGradient>
<radialGradient id="paint22_radial_1441_10298" cx="0" cy="0" r="1" gradientUnits="userSpaceOnUse" gradientTransform="translate(228.254 30.2753) scale(5.24349)">
<stop stop-color="#52109D"/>
<stop offset="0.00871671" stop-color="#52109D" stop-opacity="0.9913"/>
<stop offset="0.0869" stop-color="#52109D" stop-opacity="0.9131"/>
<stop offset="0.1704" stop-color="#52109D" stop-opacity="0.8296"/>
<stop offset="0.2573" stop-color="#52109D" stop-opacity="0.7426"/>
<stop offset="0.3484" stop-color="#52109D" stop-opacity="0.6514"/>
<stop offset="0.4451" stop-color="#52109D" stop-opacity="0.5548"/>
<stop offset="0.549" stop-color="#52109D" stop-opacity="0.4507"/>
<stop offset="0.664" stop-color="#52109D" stop-opacity="0.3358"/>
<stop offset="0.7984" stop-color="#52109D" stop-opacity="0.2013"/>
<stop offset="0.9996" stop-color="#52109D" stop-opacity="0"/>
</radialGradient>
<linearGradient id="paint23_linear_1441_10298" x1="186.362" y1="122.289" x2="147.626" y2="144.654" gradientUnits="userSpaceOnUse">
<stop stop-color="#3BB0FF" stop-opacity="0.5"/>
<stop offset="0.3443" stop-color="#3BB0FF"/>
<stop offset="0.5314" stop-color="#3EAFFF"/>
<stop offset="0.6437" stop-color="#46AAFD"/>
<stop offset="0.7363" stop-color="#54A1FB"/>
<stop offset="0.8181" stop-color="#6896F8"/>
<stop offset="0.8928" stop-color="#8387F4"/>
<stop offset="0.9613" stop-color="#A274EF"/>
<stop offset="1" stop-color="#B868EC"/>
</linearGradient>
<linearGradient id="paint24_linear_1441_10298" x1="166.192" y1="49.0131" x2="134.644" y2="67.2273" gradientUnits="userSpaceOnUse">
<stop stop-color="#3BB0FF" stop-opacity="0.5"/>
<stop offset="0.3443" stop-color="#3BB0FF"/>
<stop offset="0.5314" stop-color="#3EAFFF"/>
<stop offset="0.6437" stop-color="#46AAFD"/>
<stop offset="0.7363" stop-color="#54A1FB"/>
<stop offset="0.8181" stop-color="#6896F8"/>
<stop offset="0.8928" stop-color="#8387F4"/>
<stop offset="0.9613" stop-color="#A274EF"/>
<stop offset="1" stop-color="#B868EC"/>
</linearGradient>
<linearGradient id="paint25_linear_1441_10298" x1="189.117" y1="115.24" x2="138.951" y2="144.203" gradientUnits="userSpaceOnUse">
<stop stop-color="#3BB0FF" stop-opacity="0.5"/>
<stop offset="0.3443" stop-color="#3BB0FF"/>
<stop offset="0.5314" stop-color="#3EAFFF"/>
<stop offset="0.6437" stop-color="#46AAFD"/>
<stop offset="0.7363" stop-color="#54A1FB"/>
<stop offset="0.8181" stop-color="#6896F8"/>
<stop offset="0.8928" stop-color="#8387F4"/>
<stop offset="0.9613" stop-color="#A274EF"/>
<stop offset="1" stop-color="#B868EC"/>
</linearGradient>
<linearGradient id="paint26_linear_1441_10298" x1="189.513" y1="108.239" x2="130.149" y2="142.512" gradientUnits="userSpaceOnUse">
<stop stop-color="#3BB0FF" stop-opacity="0.5"/>
<stop offset="0.3443" stop-color="#3BB0FF"/>
<stop offset="0.5314" stop-color="#3EAFFF"/>
<stop offset="0.6437" stop-color="#46AAFD"/>
<stop offset="0.7363" stop-color="#54A1FB"/>
<stop offset="0.8181" stop-color="#6896F8"/>
<stop offset="0.8928" stop-color="#8387F4"/>
<stop offset="0.9613" stop-color="#A274EF"/>
<stop offset="1" stop-color="#B868EC"/>
</linearGradient>
<linearGradient id="paint27_linear_1441_10298" x1="183.904" y1="129.003" x2="156.677" y2="144.723" gradientUnits="userSpaceOnUse">
<stop stop-color="#3BB0FF" stop-opacity="0.5"/>
<stop offset="0.3443" stop-color="#3BB0FF"/>
<stop offset="0.5314" stop-color="#3EAFFF"/>
<stop offset="0.6437" stop-color="#46AAFD"/>
<stop offset="0.7363" stop-color="#54A1FB"/>
<stop offset="0.8181" stop-color="#6896F8"/>
<stop offset="0.8928" stop-color="#8387F4"/>
<stop offset="0.9613" stop-color="#A274EF"/>
<stop offset="1" stop-color="#B868EC"/>
</linearGradient>
<linearGradient id="paint28_linear_1441_10298" x1="188.823" y1="100.197" x2="120.976" y2="139.368" gradientUnits="userSpaceOnUse">
<stop stop-color="#3BB0FF" stop-opacity="0.5"/>
<stop offset="0.3443" stop-color="#3BB0FF"/>
<stop offset="0.5314" stop-color="#3EAFFF"/>
<stop offset="0.6437" stop-color="#46AAFD"/>
<stop offset="0.7363" stop-color="#54A1FB"/>
<stop offset="0.8181" stop-color="#6896F8"/>
<stop offset="0.8928" stop-color="#8387F4"/>
<stop offset="0.9613" stop-color="#A274EF"/>
<stop offset="1" stop-color="#B868EC"/>
</linearGradient>
<linearGradient id="paint29_linear_1441_10298" x1="184.217" y1="85.0796" x2="107.489" y2="129.378" gradientUnits="userSpaceOnUse">
<stop stop-color="#3BB0FF" stop-opacity="0.5"/>
<stop offset="0.3443" stop-color="#3BB0FF"/>
<stop offset="0.5314" stop-color="#3EAFFF"/>
<stop offset="0.6437" stop-color="#46AAFD"/>
<stop offset="0.7363" stop-color="#54A1FB"/>
<stop offset="0.8181" stop-color="#6896F8"/>
<stop offset="0.8928" stop-color="#8387F4"/>
<stop offset="0.9613" stop-color="#A274EF"/>
<stop offset="1" stop-color="#B868EC"/>
</linearGradient>
<linearGradient id="paint30_linear_1441_10298" x1="181.24" y1="72.8381" x2="111.44" y2="113.137" gradientUnits="userSpaceOnUse">
<stop stop-color="#3BB0FF" stop-opacity="0.5"/>
<stop offset="0.3443" stop-color="#3BB0FF"/>
<stop offset="0.5314" stop-color="#3EAFFF"/>
<stop offset="0.6437" stop-color="#46AAFD"/>
<stop offset="0.7363" stop-color="#54A1FB"/>
<stop offset="0.8181" stop-color="#6896F8"/>
<stop offset="0.8928" stop-color="#8387F4"/>
<stop offset="0.9613" stop-color="#A274EF"/>
<stop offset="1" stop-color="#B868EC"/>
</linearGradient>
<linearGradient id="paint31_linear_1441_10298" x1="179.769" y1="63.2061" x2="119.237" y2="98.1546" gradientUnits="userSpaceOnUse">
<stop stop-color="#3BB0FF" stop-opacity="0.5"/>
<stop offset="0.3443" stop-color="#3BB0FF"/>
<stop offset="0.5314" stop-color="#3EAFFF"/>
<stop offset="0.6437" stop-color="#46AAFD"/>
<stop offset="0.7363" stop-color="#54A1FB"/>
<stop offset="0.8181" stop-color="#6896F8"/>
<stop offset="0.8928" stop-color="#8387F4"/>
<stop offset="0.9613" stop-color="#A274EF"/>
<stop offset="1" stop-color="#B868EC"/>
</linearGradient>
<linearGradient id="paint32_linear_1441_10298" x1="175.958" y1="139.246" x2="165.849" y2="145.083" gradientUnits="userSpaceOnUse">
<stop stop-color="#3BB0FF" stop-opacity="0.5"/>
<stop offset="0.3443" stop-color="#3BB0FF"/>
<stop offset="0.5314" stop-color="#3EAFFF"/>
<stop offset="0.6437" stop-color="#46AAFD"/>
<stop offset="0.7363" stop-color="#54A1FB"/>
<stop offset="0.8181" stop-color="#6896F8"/>
<stop offset="0.8928" stop-color="#8387F4"/>
<stop offset="0.9613" stop-color="#A274EF"/>
<stop offset="1" stop-color="#B868EC"/>
</linearGradient>
<radialGradient id="paint33_radial_1441_10298" cx="0" cy="0" r="1" gradientUnits="userSpaceOnUse" gradientTransform="translate(192.621 39.719) rotate(19.475) scale(77.2524 27.0962)">
<stop stop-color="white" stop-opacity="0.29"/>
<stop offset="1" stop-color="#4016BD" stop-opacity="0.09"/>
</radialGradient>
<radialGradient id="paint34_radial_1441_10298" cx="0" cy="0" r="1" gradientUnits="userSpaceOnUse" gradientTransform="translate(89.2737 152.042) scale(89.2758 89.2758)">
<stop stop-color="#BF00D1"/>
<stop offset="1" stop-opacity="0"/>
</radialGradient>
</defs>
</svg>
