<svg width="20" height="20" viewBox="0 0 20 20" fill="none" xmlns="http://www.w3.org/2000/svg">
<path d="M12.9823 9.99993C12.9823 11.6499 11.649 12.9833 9.99896 12.9833C8.34896 12.9833 7.01562 11.6499 7.01562 9.99993C7.01562 8.34993 8.34896 7.0166 9.99896 7.0166C11.649 7.0166 12.9823 8.34993 12.9823 9.99993Z" stroke="#0C111D" stroke-width="1.5" stroke-linecap="round" stroke-linejoin="round"/>
<path d="M10.0018 16.8918C12.9435 16.8918 15.6852 15.1584 17.5935 12.1584C18.3435 10.9834 18.3435 9.00843 17.5935 7.83343C15.6852 4.83343 12.9435 3.1001 10.0018 3.1001C7.06016 3.1001 4.31849 4.83343 2.41016 7.83343C1.66016 9.00843 1.66016 10.9834 2.41016 12.1584C4.31849 15.1584 7.06016 16.8918 10.0018 16.8918Z" stroke="#0C111D" stroke-width="1.5" stroke-linecap="round" stroke-linejoin="round"/>
</svg>
