<svg width="18" height="18" viewBox="0 0 18 18" fill="none" xmlns="http://www.w3.org/2000/svg">
<path d="M7.45169 7.1875C5.85794 8.78125 5.76419 11.3438 7.17044 13.0312C7.35794 13.2812 7.23294 13.1562 9.79544 15.7188C11.5142 17.4375 14.2954 17.4375 15.9829 15.7188C17.7017 14.0312 17.7017 11.25 15.9829 9.53125C14.9829 8.53125 14.3892 7.9375 14.0142 7.5625C13.7954 7.34375 13.3892 7.5 13.3892 7.8125C13.3579 8.21875 13.3267 8.625 13.2329 9C13.2017 9.125 13.2329 9.25 13.3267 9.34375L14.7642 10.7812C15.7954 11.8125 15.7954 13.4688 14.7642 14.5C13.7329 15.5312 12.0767 15.5312 11.0454 14.5L8.70169 12.1562C7.67044 11.125 7.67044 9.46875 8.70169 8.4375C8.88919 8.21875 9.13919 8.0625 9.42044 7.9375C9.54544 7.84375 9.63919 7.6875 9.60794 7.53125C9.57669 7.1875 9.42044 6.84375 9.13919 6.59375L9.01419 6.46875C8.88919 6.34375 8.73294 6.3125 8.57669 6.375C8.17044 6.59375 7.79544 6.84375 7.45169 7.1875ZM2.57669 2.3125C0.857937 4 0.857937 6.78125 2.57669 8.5C3.57669 9.5 4.17044 10.0938 4.54544 10.4688C4.76419 10.6875 5.17044 10.5312 5.17044 10.2188C5.20169 9.8125 5.23294 9.40625 5.32669 9.03125C5.35794 8.90625 5.32669 8.78125 5.23294 8.6875L3.79544 7.25C2.76419 6.21875 2.76419 4.5625 3.79544 3.53125C4.82669 2.5 6.48294 2.5 7.51419 3.53125L9.85794 5.875C10.8892 6.90625 10.8892 8.5625 9.85794 9.59375C9.67044 9.8125 9.42044 9.96875 9.13919 10.0938C9.01419 10.1875 8.92044 10.3438 8.95169 10.5C8.98294 10.8438 9.13919 11.1875 9.42044 11.4375L9.54544 11.5625C9.67044 11.6875 9.82669 11.7188 9.98294 11.6562C10.3892 11.4375 10.7642 11.1875 11.1079 10.8438C12.7017 9.25 12.7954 6.6875 11.3892 5C11.2017 4.75 11.3267 4.875 8.76419 2.3125C7.04544 0.59375 4.26419 0.59375 2.57669 2.3125Z" fill="#0C111D"/>
</svg>
