<svg width="18" height="16" viewBox="0 0 18 16" fill="none" xmlns="http://www.w3.org/2000/svg">
<path d="M15.6194 4.50659L13.3728 13.5266C13.2128 14.1999 12.6128 14.6666 11.9194 14.6666H3.15944C2.15277 14.6666 1.43278 13.6799 1.73278 12.7132L4.53944 3.69995C4.73277 3.07328 5.31278 2.63989 5.96612 2.63989H14.1661C14.7994 2.63989 15.3261 3.02656 15.5461 3.5599C15.6728 3.84656 15.6994 4.17326 15.6194 4.50659Z" stroke="#0C111D" stroke-width="1.5" stroke-miterlimit="10"/>
<path d="M11.668 14.6667H14.8546C15.7146 14.6667 16.388 13.94 16.328 13.08L15.668 4" stroke="#0C111D" stroke-width="1.5" stroke-miterlimit="10" stroke-linecap="round" stroke-linejoin="round"/>
<path d="M7.45312 4.25326L8.14646 1.37329" stroke="#0C111D" stroke-width="1.5" stroke-miterlimit="10" stroke-linecap="round" stroke-linejoin="round"/>
<path d="M11.9219 4.26001L12.5485 1.3667" stroke="#0C111D" stroke-width="1.5" stroke-miterlimit="10" stroke-linecap="round" stroke-linejoin="round"/>
<path d="M6.13281 8H11.4661" stroke="#0C111D" stroke-width="1.5" stroke-miterlimit="10" stroke-linecap="round" stroke-linejoin="round"/>
<path d="M5.46484 10.6667H10.7982" stroke="#0C111D" stroke-width="1.5" stroke-miterlimit="10" stroke-linecap="round" stroke-linejoin="round"/>
</svg>
