<svg width="16" height="15" viewBox="0 0 16 15" fill="none" xmlns="http://www.w3.org/2000/svg">
<path fill-rule="evenodd" clip-rule="evenodd" d="M6.44692 1.28134C6.40937 1.34628 6.34847 1.39895 6.27336 1.43142L5.53094 1.75241C5.2449 1.87608 5.2449 2.22905 5.53094 2.35272L6.27336 2.67371C6.34847 2.70618 6.40937 2.75884 6.44692 2.82379L6.81813 3.46576C6.96115 3.7131 7.36935 3.7131 7.51238 3.46576L7.88355 2.82379C7.92109 2.75884 7.98201 2.70618 8.05717 2.67371L8.79961 2.35272C9.08565 2.22905 9.08565 1.87608 8.79961 1.75241L8.05717 1.43142C7.98201 1.39895 7.92109 1.34628 7.88355 1.28134L7.51238 0.639364C7.36935 0.392022 6.96115 0.392022 6.81813 0.639364L6.44692 1.28134ZM14.5617 2.36766C13.7985 1.70772 12.5611 1.70772 11.798 2.36766L1.31946 11.4285C0.556273 12.0884 0.556273 13.1583 1.31946 13.8183C2.08264 14.4782 3.32 14.4782 4.08319 13.8183L14.5617 4.75746C15.3249 4.09754 15.3249 3.02758 14.5617 2.36766ZM12.6213 3.07954C12.9297 2.81277 13.4299 2.81277 13.7384 3.07954C14.0469 3.3463 14.0469 3.77881 13.7384 4.04558L11.6274 5.87094L10.5103 4.9049L12.6213 3.07954ZM13.2596 8.81409C13.3348 8.78163 13.3957 8.72895 13.4332 8.66404L13.8044 8.02206C13.9475 7.77471 14.3556 7.77471 14.4987 8.02206L14.8698 8.66404C14.9074 8.72895 14.9683 8.78163 15.0435 8.81409L15.7859 9.13512C16.0719 9.25875 16.0719 9.61176 15.7859 9.73539L15.0435 10.0564C14.9683 10.0889 14.9074 10.1416 14.8698 10.2065L14.4987 10.8485C14.3556 11.0958 13.9475 11.0958 13.8044 10.8485L13.4332 10.2065C13.3957 10.1416 13.3348 10.0889 13.2596 10.0564L12.5173 9.73539C12.2312 9.61176 12.2312 9.25875 12.5173 9.13512L13.2596 8.81409ZM2.56587 4.63708C2.52832 4.70203 2.46742 4.75469 2.39231 4.78716L1.6499 5.10815C1.36385 5.23183 1.36385 5.5848 1.6499 5.70847L2.39231 6.02945C2.46742 6.06193 2.52832 6.11459 2.56587 6.17953L2.93708 6.82151C3.08011 7.06885 3.48831 7.06885 3.63132 6.82151L4.00253 6.17953C4.04009 6.11459 4.10098 6.06193 4.17609 6.02945L4.91852 5.70847C5.20456 5.5848 5.20456 5.23183 4.91852 5.10816L4.17609 4.78716C4.10098 4.75469 4.04009 4.70203 4.00253 4.63708L3.63132 3.99511C3.48831 3.74777 3.08011 3.74777 2.93708 3.99511L2.56587 4.63708Z" fill="url(#paint0_linear_1612_284)"/>
<defs>
<linearGradient id="paint0_linear_1612_284" x1="0.801546" y1="7.38309" x2="16.0032" y2="7.33427" gradientUnits="userSpaceOnUse">
<stop stop-color="#431DAB"/>
<stop offset="1" stop-color="#AE6DFE"/>
</linearGradient>
</defs>
</svg>
