<svg width="19" height="17" viewBox="0 0 19 17" fill="none" xmlns="http://www.w3.org/2000/svg">
<path fill-rule="evenodd" clip-rule="evenodd" d="M7.00975 1.015C6.96368 1.09465 6.88899 1.15925 6.79685 1.19909L5.88619 1.59281C5.53533 1.7445 5.53533 2.17746 5.88619 2.32915L6.79685 2.72289C6.88899 2.76271 6.96368 2.82731 7.00975 2.90697L7.46507 3.69442C7.6405 3.99781 8.1412 3.99781 8.31665 3.69442L8.77193 2.90697C8.81797 2.82731 8.89269 2.76271 8.98489 2.72289L9.89556 2.32915C10.2464 2.17746 10.2464 1.7445 9.89556 1.59281L8.98489 1.19909C8.89269 1.15925 8.81797 1.09465 8.77193 1.015L8.31665 0.227544C8.1412 -0.0758479 7.6405 -0.0758479 7.46507 0.227544L7.00975 1.015ZM16.9627 2.34746C16.0265 1.53798 14.5087 1.53798 13.5727 2.34746L0.719676 13.4615C-0.216454 14.271 -0.216454 15.5834 0.719676 16.3929C1.65579 17.2024 3.17355 17.2024 4.10968 16.3929L16.9627 5.27881C17.8988 4.46934 17.8988 3.15693 16.9627 2.34746ZM14.5825 3.22066C14.9609 2.89344 15.5744 2.89344 15.9528 3.22066C16.3312 3.54787 16.3312 4.07839 15.9528 4.40561L13.3635 6.64461L11.9932 5.45966L14.5825 3.22066ZM15.3632 10.2547C15.4554 10.2149 15.5301 10.1503 15.5761 10.0707L16.0314 9.28321C16.2069 8.97981 16.7075 8.97981 16.883 9.28321L17.3383 10.0707C17.3843 10.1503 17.459 10.2149 17.5512 10.2547L18.4619 10.6485C18.8128 10.8001 18.8128 11.2331 18.4619 11.3848L17.5512 11.7786C17.459 11.8184 17.3843 11.883 17.3383 11.9626L16.883 12.7501C16.7075 13.0535 16.2069 13.0535 16.0314 12.7501L15.5761 11.9626C15.5301 11.883 15.4554 11.8184 15.3632 11.7786L14.4526 11.3848C14.1017 11.2331 14.1017 10.8001 14.4526 10.6485L15.3632 10.2547ZM2.24782 5.13121C2.20175 5.21088 2.12706 5.27547 2.03493 5.3153L1.12427 5.70902C0.773404 5.86073 0.773404 6.29368 1.12427 6.44537L2.03493 6.8391C2.12706 6.87893 2.20175 6.94353 2.24782 7.02319L2.70314 7.81064C2.87858 8.11403 3.37928 8.11403 3.55471 7.81064L4.01003 7.02319C4.0561 6.94353 4.13079 6.87893 4.22292 6.8391L5.13359 6.44537C5.48445 6.29368 5.48445 5.86073 5.13359 5.70903L4.22292 5.3153C4.13079 5.27547 4.0561 5.21088 4.01003 5.13121L3.55471 4.34376C3.37928 4.04037 2.87858 4.04037 2.70314 4.34376L2.24782 5.13121Z" fill="#16140C"/>
</svg>
