<svg width="21" height="20" viewBox="0 0 21 20" fill="none" xmlns="http://www.w3.org/2000/svg">
<path fill-rule="evenodd" clip-rule="evenodd" d="M14.638 2.89139C15.4573 2.07201 16.7858 2.07201 17.6052 2.89139C18.4246 3.71076 18.4246 5.03923 17.6052 5.8586L6.35519 17.1086C5.53581 17.928 4.20734 17.928 3.38797 17.1086C2.56859 16.2892 2.56859 14.9608 3.38797 14.1414L14.638 2.89139ZM16.7213 3.77527C16.3901 3.44405 15.8531 3.44405 15.5219 3.77527L13.2555 6.04166L14.4549 7.24111L16.7213 4.97472C17.0525 4.6435 17.0525 4.10649 16.7213 3.77527Z" fill="#0F55DC"/>
<path d="M8.7071 1.72889C8.78774 1.68857 8.85312 1.62318 8.89344 1.54255L9.29198 0.745464C9.44553 0.438361 9.88378 0.438361 10.0374 0.745464L10.4359 1.54255C10.4762 1.62318 10.5416 1.68857 10.6223 1.72889L11.4194 2.12743C11.7265 2.28098 11.7265 2.71923 11.4194 2.87278L10.6223 3.27133C10.5416 3.31164 10.4762 3.37703 10.4359 3.45767L10.0374 4.25475C9.88378 4.56185 9.44553 4.56185 9.29198 4.25475L8.89344 3.45767C8.85312 3.37703 8.78774 3.31164 8.7071 3.27133L7.91001 2.87278C7.60291 2.71923 7.60291 2.28098 7.91001 2.12743L8.7071 1.72889Z" fill="#0F55DC"/>
<path d="M16.207 10.8954C16.2877 10.8551 16.3531 10.7897 16.3934 10.7091L16.7919 9.91197C16.9455 9.60486 17.3837 9.60486 17.5373 9.91197L17.9358 10.7091C17.9761 10.7897 18.0415 10.8551 18.1222 10.8954L18.9193 11.294C19.2264 11.4475 19.2264 11.8858 18.9193 12.0393L18.1222 12.4379C18.0415 12.4782 17.9761 12.5436 17.9358 12.6242L17.5373 13.4213C17.3837 13.7284 16.9455 13.7284 16.7919 13.4213L16.3934 12.6242C16.3531 12.5436 16.2877 12.4782 16.207 12.4379L15.41 12.0393C15.1029 11.8858 15.1029 11.4475 15.41 11.294L16.207 10.8954Z" fill="#0F55DC"/>
<path d="M4.53913 5.89539C4.61977 5.85507 4.68515 5.78969 4.72547 5.70905L5.12401 4.91197C5.27757 4.60487 5.71582 4.60487 5.86937 4.91197L6.26791 5.70905C6.30823 5.78969 6.37361 5.85507 6.45425 5.89539L7.25134 6.29394C7.55844 6.44749 7.55844 6.88574 7.25134 7.03929L6.45425 7.43783C6.37361 7.47815 6.30823 7.54354 6.26791 7.62417L5.86937 8.42126C5.71582 8.72836 5.27757 8.72836 5.12401 8.42126L4.72547 7.62417C4.68515 7.54354 4.61977 7.47815 4.53913 7.43783L3.74205 7.03929C3.43494 6.88574 3.43494 6.44749 3.74205 6.29393L4.53913 5.89539Z" fill="#0F55DC"/>
</svg>
