<svg width="20" height="20" viewBox="0 0 20 20" fill="none" xmlns="http://www.w3.org/2000/svg">
<path d="M17.7076 15.3917L16.3326 15.7167C16.0242 15.7917 15.7826 16.025 15.7159 16.3333L15.4242 17.5583C15.2659 18.225 14.4159 18.4333 13.9742 17.9083L11.4826 15.0417C11.2826 14.8083 11.3909 14.4417 11.6909 14.3667C13.1659 14.0083 14.4909 13.1833 15.4659 12.0083C15.6242 11.8167 15.9076 11.7917 16.0826 11.9667L17.9326 13.8167C18.5659 14.45 18.3409 15.2417 17.7076 15.3917Z" fill="#16140C"/>
<path d="M2.25062 15.3917L3.62562 15.7167C3.93396 15.7917 4.17562 16.025 4.24229 16.3333L4.53396 17.5583C4.69229 18.225 5.54229 18.4333 5.98396 17.9083L8.47562 15.0417C8.67562 14.8083 8.56729 14.4417 8.26729 14.3667C6.79229 14.0083 5.46729 13.1833 4.49229 12.0083C4.33396 11.8167 4.05062 11.7917 3.87562 11.9667L2.02562 13.8167C1.39229 14.45 1.61729 15.2417 2.25062 15.3917Z" fill="#16140C"/>
<path d="M9.99935 1.66675C6.77435 1.66675 4.16602 4.27508 4.16602 7.50008C4.16602 8.70842 4.52435 9.81675 5.14102 10.7417C6.04102 12.0751 7.46602 13.0167 9.12435 13.2584C9.40768 13.3084 9.69935 13.3334 9.99935 13.3334C10.2993 13.3334 10.591 13.3084 10.8743 13.2584C12.5327 13.0167 13.9577 12.0751 14.8577 10.7417C15.4743 9.81675 15.8327 8.70842 15.8327 7.50008C15.8327 4.27508 13.2243 1.66675 9.99935 1.66675ZM12.5493 7.31675L11.8577 8.00841C11.741 8.12508 11.6743 8.35008 11.716 8.51675L11.916 9.37508C12.0743 10.0501 11.716 10.3167 11.116 9.95842L10.2827 9.46675C10.1327 9.37508 9.88268 9.37508 9.73268 9.46675L8.89935 9.95842C8.29935 10.3084 7.94102 10.0501 8.09935 9.37508L8.29935 8.51675C8.33268 8.35842 8.27435 8.12508 8.15768 8.00841L7.44935 7.31675C7.04102 6.90841 7.17435 6.50008 7.74102 6.40841L8.63268 6.25842C8.78268 6.23342 8.95768 6.10008 9.02435 5.96675L9.51602 4.98341C9.78268 4.45008 10.216 4.45008 10.4827 4.98341L10.9743 5.96675C11.041 6.10008 11.216 6.23342 11.3743 6.25842L12.266 6.40841C12.8243 6.50008 12.9577 6.90841 12.5493 7.31675Z" fill="#16140C"/>
</svg>
