<svg width="20" height="18" viewBox="0 0 20 18" fill="none" xmlns="http://www.w3.org/2000/svg">
<path d="M15.3696 12.6225L15.6752 14.9925C15.7536 15.615 15.0562 16.05 14.4998 15.7275L11.2165 13.86C10.8561 13.86 10.5034 13.8375 10.1587 13.7925C10.7385 13.14 11.0833 12.315 11.0833 11.4225C11.0833 9.29249 9.15564 7.56752 6.77349 7.56752C5.86451 7.56752 5.02606 7.815 4.32865 8.25C4.30514 8.0625 4.2973 7.87499 4.2973 7.67999C4.2973 4.26749 7.39253 1.5 11.2165 1.5C15.0405 1.5 18.1357 4.26749 18.1357 7.67999C18.1357 9.70499 17.0465 11.4975 15.3696 12.6225Z" stroke="#111112" stroke-width="1.5" stroke-linecap="round" stroke-linejoin="round"/>
<path d="M11.0833 11.4223C11.0833 12.3148 10.7385 13.1399 10.1587 13.7924C9.3829 14.6924 8.15264 15.2699 6.7735 15.2699L4.72829 16.4323C4.38351 16.6348 3.94469 16.3574 3.99171 15.9749L4.18761 14.4974C3.13758 13.7999 2.46368 12.6823 2.46368 11.4223C2.46368 10.1023 3.20027 8.93986 4.32866 8.24986C5.02607 7.81486 5.86452 7.56738 6.7735 7.56738C9.15565 7.56738 11.0833 9.29235 11.0833 11.4223Z" stroke="#111112" stroke-width="1.5" stroke-linecap="round" stroke-linejoin="round"/>
</svg>
