<svg width="66" height="66" viewBox="0 0 66 66" fill="none" xmlns="http://www.w3.org/2000/svg">
<path opacity="0.5" d="M16.429 60.4235C5.1765 53.8894 5.20723 43.3201 16.5455 36.757C27.8833 30.1941 46.218 30.2216 57.4705 36.7557C68.7231 43.2897 68.6923 53.8591 57.3541 60.4222C46.0002 66.9256 27.6816 66.9576 16.429 60.4235Z" fill="#D6E1FB"/>
<path d="M9.41344 53.2391C-1.83925 46.705 -1.80829 36.1357 9.52989 29.5727C20.8677 23.0097 39.2024 23.0373 50.4549 29.5713C61.7075 36.1054 61.6763 46.6748 50.3385 53.2378C38.9846 59.7413 20.666 59.7732 9.41344 53.2391Z" fill="white" stroke="#0C111D" stroke-width="0.5" stroke-linejoin="round"/>
<path d="M58.9124 47.5887C58.9254 51.9117 56.0926 56.2 50.3749 59.4788C39.0588 66.0042 20.7241 65.9766 9.44992 59.4801C3.83143 56.2428 1.06374 51.9886 1.06656 47.7252L1.02539 41.3144C1.02258 45.5776 3.84961 49.8158 9.44645 53.0911C20.699 59.6248 39.0337 59.6524 50.3715 53.0894C56.0891 49.8111 58.9436 45.4847 58.909 41.1997L58.9124 47.5887Z" fill="#0F55DC" stroke="#0C111D" stroke-width="0.5" stroke-linejoin="round"/>
<path d="M57.3652 39.6673L34.8701 53.4639L14.0762 41.4762L36.5977 27.7056L57.3652 39.6673Z" fill="#D6E1FB"/>
<path d="M50.7062 18.1333L50.6287 40.8451L29.9902 52.8067L30.0677 30.1208L50.7062 18.1333Z" fill="#D6E1FB" stroke="#0C111D" stroke-width="0.5" stroke-linejoin="round"/>
<path d="M30.0681 30.1208L29.9906 52.8067L9.22266 40.8451L9.27417 18.1333L30.0681 30.1208Z" fill="#D6E1FB" stroke="#0C111D" stroke-width="0.5" stroke-linejoin="round"/>
<path d="M50.7058 18.1329L30.0673 30.1204L9.27344 18.1329L29.9379 6.17114L50.7058 18.1329Z" fill="#D6E1FB" stroke="#0C111D" stroke-width="0.5" stroke-linejoin="round"/>
<path d="M30.0673 30.1204L9.27344 18.1329L29.9379 6.17114L30.0673 30.1204Z" fill="#D6E1FB" stroke="#0C111D" stroke-width="0.5" stroke-linejoin="round"/>
<path d="M56.4497 12.9875L50.7304 18.1472L29.9629 6.18543L35.6563 1L56.4497 12.9875Z" fill="#D6E1FB" stroke="#0C111D" stroke-width="0.5" stroke-linejoin="round"/>
<path d="M3.60547 12.9875L9.32439 18.1472L30.0923 6.18543L24.3989 1L3.60547 12.9875Z" fill="#D6E1FB" stroke="#0C111D" stroke-width="0.5" stroke-linejoin="round"/>
<path opacity="0.3" fill-rule="evenodd" clip-rule="evenodd" d="M35.5341 4.35798C35.8034 5.47423 34.3839 6.19405 33.6394 5.31883L33.2671 5.63434C34.3445 6.9009 36.3986 5.85926 36.009 4.2439L35.5341 4.35798ZM30.1399 17.7517C30.2788 18.024 30.4381 18.2635 30.6152 18.4692L29.9368 18.0784L29.4191 18.3781L30.1399 17.7517ZM35.0843 18.2474C34.0606 19.1366 33.0333 19.4865 32.1441 19.3499L40.3206 24.0593L30.0658 30.0401L21.286 25.0206L20.9734 25.0811L20.2353 26.3572L17.5748 26.8216L19.6483 23.2305L29.5485 14.6864C29.6113 12.1376 30.7156 9.26958 32.4268 7.49046L38.4263 10.9309C38.283 13.6375 36.9709 16.6081 35.0843 18.2474ZM19.5003 10.5147C19.4141 10.4093 19.4293 10.254 19.5349 10.1677C19.6405 10.0814 19.7964 10.0969 19.8825 10.2022C20.4639 10.9104 20.8293 11.5151 21.0349 12.0256C21.0479 12.0224 21.0604 12.0193 21.0734 12.0165C21.4851 11.9246 21.8699 12.0489 22.2015 12.2779C22.8483 12.7251 23.3638 13.6188 23.6734 14.4321C23.7218 14.5593 23.6578 14.7017 23.5305 14.7501C23.4028 14.7985 23.2599 14.7344 23.2115 14.6072C22.9132 13.8233 22.4426 13.0445 21.9201 12.6833C21.6686 12.5096 21.4253 12.4453 21.1877 12.4963C21.1972 12.5372 21.2059 12.5773 21.2132 12.6167C21.3305 13.2368 21.1691 13.693 20.8665 13.9497C20.5834 14.1899 20.1639 14.245 19.8882 14.019C19.7436 13.9004 19.6661 13.7218 19.676 13.5165C19.6851 13.3193 19.773 13.108 19.9297 12.8902C20.1388 12.6 20.3574 12.38 20.5847 12.2297C20.4063 11.7795 20.0726 11.2116 19.5003 10.5147ZM20.5466 13.574C20.6773 13.4631 20.8167 13.2124 20.7323 12.7339C20.6046 12.8399 20.4704 12.9846 20.331 13.178C20.2076 13.3493 20.1726 13.4698 20.1695 13.5397C20.1665 13.6017 20.1868 13.6257 20.2016 13.6379C20.2453 13.6735 20.3942 13.7033 20.5466 13.574ZM15.1913 17.8604L14.9004 16.7642L15.4186 16.6272L15.703 17.6989C15.9337 17.2969 16.5458 17.3715 16.6666 17.8277L16.7791 18.2528C17.0103 17.8509 17.622 17.9254 17.7432 18.3817L17.8557 18.8067C18.0865 18.4048 18.6986 18.4793 18.8194 18.9356L19.1103 20.0319L18.5917 20.1687L18.3077 19.0971C18.0765 19.4991 17.4648 19.4245 17.3441 18.9682L17.2311 18.5431C17.0003 18.9452 16.3887 18.8706 16.2675 18.4143L16.1549 17.9892C15.9237 18.3912 15.3121 18.3167 15.1913 17.8604ZM27.359 10.6314C28.0313 11.4543 27.8421 12.6765 26.9529 13.2588L26.662 12.8163C27.2884 12.4062 27.4213 11.5453 26.9482 10.9658L26.8806 10.883L27.2915 10.5486L27.359 10.6314ZM47.0607 13.3106L46.8144 14.1939C46.7118 14.5625 46.2694 14.6664 46.0075 14.4422L45.9395 14.687C45.8365 15.0556 45.3941 15.1594 45.1326 14.9353L45.0642 15.1801C44.9616 15.5486 44.5192 15.6525 44.2577 15.4283L44.0547 16.1562L43.4906 15.9996L43.737 15.1163C43.84 14.7477 44.2824 14.6439 44.5439 14.868L44.6123 14.6232C44.7149 14.2547 45.1573 14.1508 45.4192 14.375L45.4871 14.1302C45.5902 13.7616 46.0326 13.6577 46.294 13.8819L46.4971 13.154L47.0607 13.3106ZM40.7929 20.4136C40.8007 20.4551 40.8093 20.4976 40.8188 20.5412C40.8695 20.7741 40.9548 20.8946 41.0253 20.9517C41.0907 21.0045 41.1639 21.0199 41.2452 21.0028C41.424 20.9653 41.6708 20.7524 41.7548 20.3528C41.7855 20.207 41.9292 20.1137 42.0751 20.1444C42.2214 20.1751 42.3149 20.3182 42.2842 20.464C42.1686 21.0106 41.8011 21.4375 41.3565 21.5309C41.1266 21.5792 40.8855 21.5328 40.6855 21.3713C40.5067 21.2271 40.3808 21.008 40.3089 20.7322C40.0912 20.8604 39.844 20.9887 39.5652 21.116C39.4297 21.178 39.2691 21.1184 39.2072 20.9829C39.1449 20.8474 39.2046 20.6873 39.3405 20.6253C39.6873 20.4669 39.973 20.3109 40.2072 20.1614C40.1327 19.5161 40.2262 19.0485 40.4258 18.7445C40.6782 18.3592 41.1305 18.2335 41.4587 18.4873C41.7846 18.7395 41.7989 19.2159 41.5197 19.6677C41.3725 19.9057 41.1374 20.1575 40.7929 20.4136ZM40.7223 19.7742C40.8794 19.6316 40.9881 19.5001 41.0595 19.3843C41.2617 19.0574 41.1461 18.9283 41.1275 18.9138C41.111 18.901 41.0041 18.8478 40.8782 19.0398C40.7942 19.1682 40.718 19.4009 40.7223 19.7742Z" fill="white"/>
<path d="M22.9989 25.8081L24.3274 26.2702L21.6625 26.796L20.334 26.3339L22.9989 25.8081Z" fill="#E9D87E" stroke="#0C111D" stroke-width="0.5" stroke-linejoin="round"/>
<path d="M23.7376 24.5332L25.0662 24.9953L24.3285 26.2714L23 25.8093L23.7376 24.5332Z" fill="white" stroke="#0C111D" stroke-width="0.5" stroke-linejoin="round"/>
<path d="M24.6785 24.3496L26.0356 24.8445L25.0668 24.9937L23.7383 24.5316L24.6785 24.3496Z" fill="#0C111D" stroke="#0C111D" stroke-width="0.5" stroke-linejoin="round"/>
<path d="M25.4158 23.0725L26.7729 23.5674L26.0349 24.8436L24.6777 24.3486L25.4158 23.0725Z" fill="white" stroke="#0C111D" stroke-width="0.5" stroke-linejoin="round"/>
<path d="M26.3829 22.927L27.7118 23.3891L26.7712 23.5711L25.4141 23.0761L26.3829 22.927Z" fill="#0C111D" stroke="#0C111D" stroke-width="0.5" stroke-linejoin="round"/>
<path d="M27.0938 21.6174L28.451 22.1124L27.7133 23.3885L26.3848 22.9264L27.0938 21.6174Z" fill="white" stroke="#0C111D" stroke-width="0.5" stroke-linejoin="round"/>
<path d="M28.0301 21.4971L29.3915 21.9306L28.4513 22.1125L27.0938 21.6176L28.0301 21.4971Z" fill="#0C111D" stroke="#0C111D" stroke-width="0.5" stroke-linejoin="round"/>
<path d="M28.7689 20.2217L30.1303 20.6552L29.3927 21.9313L28.0312 21.4978L28.7689 20.2217Z" fill="white" stroke="#0C111D" stroke-width="0.5" stroke-linejoin="round"/>
<path d="M29.7059 20.0364L31.0673 20.4699L30.1271 20.6519L28.7656 20.2184L29.7059 20.0364Z" fill="#0C111D" stroke="#0C111D" stroke-width="0.5" stroke-linejoin="round"/>
<path d="M32.9007 17.2629L34.2626 17.6964L31.0704 20.4697L29.709 20.0362L32.9007 17.2629Z" fill="white" stroke="#0C111D" stroke-width="0.5" stroke-linejoin="round"/>
<path fill-rule="evenodd" clip-rule="evenodd" d="M38.7398 10.6319L37.4113 10.1698C37.1407 10.0586 36.7628 10.1559 36.4009 10.4704C35.6962 11.0825 35.2741 12.2695 35.42 13.1977L35.2031 13.1223C35.3118 13.6315 35.5728 14.0079 35.9252 14.1039L37.3641 14.6044C37.3983 14.6189 37.4329 14.631 37.468 14.6405L37.3641 14.6044C37.0741 14.4808 36.8356 14.1809 36.7576 13.7343L36.762 13.7359C36.5797 12.7974 37.0052 11.5615 37.7295 10.9325C38.0914 10.618 38.4364 10.5492 38.7398 10.6319Z" fill="white"/>
<path d="M37.4119 10.1702L37.3704 10.2702L37.376 10.2722L37.4119 10.1702ZM38.7405 10.6323L38.7119 10.7365C38.7682 10.7518 38.8266 10.7199 38.8435 10.6643C38.8608 10.6087 38.8309 10.5494 38.776 10.5303L38.7405 10.6323ZM35.4206 13.198L35.3851 13.3C35.4211 13.3125 35.4609 13.3053 35.4899 13.2809C35.5193 13.2566 35.5336 13.2188 35.5276 13.1813L35.4206 13.198ZM35.2038 13.1227L35.2397 13.0206C35.2025 13.0078 35.1618 13.0159 35.1323 13.0416C35.1029 13.0674 35.0899 13.107 35.0981 13.1451L35.2038 13.1227ZM35.9258 14.1043L35.9613 14.0023C35.9592 14.0015 35.9566 14.0008 35.9544 14.0001L35.9258 14.1043ZM37.4686 14.6409L37.4401 14.7451C37.4963 14.7604 37.5548 14.7285 37.5721 14.6729C37.5894 14.6173 37.5591 14.558 37.5041 14.5389L37.4686 14.6409ZM36.7583 13.7347L36.7938 13.6327C36.7574 13.6201 36.7171 13.6276 36.6881 13.6523C36.6587 13.6771 36.6448 13.7155 36.6513 13.7532L36.7583 13.7347ZM36.7626 13.7362L36.7271 13.8382C36.7635 13.8509 36.8042 13.8432 36.8336 13.8179C36.8626 13.7926 36.876 13.7536 36.8687 13.7157L36.7626 13.7362ZM37.376 10.2722L38.7045 10.7343L38.776 10.5303L37.4474 10.0682L37.376 10.2722ZM36.4726 10.5522C36.8197 10.2504 37.1544 10.1813 37.3704 10.2702L37.4531 10.0703C37.128 9.93664 36.7068 10.0622 36.3301 10.3893L36.4726 10.5522ZM35.5276 13.1813C35.4579 12.7385 35.5232 12.2282 35.6938 11.7522C35.8648 11.2763 36.1371 10.8435 36.4726 10.5522L36.3301 10.3893C35.9613 10.7101 35.6704 11.1769 35.4903 11.6795C35.3098 12.1822 35.2375 12.7294 35.3137 13.2148L35.5276 13.1813ZM35.1683 13.2247L35.3851 13.3L35.4561 13.096L35.2397 13.0206L35.1683 13.2247ZM35.9544 14.0001C35.66 13.9199 35.4146 13.5938 35.3098 13.1002L35.0981 13.1451C35.2098 13.67 35.4869 14.0966 35.8972 14.2085L35.9544 14.0001ZM37.4002 14.5028L35.9613 14.0023L35.8903 14.2063L37.3293 14.7068L37.4002 14.5028ZM37.3223 14.7041C37.3608 14.7205 37.4002 14.7342 37.4401 14.7451L37.4972 14.5367C37.4669 14.5284 37.4366 14.518 37.4072 14.5055L37.3223 14.7041ZM37.5041 14.5389L37.4002 14.5028L37.3293 14.7068L37.4331 14.7429L37.5041 14.5389ZM36.6513 13.7532C36.7345 14.2282 36.992 14.5634 37.3223 14.7041L37.4072 14.5055C37.1574 14.399 36.9379 14.1343 36.8648 13.7161L36.6513 13.7532ZM36.7981 13.6342L36.7938 13.6327L36.7223 13.8367L36.7271 13.8382L36.7981 13.6342ZM37.6591 10.8514C37.2795 11.181 36.9829 11.6648 36.8042 12.1833C36.6254 12.7018 36.5609 13.265 36.6561 13.7568L36.8687 13.7157C36.7821 13.269 36.8392 12.7449 37.0089 12.2537C37.1782 11.7623 37.4565 11.3137 37.8011 11.0143L37.6591 10.8514ZM38.769 10.5281C38.424 10.4342 38.0427 10.5178 37.6591 10.8514L37.8011 11.0143C38.1409 10.7189 38.4496 10.665 38.7119 10.7365L38.769 10.5281Z" fill="#0C111D"/>
<path d="M40.3666 6.01343L38.9433 5.54688C39.9398 5.89341 40.7709 6.87465 41.0952 8.44013C41.7038 11.5358 40.2419 15.6786 37.8788 17.732C36.6944 18.7612 35.4992 19.049 34.5312 18.7353L35.8598 19.1974C36.8277 19.5111 38.0229 19.2233 39.2073 18.194C41.5436 16.1642 43.0068 12.0062 42.4198 8.87951C42.093 7.32738 41.3584 6.35833 40.3666 6.01343Z" fill="white" stroke="#0C111D" stroke-width="0.5" stroke-linejoin="round"/>
<path d="M41.0556 8.44615C41.6759 11.5443 40.2127 15.7022 37.8435 17.7607C35.8691 19.4761 33.8791 19.1844 32.8991 17.265L29.7074 20.0381L28.7671 20.2201L28.029 21.4962L27.0888 21.6782L26.3512 22.9543L25.4109 23.1363L24.6728 24.4124L23.7326 24.5944L22.995 25.8705L20.334 26.3349L22.4075 22.7437L32.3077 14.1996C32.3761 11.4268 33.677 8.2761 35.6514 6.5607C38.0206 4.50224 40.4357 5.34797 41.0556 8.44615ZM35.4332 13.2736C35.6154 14.212 36.3414 14.4473 37.0652 13.8183C37.7894 13.1893 38.215 11.9534 38.0327 11.015C37.8505 10.0765 37.1245 9.84124 36.4336 10.4416C35.7098 11.0706 35.2795 12.368 35.4332 13.2736Z" fill="#0F55DC" stroke="#0C111D" stroke-width="0.5" stroke-linejoin="round"/>
<path d="M20.1778 47.0973L18.3945 46.0698L18.3929 23.8023L20.1761 24.8298L20.1778 47.0973Z" fill="white" stroke="#0C111D" stroke-width="0.5"/>
<path d="M39.2597 47.3696L41.043 46.342L41.0446 24.1452L39.2614 25.1727L39.2597 47.3696Z" fill="white" stroke="#0C111D" stroke-width="0.5"/>
<path d="M29.9376 39.6324L9.36719 27.7795L9.36648 18.3424L29.9369 30.1953L29.9376 39.6324Z" fill="#0C111D" fill-opacity="0.3"/>
<path d="M30.0654 30.1232L24.346 35.2829L3.57812 23.3212L9.2715 18.1357L30.0654 30.1232Z" fill="#D6E1FB" stroke="#0C111D" stroke-width="0.5" stroke-linejoin="round"/>
<path d="M29.9648 30.1232L35.6842 35.2829L56.4521 23.3212L50.7587 18.1357L29.9648 30.1232Z" fill="#D6E1FB" stroke="#0C111D" stroke-width="0.5" stroke-linejoin="round"/>
<path fill-rule="evenodd" clip-rule="evenodd" d="M19.6531 9.64691C19.5475 9.73319 19.5319 9.88851 19.6185 9.99388C20.1903 10.6908 20.5245 11.2587 20.7024 11.7089C20.4752 11.8592 20.2566 12.0792 20.0479 12.3693C19.8908 12.5872 19.8033 12.7985 19.7938 12.9957C19.7843 13.2009 19.8613 13.3795 20.0059 13.4982C20.2821 13.7242 20.7016 13.6691 20.9847 13.4289C21.2873 13.1722 21.4487 12.7161 21.3314 12.0959C21.3236 12.0565 21.3154 12.0164 21.3055 11.9755C21.5436 11.9245 21.7868 11.9888 22.0379 12.1624C22.5604 12.5236 23.0314 13.3025 23.3297 14.0863C23.3781 14.2137 23.5206 14.2776 23.6483 14.2293C23.776 14.1809 23.84 14.0385 23.7916 13.9112C23.482 13.098 22.9665 12.2043 22.3193 11.7571C21.9881 11.5281 21.6033 11.4038 21.1916 11.4956C21.1786 11.4985 21.1656 11.5016 21.1531 11.5048C20.9475 10.9943 20.5817 10.3895 20.0007 9.68139C19.9141 9.57606 19.7583 9.56059 19.6531 9.64691ZM20.8505 12.2131C20.9345 12.6916 20.7955 12.9422 20.6648 13.0531C20.512 13.1825 20.3631 13.1527 20.3198 13.1171C20.3046 13.1048 20.2843 13.0809 20.2873 13.0189C20.2908 12.949 20.3254 12.8285 20.4488 12.6571C20.5882 12.4638 20.7228 12.3191 20.8505 12.2131Z" fill="#3BCFF0" stroke="#0C111D" stroke-width="0.5"/>
<path fill-rule="evenodd" clip-rule="evenodd" d="M15.308 17.343L15.0176 16.2467L15.5358 16.1099L15.8197 17.1815C16.0509 16.7795 16.6626 16.8541 16.7838 17.3104L16.8963 17.7354C17.1271 17.3334 17.7392 17.408 17.8599 17.8643L17.9725 18.2893C18.2037 17.8873 18.8153 17.9619 18.9365 18.4182L19.227 19.5144L18.7088 19.6513L18.4244 18.5797C18.1937 18.9817 17.582 18.9071 17.4608 18.4509L17.3483 18.0258C17.1171 18.4277 16.5054 18.3532 16.3846 17.8969L16.2717 17.4719C16.0409 17.8738 15.4293 17.7993 15.308 17.343Z" fill="white" stroke="#0C111D" stroke-width="0.5"/>
<path fill-rule="evenodd" clip-rule="evenodd" d="M47.2573 14.3387L47.5036 13.4554L46.9396 13.2988L46.7366 14.0267C46.4751 13.8025 46.0327 13.9064 45.9301 14.275L45.8617 14.5198C45.6002 14.2956 45.1578 14.3995 45.0548 14.7681L44.9868 15.0128C44.7249 14.7887 44.2825 14.8926 44.1799 15.2612L43.9336 16.1445L44.4972 16.301L44.7002 15.5732C44.9617 15.7973 45.4041 15.6935 45.5071 15.3249L45.5751 15.0801C45.837 15.3043 46.2794 15.2004 46.382 14.8318L46.4504 14.587C46.7119 14.8112 47.1543 14.7074 47.2573 14.3387Z" fill="#FFED8C" stroke="#0C111D" stroke-width="0.5"/>
<path fill-rule="evenodd" clip-rule="evenodd" d="M41.2356 20.5548C41.2433 20.5963 41.252 20.6388 41.2615 20.6824C41.3122 20.9153 41.3975 21.0358 41.468 21.0929C41.5334 21.1457 41.6065 21.1611 41.6879 21.144C41.8667 21.1065 42.113 20.8936 42.1974 20.4941C42.2282 20.3482 42.3715 20.2549 42.5178 20.2856C42.6637 20.3163 42.7572 20.4594 42.7264 20.6052C42.6113 21.1518 42.2438 21.5787 41.7992 21.672C41.5693 21.7204 41.3282 21.674 41.1282 21.5125C40.9494 21.3683 40.8234 21.1492 40.7516 20.8734C40.5338 21.0016 40.2867 21.1299 40.0079 21.2572C39.872 21.3192 39.7118 21.2596 39.6494 21.1241C39.5875 20.9887 39.6473 20.8285 39.7828 20.7665C40.13 20.6081 40.4157 20.4521 40.6499 20.3026C40.575 19.6573 40.6689 19.1897 40.868 18.8857C41.1204 18.5004 41.5732 18.3747 41.9013 18.6285C42.2273 18.8807 42.2416 19.3571 41.9624 19.8089C41.8152 20.0469 41.5801 20.2987 41.2356 20.5548ZM41.165 19.9155C41.3221 19.7728 41.4308 19.6413 41.5022 19.5256C41.7044 19.1987 41.5888 19.0695 41.5702 19.0551C41.5537 19.0423 41.4464 18.989 41.3208 19.181C41.2364 19.3095 41.1607 19.5421 41.165 19.9155Z" fill="#F4FC83" stroke="#0C111D" stroke-width="0.5"/>
<path fill-rule="evenodd" clip-rule="evenodd" d="M35.5335 24.1369C34.7166 23.2294 33.2301 24.0358 33.5491 25.2134L33.0482 25.3486C32.5868 23.6445 34.7374 22.4775 35.9196 23.7908L35.5335 24.1369Z" fill="#00BEDA" stroke="#0C111D" stroke-width="0.5"/>
<path fill-rule="evenodd" clip-rule="evenodd" d="M33.7736 5.12193C34.7203 5.7743 35.9038 4.71142 35.3536 3.70318L35.7826 3.46997C36.5791 4.92903 34.8658 6.46716 33.4961 5.52312L33.7736 5.12193Z" fill="white" stroke="#0C111D" stroke-width="0.5"/>
<path fill-rule="evenodd" clip-rule="evenodd" d="M27.5158 10.4456C28.3548 11.0984 28.4431 12.332 27.7059 13.0973L27.3236 12.7305C27.8427 12.1915 27.7803 11.3226 27.1899 10.8628L27.1055 10.7971L27.4314 10.3799L27.5158 10.4456Z" fill="#F4FC83" stroke="#0C111D" stroke-width="0.5"/>
</svg>
