<svg width="16" height="18" viewBox="0 0 16 18" fill="none" xmlns="http://www.w3.org/2000/svg">
<path d="M3.41667 17.3333C1.80584 17.3333 0.5 16.0274 0.5 14.4166C0.5 13.0203 1.48117 11.8532 2.79167 11.567V8.9999C2.79167 8.6547 3.07149 8.3749 3.41667 8.3749H7.375V6.4328C6.06451 6.1467 5.08333 4.9796 5.08333 3.5833C5.08333 1.9724 6.38917 0.666601 8 0.666601C9.6108 0.666601 10.9167 1.9724 10.9167 3.5833C10.9167 4.9796 9.9355 6.1467 8.625 6.4328V8.3749H12.5833C12.9285 8.3749 13.2083 8.6547 13.2083 8.9999V11.567C14.5188 11.8532 15.5 13.0203 15.5 14.4166C15.5 16.0274 14.1942 17.3333 12.5833 17.3333C10.9725 17.3333 9.6667 16.0274 9.6667 14.4166C9.6667 13.0203 10.6478 11.8532 11.9583 11.567V9.62492H4.04167V11.567C5.35216 11.8532 6.33333 13.0203 6.33333 14.4166C6.33333 16.0274 5.0275 17.3333 3.41667 17.3333Z" fill="white"/>
</svg>
