<svg width="53" height="53" viewBox="0 0 53 53" fill="none" xmlns="http://www.w3.org/2000/svg">
<path d="M4.41797 19.8751V14.3542C4.41797 8.8555 8.85672 4.41675 14.3555 4.41675H19.8763" stroke="#FF8139" stroke-width="2.5" stroke-linecap="round" stroke-linejoin="round"/>
<path d="M33.125 4.41675H38.6458C44.1446 4.41675 48.5833 8.8555 48.5833 14.3542V19.8751" stroke="#FF8139" stroke-width="2.5" stroke-linecap="round" stroke-linejoin="round"/>
<path d="M48.582 35.3333V38.6458C48.582 44.1445 44.1433 48.5833 38.6445 48.5833H35.332" stroke="#FF8139" stroke-width="2.5" stroke-linecap="round" stroke-linejoin="round"/>
<path d="M19.8763 48.5833H14.3555C8.85672 48.5833 4.41797 44.1446 4.41797 38.6458V33.125" stroke="#FF8139" stroke-width="2.5" stroke-linecap="round" stroke-linejoin="round"/>
<path d="M37.5404 20.9792V32.0209C37.5404 36.4376 35.332 38.6459 30.9154 38.6459H22.082C17.6654 38.6459 15.457 36.4376 15.457 32.0209V20.9792C15.457 16.5626 17.6654 14.3542 22.082 14.3542H30.9154C35.332 14.3542 37.5404 16.5626 37.5404 20.9792Z" stroke="#FF8139" stroke-width="2.5" stroke-linecap="round" stroke-linejoin="round"/>
<path d="M41.9596 26.5H11.043" stroke="#FF8139" stroke-width="2.5" stroke-linecap="round" stroke-linejoin="round"/>
</svg>
