<svg width="21" height="20" viewBox="0 0 21 20" fill="none" xmlns="http://www.w3.org/2000/svg">
<path d="M11.9557 6.4585C11.9557 6.11332 11.6759 5.8335 11.3307 5.8335C10.9855 5.8335 10.7057 6.11332 10.7057 6.4585C10.7057 8.48 10.2591 9.79288 9.4413 10.6107C8.62345 11.4286 7.31056 11.8752 5.28906 11.8752C4.94388 11.8752 4.66406 12.155 4.66406 12.5002C4.66406 12.8453 4.94388 13.1252 5.28906 13.1252C7.31056 13.1252 8.62345 13.5717 9.4413 14.3896C10.2591 15.2074 10.7057 16.5203 10.7057 18.5418C10.7057 18.887 10.9855 19.1668 11.3307 19.1668C11.6759 19.1668 11.9557 18.887 11.9557 18.5418C11.9557 16.5203 12.4023 15.2074 13.2201 14.3896C14.038 13.5717 15.3509 13.1252 17.3724 13.1252C17.7176 13.1252 17.9974 12.8453 17.9974 12.5002C17.9974 12.155 17.7176 11.8752 17.3724 11.8752C15.3509 11.8752 14.038 11.4286 13.2201 10.6107C12.4023 9.79288 11.9557 8.48 11.9557 6.4585Z" fill="#0C111D"/>
<path d="M5.49739 4.58354C5.49739 4.35342 5.31084 4.16687 5.08072 4.16687C4.85061 4.16687 4.66406 4.35342 4.66406 4.58354C4.66406 5.40073 4.48305 5.89404 4.18714 6.18995C3.89123 6.48586 3.39792 6.66687 2.58072 6.66687C2.35061 6.66687 2.16406 6.85342 2.16406 7.08354C2.16406 7.31365 2.35061 7.5002 2.58072 7.5002C3.39792 7.5002 3.89123 7.68121 4.18714 7.97712C4.48305 8.27303 4.66406 8.76634 4.66406 9.58354C4.66406 9.81365 4.85061 10.0002 5.08072 10.0002C5.31084 10.0002 5.49739 9.81365 5.49739 9.58354C5.49739 8.76634 5.6784 8.27303 5.97431 7.97712C6.27022 7.68121 6.76353 7.5002 7.58072 7.5002C7.81084 7.5002 7.99739 7.31365 7.99739 7.08354C7.99739 6.85342 7.81084 6.66687 7.58072 6.66687C6.76353 6.66687 6.27022 6.48586 5.97431 6.18995C5.6784 5.89404 5.49739 5.40073 5.49739 4.58354Z" fill="#0C111D"/>
<path d="M9.66406 1.25016C9.66406 1.02004 9.47751 0.833496 9.24739 0.833496C9.01727 0.833496 8.83072 1.02004 8.83072 1.25016C8.83072 1.778 8.71337 2.06298 8.55346 2.2229C8.39354 2.38281 8.10857 2.50016 7.58072 2.50016C7.35061 2.50016 7.16406 2.68671 7.16406 2.91683C7.16406 3.14695 7.35061 3.3335 7.58072 3.3335C8.10857 3.3335 8.39354 3.45085 8.55346 3.61076C8.71337 3.77068 8.83072 4.05566 8.83072 4.5835C8.83072 4.81361 9.01727 5.00016 9.24739 5.00016C9.47751 5.00016 9.66406 4.81361 9.66406 4.5835C9.66406 4.05566 9.78141 3.77068 9.94132 3.61076C10.1012 3.45085 10.3862 3.3335 10.914 3.3335C11.1442 3.3335 11.3307 3.14695 11.3307 2.91683C11.3307 2.68671 11.1442 2.50016 10.914 2.50016C10.3862 2.50016 10.1012 2.38281 9.94132 2.2229C9.78141 2.06298 9.66406 1.778 9.66406 1.25016Z" fill="#0C111D"/>
</svg>
