<svg width="21" height="20" viewBox="0 0 21 20" fill="none" xmlns="http://www.w3.org/2000/svg">
<path d="M11.9586 6.4585C11.9586 6.11332 11.6788 5.8335 11.3336 5.8335C10.9884 5.8335 10.7086 6.11332 10.7086 6.4585C10.7086 8.48 10.262 9.79288 9.44423 10.6107C8.62638 11.4286 7.31349 11.8752 5.29199 11.8752C4.94681 11.8752 4.66699 12.155 4.66699 12.5002C4.66699 12.8453 4.94681 13.1252 5.29199 13.1252C7.31349 13.1252 8.62638 13.5717 9.44423 14.3896C10.262 15.2074 10.7086 16.5203 10.7086 18.5418C10.7086 18.887 10.9884 19.1668 11.3336 19.1668C11.6788 19.1668 11.9586 18.887 11.9586 18.5418C11.9586 16.5203 12.4052 15.2074 13.223 14.3896C14.0409 13.5717 15.3538 13.1252 17.3753 13.1252C17.7205 13.1252 18.0003 12.8453 18.0003 12.5002C18.0003 12.155 17.7205 11.8752 17.3753 11.8752C15.3538 11.8752 14.0409 11.4286 13.223 10.6107C12.4052 9.79288 11.9586 8.48 11.9586 6.4585Z" fill="#0F55DC"/>
<path d="M5.50032 4.58342C5.50032 4.3533 5.31377 4.16675 5.08365 4.16675C4.85354 4.16675 4.66699 4.3533 4.66699 4.58342C4.66699 5.40061 4.48598 5.89392 4.19007 6.18983C3.89416 6.48574 3.40085 6.66675 2.58365 6.66675C2.35354 6.66675 2.16699 6.8533 2.16699 7.08342C2.16699 7.31353 2.35354 7.50008 2.58365 7.50008C3.40085 7.50008 3.89416 7.68109 4.19007 7.977C4.48598 8.27291 4.66699 8.76622 4.66699 9.58342C4.66699 9.81353 4.85354 10.0001 5.08365 10.0001C5.31377 10.0001 5.50032 9.81353 5.50032 9.58342C5.50032 8.76622 5.68133 8.27291 5.97724 7.977C6.27315 7.68109 6.76646 7.50008 7.58365 7.50008C7.81377 7.50008 8.00032 7.31353 8.00032 7.08342C8.00032 6.8533 7.81377 6.66675 7.58365 6.66675C6.76646 6.66675 6.27315 6.48574 5.97724 6.18983C5.68133 5.89392 5.50032 5.40061 5.50032 4.58342Z" fill="#0F55DC"/>
<path d="M9.66699 1.25016C9.66699 1.02004 9.48044 0.833496 9.25032 0.833496C9.0202 0.833496 8.83365 1.02004 8.83365 1.25016C8.83365 1.778 8.7163 2.06298 8.55639 2.2229C8.39647 2.38281 8.1115 2.50016 7.58365 2.50016C7.35354 2.50016 7.16699 2.68671 7.16699 2.91683C7.16699 3.14695 7.35354 3.3335 7.58365 3.3335C8.1115 3.3335 8.39647 3.45085 8.55639 3.61076C8.7163 3.77068 8.83365 4.05566 8.83365 4.5835C8.83365 4.81361 9.0202 5.00016 9.25032 5.00016C9.48044 5.00016 9.66699 4.81361 9.66699 4.5835C9.66699 4.05566 9.78434 3.77068 9.94425 3.61076C10.1041 3.45085 10.3891 3.3335 10.9169 3.3335C11.1471 3.3335 11.3336 3.14695 11.3336 2.91683C11.3336 2.68671 11.1471 2.50016 10.9169 2.50016C10.3891 2.50016 10.1041 2.38281 9.94425 2.2229C9.78434 2.06298 9.66699 1.778 9.66699 1.25016Z" fill="#0F55DC"/>
</svg>
