<svg width="51" height="51" viewBox="0 0 51 51" fill="none" xmlns="http://www.w3.org/2000/svg">
<path opacity="0.54" d="M24.5193 9.44219C24.9974 8.76468 26.0022 8.76468 26.4803 9.44219L45.4736 36.3582C46.0345 37.1532 45.466 38.2501 44.4931 38.2501H6.50648C5.53358 38.2501 4.96508 37.1531 5.52601 36.3582L24.5193 9.44219Z" fill="#FF8139"/>
<path d="M46.75 35.5726V9.92385C46.75 7.37385 44.6675 5.4826 42.1387 5.6951H42.0113C37.5488 6.0776 30.77 8.35135 26.9875 10.7313L26.6262 10.9651C26.01 11.3476 24.99 11.3476 24.3738 10.9651L23.8425 10.6463C20.06 8.2876 13.3025 6.0351 8.84 5.67385C6.31125 5.46135 4.25 7.37385 4.25 9.9026V35.5726C4.25 37.6126 5.9075 39.5251 7.9475 39.7801L8.56375 39.8651C13.175 40.4813 20.2938 42.8188 24.3738 45.0501L24.4588 45.0926C25.0325 45.4113 25.9463 45.4113 26.4988 45.0926C30.5788 42.8401 37.7188 40.4813 42.3513 39.8651L43.0525 39.7801C45.0925 39.5251 46.75 37.6126 46.75 35.5726Z" stroke="#0C111D" stroke-width="3" stroke-linecap="round" stroke-linejoin="round"/>
<path d="M25.5 11.6663V43.5413" stroke="#0C111D" stroke-width="3" stroke-linecap="round" stroke-linejoin="round"/>
<path d="M16.4688 18.0413H11.6875" stroke="#0C111D" stroke-width="3" stroke-linecap="round" stroke-linejoin="round"/>
<path d="M18.0625 24.4163H11.6875" stroke="#0C111D" stroke-width="3" stroke-linecap="round" stroke-linejoin="round"/>
</svg>
