<svg width="51" height="51" viewBox="0 0 51 51" fill="none" xmlns="http://www.w3.org/2000/svg">
<path opacity="0.54" d="M24.5193 9.44219C24.9974 8.76468 26.0022 8.76468 26.4803 9.44219L45.4736 36.3582C46.0345 37.1532 45.466 38.2501 44.4931 38.2501H6.50648C5.53358 38.2501 4.96508 37.1531 5.52601 36.3582L24.5193 9.44219Z" fill="#0F55DC"/>
<path d="M4.25 46.75H46.75" stroke="#0C111D" stroke-width="3" stroke-miterlimit="10" stroke-linecap="round" stroke-linejoin="round"/>
<path d="M20.7188 8.5V46.75H30.2812V8.5C30.2812 6.1625 29.325 4.25 26.4562 4.25H24.5438C21.675 4.25 20.7188 6.1625 20.7188 8.5Z" stroke="#0C111D" stroke-width="3" stroke-linecap="round" stroke-linejoin="round"/>
<path d="M6.375 21.25V46.75H14.875V21.25C14.875 18.9125 14.025 17 11.475 17H9.775C7.225 17 6.375 18.9125 6.375 21.25Z" stroke="#0C111D" stroke-width="3" stroke-linecap="round" stroke-linejoin="round"/>
<path d="M36.125 31.875V46.75H44.625V31.875C44.625 29.5375 43.775 27.625 41.225 27.625H39.525C36.975 27.625 36.125 29.5375 36.125 31.875Z" stroke="#0C111D" stroke-width="3" stroke-linecap="round" stroke-linejoin="round"/>
</svg>
